<?xml version="1.0" encoding="UTF-8" standalone="no"?>
<svg
   xmlns:dc="http://purl.org/dc/elements/1.1/"
   xmlns:cc="http://creativecommons.org/ns#"
   xmlns:rdf="http://www.w3.org/1999/02/22-rdf-syntax-ns#"
   xmlns:svg="http://www.w3.org/2000/svg"
   xmlns="http://www.w3.org/2000/svg"
   xmlns:sodipodi="http://sodipodi.sourceforge.net/DTD/sodipodi-0.dtd"
   xmlns:inkscape="http://www.inkscape.org/namespaces/inkscape"
   id="svg8"
   width="119.93252mm"
   height="62.094742mm"
   version="1.1"
   viewBox="0 0 119.93252 62.094742"
   sodipodi:docname="central-de-louvor-logo.svg"
   inkscape:version="0.92.1 r15371">
  <metadata
     id="metadata23">
    <rdf:RDF>
      <cc:Work
         rdf:about="">
        <dc:format>image/svg+xml</dc:format>
        <dc:type
           rdf:resource="http://purl.org/dc/dcmitype/StillImage" />
        <dc:title></dc:title>
      </cc:Work>
    </rdf:RDF>
  </metadata>
  <defs
     id="defs21" />
  <sodipodi:namedview
     pagecolor="#ffffff"
     bordercolor="#666666"
     borderopacity="1"
     objecttolerance="10"
     gridtolerance="10"
     guidetolerance="10"
     inkscape:pageopacity="0"
     inkscape:pageshadow="2"
     inkscape:window-width="1920"
     inkscape:window-height="1017"
     id="namedview19"
     showgrid="false"
     fit-margin-top="0"
     fit-margin-left="0"
     fit-margin-right="0"
     fit-margin-bottom="0"
     inkscape:zoom="1.4479924"
     inkscape:cx="261.73193"
     inkscape:cy="41.022489"
     inkscape:window-x="-8"
     inkscape:window-y="-8"
     inkscape:window-maximized="1"
     inkscape:current-layer="svg8" />
  <path
     style="fill:#a03234;fill-opacity:1;stroke-width:0.26458335"
     d="m 73.107791,61.953202 c -9.78565,-1.21715 -13.19642,-2.26366 -25.929163,-7.95571 -3.956328,-1.76863 -5.267256,-2.24019 -6.154666,-2.21391 -1.350143,0.04 -2.827465,-0.52686 -3.20329,-1.2291 -0.174119,-0.32534 -0.998929,-0.7247 -2.285764,-1.10672 l -2.013339,-0.59769 -3.887094,3.80102 c -7.221168,7.06127 -10.641981,8.95096 -16.203488,8.95096 -5.4054914,0 -11.3191914,-2.84619 -12.96115536,-6.23803 -1.61262904,-3.33125 1.06027796,-7.41609 5.96296196,-9.11282 4.7776984,-1.65349 11.5105034,-1.68568 21.0343754,-0.10058 l 3.836459,0.63852 1.664901,-1.78782 c 1.733971,-1.86198 7.278531,-8.42757 7.401404,-8.76436 0.03876,-0.106241 -1.509051,0.03026 -3.439583,0.30333 -2.179508,0.30829 -5.282158,0.5138 -8.18496,0.54215 -4.374155,0.0427 -4.723093,0.01 -5.423959,-0.51006 -1.205301,-0.894196 -1.177327,-2.675816 0.0508,-3.235388 1.118002,-0.509397 1.62633,-0.363826 2.566988,0.735121 0.491995,0.574786 1.223399,1.170099 1.62534,1.322917 1.027973,0.390834 4.22959,0.34141 8.104691,-0.125117 6.47696,-0.779764 5.71696,-0.47308 7.672917,-3.096268 4.852953,-6.508435 8.405624,-8.342042 14.856154,-7.667585 4.92778,0.515242 6.1375,1.864482 3.92798,4.380987 -1.58494,1.805146 -6.84946,3.933973 -14.239995,5.758257 l -3.525652,0.870272 -1.663526,2.129174 c -0.91494,1.17105 -3.10992,3.84804 -4.877736,5.94888 l -3.214212,3.81971 1.524222,0.4784 c 1.430719,0.44906 1.540455,0.45081 1.788806,0.0286 1.034701,-1.75914 5.164463,-5.1902 8.382281,-6.96411 1.548474,-0.85364 3.637682,-1.0662 4.231502,-0.43051 0.27565,0.29508 0.53378,0.25093 1.53179,-0.26201 2.04443,-1.05078 3.09396,-0.30247 2.14073,1.52634 l -0.52784,1.01268 1.2489,-0.49613 c 0.68689,-0.27287 1.90373,-0.75581 2.7041,-1.0732 0.80036,-0.31738 1.6682,-0.80536 1.92854,-1.0844 0.61726,-0.66162 2.0775,-0.66787 2.67157,-0.0114 0.52224,0.57707 0.49921,0.61125 -3.09755,4.59732 -1.14894,1.27331 -2.01232,2.31511 -1.91862,2.31511 0.4243,0 5.69357,-3.47722 7.61789,-5.02709 3.30777,-2.6641 2.99115,-2.50269 4.19921,-2.14075 0.58429,0.17506 1.12719,0.48726 1.20644,0.69379 0.0876,0.22841 -0.95775,1.62168 -2.66896,3.55706 -1.54718,1.74986 -2.74545,3.18157 -2.66282,3.18157 0.29298,0 2.94388,-1.4018 5.29201,-2.79842 1.82769,-1.08708 2.55604,-1.69527 3.13315,-2.61625 0.63605,-1.01505 0.88176,-1.19992 1.59477,-1.19992 1.64848,0 2.62966,1.37937 1.54202,2.16781 -0.43742,0.31709 -4.10386,5.50511 -3.89053,5.50511 0.24294,0 6.12236,-3.71174 8.53743,-5.38978 3.72134,-2.58565 4.24547,-2.88858 4.69766,-2.71506 0.61635,0.23652 0.4656,0.85975 -0.46409,1.9186 -0.81798,0.93163 -9.81726,7.05886 -12.92285,8.79862 -1.63201,0.91426 -3.13088,1.07671 -3.79616,0.41143 -0.66078,-0.66078 -0.60571,-0.84265 1.22362,-4.04038 l 0.80859,-1.41345 -1.02556,0.65303 c -7.36963,4.69263 -7.04397,4.52632 -8.56903,4.37617 -1.77419,-0.17468 -1.72428,-1.5335 0.13217,-3.59832 0.65648,-0.73016 1.1936,-1.39836 1.1936,-1.48489 0,-0.0865 -0.68461,0.36197 -1.52136,0.99664 -2.48334,1.88362 -6.03994,4.11732 -7.21709,4.53264 -1.69305,0.59734 -2.51369,-0.0965 -1.92587,-1.62834 0.10098,-0.26315 1.40785,-1.93976 2.90415,-3.7258 1.4963,-1.78605 2.6923,-3.24736 2.65777,-3.24736 -0.0345,0 -1.27204,0.51385 -2.75001,1.1419 -2.10074,0.89268 -3.05291,1.48056 -4.36273,2.69359 -1.666925,1.54376 -4.949623,3.83743 -5.492133,3.83743 -0.156419,0 -0.284398,0.10112 -0.284398,0.22471 0,0.27866 9.346951,3.97367 13.568021,5.36367 5.49484,1.80946 13.69346,3.19679 19.10802,3.23338 3.80567,0.0257 4.90509,-0.27728 5.6622,-1.56049 0.70291,-1.19135 1.19102,-1.16665 1.85506,0.0939 0.24375,0.46269 0.24867,0.82573 0.0206,1.5169 -0.62709,1.90011 -3.17455,2.79264 -7.79184,2.72998 -1.60654,-0.0218 -3.27816,-0.0841 -3.71473,-0.13837 z m -57.37686,-2.86112 c 1.62768,-0.48337 3.937326,-1.94872 7.238321,-4.59236 2.424462,-1.94165 6.965353,-6.12885 6.812413,-6.28179 -0.041,-0.041 -1.977517,-0.40092 -4.303374,-0.79983 -7.319254,-1.25533 -13.901185,-0.96104 -17.7321844,0.79285 -3.948056,1.80748 -5.867614,5.75311 -3.993978,8.20958 1.900275,2.49138 8.0026174,3.85235 11.9788024,2.67155 z M 44.27908,48.465302 c 1.024626,-0.51304 2.15572,-1.15778 2.513542,-1.43277 l 0.650589,-0.49997 -0.686596,-0.006 c -0.377629,-0.003 -0.911207,-0.25407 -1.18573,-0.55741 -0.494385,-0.54629 -0.487858,-0.56204 0.686599,-1.65581 0.65215,-0.60736 1.483384,-1.30542 1.847186,-1.55126 0.363802,-0.24584 0.533043,-0.45322 0.376089,-0.46086 -0.943012,-0.0459 -5.595496,4.01402 -6.72742,5.87053 -1.105805,1.81366 -0.622568,1.8698 2.525741,0.29343 z m 6.756031,-5.02911 0.64143,-0.70336 -0.85989,0.62083 c -0.894447,0.64576 -1.008816,0.78589 -0.64143,0.78589 0.12015,0 0.5071,-0.31651 0.85989,-0.70336 z M 49.427586,32.574274 c 3.792465,-1.221623 9.235905,-4.068919 9.802335,-5.127292 0.66664,-1.245637 -3.06687,-1.73287 -5.70759,-0.744855 -1.13639,0.425181 -2.066,1.113179 -3.992015,2.95446 -1.380866,1.320114 -2.754625,2.742819 -3.052797,3.161564 l -0.542131,0.761352 0.753912,-0.183012 c 0.414652,-0.100656 1.64688,-0.470654 2.738286,-0.822217 z m 32.069425,18.812458 c -2.59212,-1.32421 -1.34499,-4.12625 3.42989,-7.70626 3.61548,-2.71075 5.14891,-3.50967 6.73635,-3.50967 0.72312,0 1.45582,0.14107 1.62824,0.31348 0.24159,0.2416 0.5932,0.1738 1.53316,-0.29564 0.99497,-0.49692 1.33692,-0.55571 1.85609,-0.31916 0.71868,0.32745 0.79375,0.91936 0.23955,1.88882 -0.57062,0.9982 -0.48764,1.07725 0.61361,0.58446 1.40857,-0.63031 2.38007,-1.40115 1.96608,-1.55999 -0.46042,-0.17667 -0.41408,-1.27175 0.0709,-1.67421 0.474039,-0.39341 2.215449,-0.2311 4.306549,0.40142 2.18649,0.66137 2.2473,1.16763 0.55384,4.61083 -0.75656,1.53828 -1.43198,2.89973 -1.50093,3.02544 -0.19737,0.35989 4.38966,-2.07602 6.41796,-3.4082 1.79514,-1.17906 2.50359,-1.37164 2.71458,-0.73794 0.0958,0.28758 -8.16373,6.01545 -10.16846,7.05173 -1.15866,0.59894 -2.372329,0.56772 -2.713529,-0.0698 -0.52719,-0.98507 0.18312,-2.93156 2.378989,-6.51918 0.57382,-0.93751 0.93889,-1.70456 0.81128,-1.70456 -0.4883,0 -3.950149,1.74647 -5.872129,2.96243 -1.10484,0.699 -2.16874,1.2709 -2.36422,1.2709 -0.19548,0 -0.89885,0.45651 -1.56306,1.01445 -4.5229,3.79931 -8.85688,5.51364 -11.07469,4.38065 z m 4.84742,-2.59639 c 1.01454,-0.498 2.32086,-1.20866 2.90295,-1.57924 0.98414,-0.62656 1.01087,-0.67437 0.3813,-0.68204 -0.91492,-0.0112 -1.65098,-0.59301 -1.53196,-1.211 0.0536,-0.27847 0.7717,-1.04383 1.59572,-1.70081 0.82402,-0.65697 1.45918,-1.23353 1.41147,-1.28124 -0.18363,-0.18363 -2.43484,1.4156 -3.80565,2.70348 -1.73927,1.63405 -3.47484,3.77337 -3.47484,4.28319 0,0.56498 0.50108,0.45917 2.52101,-0.53234 z m 7.79774,-5.94042 c 0,-0.0728 -0.35719,0.20992 -0.79375,0.62817 -0.43656,0.41825 -0.79375,0.81999 -0.79375,0.89275 0,0.0728 0.35719,-0.20991 0.79375,-0.62817 0.43656,-0.41825 0.79375,-0.81999 0.79375,-0.89275 z"
     id="path4512"
     inkscape:connector-curvature="0"
     sodipodi:nodetypes="ccccccssscsccccccsscsssssccscccsccscsccccscccssccsssccccscccccscsscsccssccscccccscssscsccccccscccccccscsccscccsccsccccscccccccccsscscccsccccssssssscs" />
  <path
     inkscape:connector-curvature="0"
     d="m 119.63822,0.15412053 -1.02956,1.02943997 c -0.56626,0.566179 -1.13498,1.128899 -1.26389,1.250451 -0.20598,0.194244 -1.14881,1.070821 -1.41417,1.314781 -0.38907,0.357662 -1.24712,1.106662 -1.73117,1.511219 -0.19681,0.164487 -0.36218,0.303659 -0.36751,0.309186 -0.0281,0.0292 -0.49027,0.404814 -0.88978,0.723089 -0.25001,0.199173 -0.46759,0.372535 -0.48357,0.385326 -0.47353,0.380056 -1.67038,1.259767 -2.35966,1.734352 -0.17553,0.120797 -0.39748,0.273703 -0.49323,0.339643 -0.16312,0.112392 -0.46407,0.307976 -1.03474,0.672433 -0.59264,0.378503 -1.74019,1.0535295 -2.29205,1.3483145 -0.87759,0.468788 -1.42634,0.738586 -2.44167,1.200151 -0.13176,0.05983 -0.12849,0.06325 -0.1215,-0.125069 l 0.005,-0.113961 -0.0598,0.04245 c -0.0327,0.02337 -0.14913,0.08433 -0.25831,0.135471 -0.55598,0.260041 -2.27938,0.84531 -4.734639,1.607899 -1.03382,0.32111 -0.95981,0.302521 -1.45018,0.364899 -0.88321,0.112392 -1.38086,0.142963 -2.32106,0.143091 -0.90781,5.6e-5 -1.33925,-0.02521 -2.11803,-0.124074 -1.34947,-0.171395 -2.65894,-0.51185 -3.93597,-1.023415 -0.37403,-0.149814 -0.43036,-0.178503 -0.48272,-0.245667 -0.0276,-0.03533 -0.0454,-0.04558 -0.0522,-0.02977 -0.006,0.01283 -0.024,0.02422 -0.0411,0.02422 -0.0171,0 -0.39722,-0.182065 -0.84467,-0.404599 -0.71536,-0.35574 -1.30009,-0.639856 -1.3169,-0.639856 -0.003,0 -0.0911,-0.04017 -0.19598,-0.08918 -0.48264,-0.22581 -1.6139,-0.688031 -2.14646,-0.877019 l -0.17664,-0.06267 -0.008,-0.09274 c -0.0285,-0.296581 -0.36174,-0.6206395 -0.91447,-0.8894275 -0.94375,-0.458944 -1.88437,-0.465454 -2.15261,-0.01496 -0.0174,0.02921 -0.0451,0.05314 -0.0618,0.05314 -0.0165,0 -0.2214,-0.04273 -0.45521,-0.09487 -1.52704,-0.340895 -3.01671,-0.550382 -4.68051,-0.658287 -0.42833,-0.02777 -1.43951,-0.06068 -1.9962,-0.0651 l -0.48744,-0.0029 0.46042,-1.073471 c 0.25326,-0.59041 0.45281,-1.076435 0.44341,-1.080095 -0.0324,-0.01283 -0.39321,0.05712 -0.41435,0.08021 -0.0183,0.02009 -0.0735,0.138461 -0.31225,0.671152 -0.0263,0.05854 -0.0756,0.167307 -0.10998,0.241766 -0.0343,0.0745 -0.16976,0.37148 -0.30102,0.660154 l -0.23871,0.524869 -0.34,0.01282 c -0.95579,0.03519 -2.23971,0.14406 -3.23167,0.273875 -0.12237,0.01595 -0.28453,0.03703 -0.36041,0.04687 -0.13931,0.01794 -0.44132,0.06267 -0.6551,0.09687 -0.0638,0.0099 -0.2509,0.04017 -0.41578,0.06652 -0.42383,0.0678 -0.40993,0.06738 -0.41849,0.01424 -0.0129,-0.0785 -0.0435,-0.115668 -0.11538,-0.139457 -0.15554,-0.05129 -0.44247,0.01666 -0.76076,0.180042 -0.15722,0.08077 -0.31712,0.185542 -0.34954,0.229129 -0.0129,0.01723 -0.11225,0.0426 -0.41577,0.106411 -0.28935,0.06082 -0.32581,0.0624 -0.48356,0.02036 -0.25765,-0.0688 -0.76595,-0.03063 -1.23958,0.09344 -0.22486,0.05884 -0.78526,0.2458545 -0.92579,0.3089595 -0.0537,0.02407 -0.19346,0.08604 -0.31048,0.137463 -0.1171,0.05143 -0.34941,0.160969 -0.51637,0.243434 -0.25097,0.12393 -0.3867,0.175284 -0.78329,0.296323 -0.64099,0.195626 -1.27402,0.399812 -1.93045,0.622732 -0.29788,0.101134 -0.56985,0.192221 -0.60441,0.202351 -0.0345,0.0099 -0.063,0.02636 -0.063,0.03618 0,0.02137 0.0779,0.231851 0.0859,0.231851 0.003,0 0.42382,-0.139174 0.93511,-0.309415 0.51129,-0.170213 0.94069,-0.309543 0.95413,-0.309543 0.0143,0 -0.0969,0.08247 -0.24508,0.183105 -0.69757,0.473573 -1.35984,1.081861 -1.48444,1.363528 -0.0212,0.048 -0.0393,0.129913 -0.0405,0.182149 l -9.5e-4,0.09501 -0.64788,0.220654 c -0.35639,0.121366 -0.69151,0.234771 -0.74469,0.251921 -0.0531,0.01723 -0.10342,0.03704 -0.11183,0.04402 -0.0114,0.0099 0.0462,0.202421 0.0733,0.246623 0.002,0.0029 0.20679,-0.06567 0.45591,-0.151823 0.87585,-0.302691 1.4368,-0.482277 1.62788,-0.521208 0.21816,-0.04445 0.42208,-0.109545 0.75932,-0.242136 0.12764,-0.05028 0.27124,-0.102139 0.31911,-0.115527 0.0479,-0.01283 0.1872,-0.0547 0.30955,-0.09188 0.12237,-0.03732 0.29196,-0.08732 0.37704,-0.111253 0.19236,-0.05385 0.28462,-0.08005 0.49324,-0.140172 0.39118,-0.11282 0.91318,-0.248261 0.92225,-0.239186 0.0281,0.02806 -0.84009,0.803344 -1.38951,1.240992 -0.14074,0.112108 -0.82561,0.619982 -0.87395,0.648117 -0.0336,0.01951 -0.13946,0.05855 -0.23518,0.08675 -0.45661,0.134614 -0.58473,0.173873 -1.18952,0.364072 -0.70819,0.22272 -1.64245,0.531992 -2.26299,0.749071 -0.21809,0.07635 -0.46404,0.16131 -0.54648,0.189002 -0.16561,0.05555 -0.15933,0.04188 -0.0968,0.212734 0.0277,0.07536 0.0355,0.08233 0.0807,0.07137 0.0491,-0.01139 0.34404,-0.113818 0.64965,-0.224543 0.18999,-0.0688 2.16529,-0.719727 2.52051,-0.830638 0.14159,-0.04416 0.26233,-0.0755 0.26821,-0.06966 0.0103,0.0099 -0.28645,0.209088 -0.80619,0.540326 -0.13291,0.08476 -0.28528,0.182136 -0.33848,0.216395 -0.0532,0.03419 -0.36225,0.225712 -0.68672,0.425354 -1.20197,0.739555 -1.40451,0.870396 -1.60059,1.034398 -0.0665,0.05569 -0.12621,0.122222 -0.13277,0.147805 -0.007,0.02564 -0.0143,0.04658 -0.0155,0.04658 -0.004,0 -0.66997,0.23044 -1.01221,0.35051 -0.17813,0.06253 -0.23692,0.09131 -0.23692,0.116097 0,0.05257 0.0738,0.210369 0.0983,0.210369 0.0128,0 0.16695,-0.05157 0.34389,-0.114814 0.96594,-0.344501 2.16452,-0.748089 2.9911,-1.007118 0.0958,-0.03006 0.32631,-0.102565 0.51248,-0.161382 0.66611,-0.210312 1.7226,-0.521465 2.4081,-0.709271 0.11696,-0.03205 0.24314,-0.06695 0.28038,-0.07749 0.3809,-0.107692 1.54445,-0.405141 2.10835,-0.539029 0.44542,-0.105698 0.99901,-0.229429 1.65371,-0.369515 0.56304,-0.120512 1.61186,-0.313958 1.63257,-0.301165 0.008,0.0056 0.0497,-0.0014 0.091,-0.0168 0.0412,-0.01468 0.13177,-0.03604 0.20092,-0.04757 1.92849,-0.320242 3.44824,-0.487932 5.30943,-0.586024 0.58282,-0.03077 2.55931,-0.03019 3.13342,8.23e-4 1.2827,0.06937 2.12871,0.15668 3.32348,0.342948 0.1973,0.03077 0.20883,0.03504 0.198,0.07336 -0.0129,0.04616 -0.0778,0.306309 -0.10869,0.436807 l -0.0205,0.08647 0.12194,0.110825 c 0.067,0.06096 0.13005,0.108689 0.13974,0.10584 0.0103,-0.0029 0.0413,-0.08732 0.0701,-0.187719 0.12636,-0.441366 0.15538,-0.521096 0.18971,-0.521096 0.0183,0 0.16795,0.0265 0.33246,0.05897 1.23581,0.244401 2.52938,0.596151 3.62596,0.985879 0.41726,0.148319 0.41967,0.149201 0.80973,0.301879 l 0.28745,0.112536 0.068,0.106836 c 0.3758,0.591779 1.42084,1.348213 2.21978,1.606603 0.22603,0.07308 0.49536,0.09017 0.5996,0.03804 0.0491,-0.0245 0.20289,-0.221823 0.22525,-0.288873 0.006,-0.01723 0.26956,0.08689 0.60645,0.239414 0.43846,0.198475 1.54422,0.614087 2.27717,0.855881 0.31623,0.104273 0.57517,0.195241 0.5754,0.201993 2e-4,0.0071 -0.0494,0.01852 -0.11041,0.02607 -0.23347,0.0292 -0.4414,0.151396 -0.50137,0.294657 -0.0385,0.09189 -0.0325,0.243803 0.0128,0.341537 0.0821,0.174799 0.29168,0.379043 0.58911,0.57457 0.0958,0.06296 0.16618,0.114388 0.15666,0.114388 -0.0632,0 -1.27558,-0.446294 -1.93929,-0.713886 -0.93688,-0.377664 -1.38917,-0.573974 -2.28909,-0.993573 -0.14116,-0.06581 -0.40594,-0.193476 -1.14124,-0.550384 -0.31067,-0.150797 -0.4958,-0.235041 -1.16046,-0.527575 -0.54369,-0.239301 -1.71729,-0.659883 -2.47595,-0.887305 -1.20396,-0.360967 -2.82227,-0.704057 -4.02323,-0.853059 -0.0798,-0.0099 -0.21464,-0.02721 -0.29976,-0.03846 -0.28426,-0.03746 -0.99728,-0.106267 -1.40236,-0.135325 -0.88399,-0.06339 -1.04971,-0.06823 -2.35007,-0.06823 -1.45713,0 -1.69996,0.0085 -2.97853,0.107123 -1.08509,0.08348 -2.80376,0.298034 -3.85877,0.481665 -0.0585,0.0099 -0.23249,0.04031 -0.38673,0.06682 -0.8799,0.151523 -2.00884,0.38168 -3.10442,0.632905 -0.43696,0.100139 -1.79668,0.436265 -2.0212,0.499598 -0.0692,0.01951 -0.26494,0.07222 -0.43517,0.117236 -0.1702,0.04502 -0.3661,0.09786 -0.43526,0.117521 -0.77484,0.219359 -1.40427,0.400098 -1.58607,0.455568 -0.12237,0.03731 -0.29633,0.0896 -0.38675,0.116096 -0.47937,0.140313 -1.77418,0.553445 -2.6596,0.848588 -0.71363,0.237875 -0.95992,0.322219 -1.71181,0.586607 -0.93354,0.328246 -1.01551,0.357433 -1.02413,0.364685 -0.0152,0.01283 0.0637,0.222676 0.087,0.231623 0.0231,0.0085 0.0764,-0.0085 0.73395,-0.244487 0.21276,-0.07621 0.43473,-0.154586 0.49323,-0.174258 0.0585,-0.01965 0.30844,-0.105555 0.55534,-0.190897 0.24691,-0.08532 0.78218,-0.265198 1.18951,-0.399599 0.40736,-0.134473 0.76236,-0.251865 0.78897,-0.261025 0.0266,-0.0085 0.20069,-0.06439 0.38684,-0.122792 0.18619,-0.0584 0.47779,-0.1497 0.648,-0.203063 0.43287,-0.135754 0.87914,-0.269585 1.39531,-0.418857 0.24317,-0.07037 0.46826,-0.13604 0.50018,-0.146154 0.0944,-0.02977 0.71929,-0.204572 0.92837,-0.259729 0.10641,-0.02806 0.28922,-0.07664 0.40624,-0.107976 0.2889,-0.07749 1.43053,-0.366408 1.74085,-0.440453 1.59071,-0.379628 2.84351,-0.628332 4.54523,-0.902178 0.22817,-0.03676 0.92236,-0.134614 1.22824,-0.173303 0.13291,-0.0168 0.30709,-0.03903 0.38685,-0.04928 0.42342,-0.0547 1.51546,-0.157635 2.05027,-0.193132 1.66966,-0.110826 3.08865,-0.119516 4.51624,-0.02792 3.29974,0.211936 6.18895,0.900437 8.94566,2.131714 0.2737,0.122223 0.54163,0.249744 1.24761,0.594072 0.38325,0.186909 1.12017,0.532263 1.21855,0.571025 0.0212,0.0085 0.0953,0.04131 0.16445,0.07308 0.0692,0.03176 0.19092,0.08589 0.2707,0.120227 0.0798,0.03434 0.17997,0.07778 0.22254,0.09658 1.18067,0.520396 2.99886,1.180252 4.31337,1.565421 0.14891,0.04359 0.32738,0.09629 0.39655,0.116952 0.15098,0.04516 0.45161,0.125213 0.90901,0.241765 3.62917,0.925039 7.362049,1.214169 10.848649,0.84031 0.10243,-0.01139 0.26445,-0.02821 0.36017,-0.03831 0.50557,-0.05342 1.49574,-0.201596 2.06962,-0.3099 0.4607,-0.08689 1.48852,-0.304798 1.60308,-0.339741 0.0337,-0.0099 0.0353,-0.0029 0.0224,0.102282 -0.007,0.06226 -0.0165,0.116097 -0.02,0.119658 -0.007,0.0085 -0.0834,0.01723 -0.26113,0.03148 -0.65272,0.05242 -1.71769,0.57628 -2.4947,1.227303 -0.3063,0.256608 -0.60194,0.579114 -0.76311,0.832518 -0.37228,0.585352 -0.27333,1.073443 0.24143,1.19082 h 1.4e-4 c 0.15078,0.03434 0.5032,0.0255 0.70492,-0.01768 1.01578,-0.217264 2.07911,-0.909882 2.57805,-1.679224 0.16467,-0.253944 0.2782,-0.630139 0.44828,-1.484538 l 0.0903,-0.453929 0.11481,-0.03262 c 0.0632,-0.01795 0.26267,-0.07336 0.44354,-0.123218 0.18084,-0.04986 0.47249,-0.134045 0.648,-0.187364 0.17552,-0.05328 0.36696,-0.110826 0.42546,-0.127921 0.0585,-0.01709 0.36758,-0.119372 0.68673,-0.227491 1.03646,-0.350968 1.66424,-0.589826 2.59177,-0.986236 0.41793,-0.178645 0.56048,-0.241723 1.02531,-0.453459 0.60002,-0.273318 1.74371,-0.845025 2.30163,-1.150567 0.45346,-0.248273 0.72612,-0.402176 0.73347,-0.414128 0.0103,-0.0171 -0.0356,-0.112249 -0.0854,-0.176494 -0.0367,-0.04744 -0.0387,-0.04786 -0.0966,-0.01525 -0.0325,0.01824 -0.12636,0.06951 -0.20861,0.113817 -0.0821,0.0443 -0.23207,0.126495 -0.33314,0.182634 -0.30302,0.168275 -0.67617,0.362819 -1.24006,0.646579 -0.47134,0.237178 -0.72715,0.36064 -1.27452,0.614712 -0.51962,0.241224 -1.41474,0.618531 -2.13727,0.90088 -0.53829,0.210355 -1.50627,0.546081 -2.13728,0.741279 -0.40851,0.126353 -1.34752,0.393588 -1.38289,0.393588 -0.019,0 -0.0103,-0.0933 0.0399,-0.378602 0.0493,-0.286623 0.0625,-0.367577 0.10512,-0.646593 0.0129,-0.07977 0.0295,-0.192819 0.0387,-0.251338 0.0103,-0.05855 0.0266,-0.171666 0.0387,-0.251452 0.0129,-0.07977 0.0295,-0.192949 0.0386,-0.251452 0.0319,-0.206382 0.1549,-1.064098 0.1549,-1.080095 0,-0.0085 0.14146,-0.0708 0.31425,-0.137606 0.50977,-0.197052 1.38012,-0.561267 1.91981,-0.803374 0.50004,-0.224316 1.7354,-0.829141 2.23394,-1.093771 0.14364,-0.07621 0.2872,-0.152206 0.31911,-0.168817 0.0319,-0.01667 0.19293,-0.10584 0.35783,-0.198218 0.16488,-0.09245 0.35208,-0.196708 0.41591,-0.231851 0.55676,-0.306623 1.5513,-0.90759 2.33065,-1.408285 0.2518,-0.161766 1.0372,-0.687063 1.06131,-0.709869 0.0222,-0.02095 0.0165,-0.03918 -0.0341,-0.112962 -0.0333,-0.04843 -0.0699,-0.09373 -0.0815,-0.100857 -0.0114,-0.0071 -0.13105,0.06082 -0.26572,0.151125 -2.33362,1.56401 -4.41732,2.729062 -6.6566,3.722365 -0.24999,0.110825 -0.48067,0.213232 -0.51259,0.227492 -0.0963,0.04302 -0.60417,0.250995 -0.84138,0.344598 -0.12236,0.04829 -0.28173,0.111255 -0.35429,0.139887 -0.0725,0.02862 -0.13702,0.04702 -0.14307,0.04102 -0.006,-0.0056 -0.002,-0.09174 0.0103,-0.190427 0.02,-0.169743 0.13703,-1.113998 0.17674,-1.426931 0.0102,-0.07977 0.0372,-0.306096 0.0601,-0.502904 0.0231,-0.196809 0.0517,-0.431865 0.0638,-0.522292 l 0.022,-0.164331 0.5126,-0.261137 c 0.4464,-0.227421 0.7263,-0.374842 1.30557,-0.687433 0.53254,-0.287365 1.55589,-0.890368 2.27279,-1.33934 0.42826,-0.26819 1.75113,-1.146334 2.05994,-1.36743 0.2413,-0.172734 0.50803,-0.362235 0.55875,-0.396907 0.36274,-0.247891 1.52359,-1.1301235 2.31877,-1.7624585 l 0.0395,-0.03133 -0.0399,-0.0557 c -0.0219,-0.03063 -0.0615,-0.07564 -0.088,-0.100283 l -0.048,-0.04487 -0.47127,0.371053 c -1.42886,1.1250105 -2.95341,2.2038225 -4.42348,3.1304585 -0.75142,0.473558 -1.73258,1.052516 -2.31469,1.365662 -0.0743,0.04003 -0.17903,0.09716 -0.23231,0.127066 -0.38057,0.213047 -1.38348,0.72014 -1.39718,0.706437 -0.006,-0.0056 0.0215,-0.269828 0.0607,-0.586509 0.0392,-0.316679 0.0793,-0.667105 0.0891,-0.778814 0.0103,-0.11168 0.0228,-0.229216 0.0288,-0.261138 0.0149,-0.07763 -0.0129,-0.113961 -0.0905,-0.117948 -0.0352,-0.0014 -0.0999,-0.0099 -0.14357,-0.01723 l -0.0795,-0.01424 -0.0423,0.277663 c -0.0234,0.152719 -0.0881,0.599697 -0.14368,0.993328 l -0.1013,0.715639 -0.15394,0.07763 c -0.24941,0.125925 -0.72801,0.339572 -1.30474,0.582264 -0.23938,0.100713 -0.47441,0.199842 -0.52228,0.220282 -0.11155,0.04757 -0.72523,0.285242 -0.97681,0.378247 -0.62807,0.232165 -1.52082,0.523061 -2.21765,0.722619 -0.3784,0.108403 -1.23048,0.329941 -1.26968,0.330198 -0.0175,1.37e-4 -0.0219,-0.01895 -0.0149,-0.06282 0.006,-0.03461 0.0279,-0.193418 0.0496,-0.352975 0.0216,-0.159573 0.0608,-0.420669 0.0868,-0.58024 0.0457,-0.279929 0.12777,-0.812975 0.15383,-0.999341 0.007,-0.04972 0.0229,-0.09844 0.0358,-0.108405 0.0129,-0.0099 0.14073,-0.05811 0.2844,-0.106978 1.9071,-0.648915 3.90833,-1.566235 5.92829,-2.717411 0.24848,-0.141596 0.99278,-0.582378 1.15079,-0.681423 0.0798,-0.04999 0.24954,-0.156039 0.37719,-0.235653 0.63706,-0.397279 1.23481,-0.793246 1.95358,-1.2941275 0.98485,-0.686279 1.82378,-1.311162 2.77316,-2.065846 0.96402,-0.766279 2.39187,-1.977015 3.11652,-2.642725 0.34566,-0.317548 0.41642,-0.385412 0.42121,-0.404101 0.003,-0.01139 -0.0338,-0.05983 -0.082,-0.107122 l -0.0877,-0.08589 -0.0817,0.0765 c -0.045,0.04202 -0.0863,0.08106 -0.0919,0.08647 -0.006,0.0056 -0.14513,0.131054 -0.31003,0.279073 -0.16488,0.148048 -0.36939,0.331922 -0.45449,0.408588 -0.0851,0.07664 -0.19958,0.177451 -0.25442,0.223831 -0.0549,0.04644 -0.27679,0.237008 -0.49322,0.423702 -1.53969,1.32803 -3.10577,2.546087 -4.68666,3.644929 -0.37228,0.258759 -1.15568,0.7822765 -1.4371,0.9603815 -0.45797,0.289841 -0.85718,0.539399 -0.99119,0.619784 -0.56253,0.337478 -1.00184,0.591508 -1.43129,0.827561 -0.12235,0.06724 -0.28855,0.159615 -0.36939,0.205298 -0.33878,0.191466 -1.69179,0.864497 -2.19347,1.091064 -0.96907,0.437619 -1.90512,0.812347 -2.85678,1.143712 -0.0712,0.02478 -0.13475,0.03975 -0.14129,0.03319 -0.007,-0.0071 0.0142,-0.224073 0.0455,-0.483203 0.0622,-0.510041 0.078,-0.661721 0.14876,-1.434367 l 0.0129,-0.131624 0.0999,-0.04601 c 0.21822,-0.10057 0.57627,-0.261367 0.582,-0.261367 0.027,0 1.15946,-0.555639 1.55858,-0.764655 2.85744,-1.4964335 5.72883,-3.4795165 8.69434,-6.0041365 0.26376,-0.224543 1.03058,-0.891791 1.12354,-0.977602 0.0114,-0.01139 0.10285,-0.09344 0.20281,-0.183803 0.65507,-0.59242 1.26611,-1.16199 1.84566,-1.720079 0.59872,-0.576533 2.0376,-2.03702497 2.029,-2.05947597 -0.005,-0.01283 -0.0472,-0.0557 -0.0936,-0.09459 z M 72.773911,9.0716915 c 0.0324,-2.08e-4 0.0761,4.83e-4 0.12322,0.0014 l 0.17164,0.0056 -0.18369,0.06581 c -0.10099,0.03618 -0.19526,0.06994 -0.20931,0.07507 -0.0195,0.0071 -0.0183,-0.0085 0.006,-0.06482 0.0171,-0.04074 0.0338,-0.07706 0.0377,-0.08077 9.4e-4,-0.0014 0.0228,-0.0029 0.0552,-0.0029 z m 1.52608,0.0085 c 0.19463,0.0014 0.95201,0.03875 1.32197,0.06567 1.51191,0.109972 2.93309,0.318888 4.40636,0.648103 0.15756,0.03519 0.29002,0.06767 0.29443,0.07208 0.005,0.0043 -0.0517,0.1467935 -0.12465,0.3163795 -0.073,0.169601 -0.17903,0.432435 -0.23587,0.584015 -0.11552,0.30816 -0.094,0.290455 -0.29774,0.244145 -0.42847,-0.09743 -1.6225,-0.294103 -2.21472,-0.364786 -0.5015,-0.05983 -0.68506,-0.07906 -1.09283,-0.114671 -0.84528,-0.07393 -1.42462,-0.102707 -2.41769,-0.119801 -0.40426,-0.0071 -0.73812,-0.01539 -0.74186,-0.01852 -0.005,-0.0029 0.0632,-0.04088 0.1484,-0.08391 0.2105,-0.10584 0.47424,-0.261395 0.60317,-0.3555845 0.34443,-0.251735 0.48418,-0.570652 0.34329,-0.783543 -0.0289,-0.04373 -0.0461,-0.08333 -0.0384,-0.08803 0.002,-0.0012 0.0184,-0.0014 0.0461,-0.0013 z m -2.0701,0.0029 -0.0282,0.06524 c -0.0273,0.06253 -0.46642,1.0342585 -0.55051,1.2176195 l -0.0406,0.08859 -0.36371,0.02365 c -0.67678,0.04402 -1.40903,0.11054 -2.06457,0.187577 -0.15536,0.01824 -0.28678,0.02906 -0.29197,0.0238 -0.005,-0.0056 0.0955,-0.233931 0.22348,-0.508346 0.12806,-0.2744145 0.22937,-0.5024475 0.22513,-0.5066925 -0.0102,-0.0099 -0.33511,0.06197 -0.40517,0.08859 -0.0401,0.01525 -0.0974,0.114245 -0.2962,0.5098705 l -0.24648,0.491109 -0.17568,0.0238 c -0.0966,0.01283 -0.27999,0.04046 -0.40764,0.06054 -0.12764,0.02009 -0.34961,0.05499 -0.49323,0.07749 -0.23186,0.03618 -0.44801,0.07294 -0.79309,0.134472 -0.0585,0.0099 -0.19676,0.03646 -0.30728,0.05797 -0.11055,0.02151 -0.20878,0.03889 -0.21828,0.03889 -0.0103,0 0.0171,-0.04573 0.0595,-0.101564 0.0888,-0.117521 0.11809,-0.185328 0.11809,-0.27319 0,-0.176922 -0.2023,-0.211083 -0.56761,-0.09587 -0.15116,0.04773 -0.4354,0.178091 -0.49618,0.227734 -0.0159,0.01283 -0.0626,0.04387 -0.1037,0.06852 l -0.0747,0.04487 0.0773,-0.114103 c 0.10313,-0.15212 0.20641,-0.361549 0.24661,-0.499854 0.0318,-0.109117 0.0313,-0.249971 -9.4e-4,-0.38037 -0.0143,-0.05755 -0.002,-0.06524 0.13346,-0.08561 0.0856,-0.01283 0.0894,-0.01139 0.0894,0.03375 0,0.025931 0.0226,0.06838 0.0501,0.09415 0.0445,0.0416 0.0669,0.04672 0.19823,0.04516 0.24808,-0.0029 0.65139,-0.1555855 0.8951,-0.3391735 0.0572,-0.04316 0.12463,-0.08662 0.14979,-0.09644 0.0377,-0.01481 0.70865,-0.130199 1.22127,-0.209914 1.1317,-0.176067 2.72839,-0.330783 3.91313,-0.379172 z m 0.91659,0.307651 c 0.12279,0.0014 0.20714,0.04288 0.2184,0.118234 0.0216,0.144301 -0.37736,0.5354395 -0.84941,0.8328885 -0.12151,0.0765 -0.13519,0.08063 -0.27765,0.08063 -0.11239,0 -0.14745,-0.0056 -0.13988,-0.02422 0.0672,-0.161594 0.28169,-0.6020625 0.32063,-0.6584015 0.0717,-0.103704 0.30652,-0.256553 0.47277,-0.307763 0.0939,-0.02892 0.18145,-0.04231 0.25514,-0.04145 z m 7.46393,0.9698125 c 0.0114,-0.0029 0.0321,0.0099 0.0764,0.04074 0.34986,0.24064 0.91887,0.475411 1.36637,0.56373 0.63747,0.125783 1.10485,0.09373 1.34876,-0.09245 0.0852,-0.06496 0.0931,-0.06724 0.15868,-0.04472 0.10427,0.03575 0.4215,0.152778 0.5525,0.203647 0.0638,0.02478 0.19868,0.0772 0.29974,0.116382 0.7549,0.293075 1.63021,0.688458 2.73708,1.236391 0.47872,0.237008 0.91585,0.450937 0.97148,0.475525 0.0923,0.04074 0.10017,0.049 0.0886,0.09473 -0.007,0.02749 -0.0742,0.27131 -0.14959,0.54175 -0.0754,0.27044 -0.14565,0.494086 -0.1563,0.496907 -0.0231,0.0056 -0.0917,-0.02607 -0.69097,-0.324172 -1.04311,-0.518745 -1.77728,-0.853474 -2.53922,-1.157774 -1.30869,-0.522718 -2.46819,-0.897532 -3.80553,-1.230024 -0.3203,-0.07962 -0.5368,-0.142577 -0.5368,-0.156067 -2e-5,-0.01283 0.0574,-0.177805 0.1275,-0.367505 0.0701,-0.189687 0.13205,-0.359928 0.1376,-0.378248 0.003,-0.01139 0.007,-0.01752 0.0142,-0.0188 z m -17.02093,0.0099 c 0.0266,-10e-4 0.0337,0.01282 0.0498,0.06197 0.0497,0.1505 -0.0674,0.47383 -0.29324,0.809641 -0.12407,0.184572 -0.38658,0.51732 -0.45923,0.582249 -0.0268,0.02393 -0.23338,0.08889 -0.56832,0.178973 -0.28944,0.07778 -0.58722,0.158319 -0.66169,0.178974 -0.52809,0.146452 -0.53415,0.147121 -0.40129,0.04815 0.1014,-0.07565 0.32519,-0.310897 0.39338,-0.413789 0.0314,-0.04729 0.0671,-0.119514 0.0793,-0.160327 0.0195,-0.06509 0.0174,-0.08048 -0.0169,-0.126495 -0.0252,-0.03391 -0.0677,-0.0587 -0.11994,-0.06994 -0.15557,-0.03348 -0.56839,0.07664 -1.1338,0.30222 -0.15958,0.06367 -0.33104,0.132051 -0.38109,0.151824 -0.15871,0.06282 -0.0981,-0.0056 0.21262,-0.238603 0.25401,-0.190825 0.86921,-0.559884 1.16462,-0.698644 0.12521,-0.05883 0.3196,-0.11923 1.03489,-0.321111 0.17827,-0.05028 0.98871,-0.26272 1.06674,-0.279556 0.0142,-0.0029 0.0253,-0.0056 0.0341,-0.0056 z m 8.97628,0.313673 1.10252,0.0014 c 0.61113,8.71e-4 1.27064,0.01139 1.4797,0.02464 1.19969,0.0735 1.87468,0.139032 2.82775,0.274231 0.4344,0.06168 1.33896,0.218545 1.73212,0.300455 0.024,0.0056 0.0437,0.01852 0.0437,0.03019 0,0.01139 -0.0841,0.279116 -0.18676,0.594413 -0.1027,0.315284 -0.19187,0.57836 -0.1982,0.584712 -0.007,0.0056 -0.0459,0.0043 -0.0879,-0.0056 -0.52461,-0.116095 -1.76265,-0.285467 -2.71878,-0.371991 -1.08252,-0.09801 -1.53648,-0.116525 -2.86249,-0.116951 -1.3887,-4.85e-4 -2.04421,0.0255 -3.23007,0.128204 -0.15425,0.01283 -0.32365,0.02465 -0.37634,0.02507 -0.0931,7.25e-4 -0.0962,-10e-4 -0.10897,-0.06338 -0.0326,-0.157876 -0.18558,-0.23564 -0.46337,-0.23564 -0.29523,0 -0.63336,0.09003 -1.10653,0.294786 -0.12507,0.05413 -0.23192,0.09387 -0.23751,0.08817 -0.006,-0.0056 0.0214,-0.07891 0.06,-0.16279 0.13446,-0.29245 0.30391,-0.656893 0.40494,-0.870909 0.11808,-0.250042 0.041,-0.214529 0.59958,-0.277421 0.68928,-0.07763 1.14889,-0.12037 1.76977,-0.164928 0.0692,-0.0056 0.20192,-0.01453 0.295,-0.02137 0.11211,-0.0085 0.16918,-0.0056 0.16918,0.0071 0,0.01139 -0.0298,0.08404 -0.0663,0.162094 -0.10212,0.21826 -0.2047,0.467276 -0.19609,0.47588 0.006,0.0071 0.54058,-0.254144 0.58166,-0.285212 0.0102,-0.0085 0.18899,-0.104985 0.39642,-0.215455 z m -4.37026,0.380256 c 0.0143,-8.23e-4 0.0226,-7.27e-4 0.0254,4.84e-4 0.006,0.0029 -0.13547,0.315098 -0.31911,0.692761 -0.1836,0.377647 -0.33671,0.69407 -0.34035,0.703116 -0.005,0.0085 -0.2109,0.05028 -0.46052,0.09145 -0.71991,0.118803 -1.99469,0.363788 -2.64935,0.509058 -0.84054,0.186538 -1.53637,0.353959 -2.26594,0.545169 -0.21974,0.05755 -0.40637,0.1047 -0.41486,0.1047 -0.0292,0 0.0263,-0.04131 0.38368,-0.286295 0.79098,-0.541921 1.48182,-1.076833 1.90388,-1.474381 0.0657,-0.06182 0.13661,-0.121652 0.15785,-0.133048 0.0649,-0.03476 0.64214,-0.161865 1.5908,-0.350156 0.80348,-0.159471 2.18068,-0.390624 2.38845,-0.402918 z m -3.50123,0.256637 c 0.006,0.0014 0.006,0.01994 -0.002,0.05541 -0.006,0.02678 -0.0289,0.05314 -0.0491,0.0584 -0.0469,0.01283 -0.0464,0.0029 0.005,-0.06695 0.0234,-0.03277 0.0391,-0.04829 0.0469,-0.04687 z m 15.56295,0.08846 c 0.0507,0 0.99871,0.2396 1.42845,0.361024 0.71699,0.202563 1.61943,0.497903 2.20504,0.721678 0.45374,0.173375 0.57358,0.220113 0.79295,0.309415 0.13305,0.05413 0.25924,0.106267 0.28052,0.115954 0.0212,0.0099 0.13447,0.05826 0.25144,0.107977 0.27728,0.117805 0.31659,0.135469 0.77362,0.348018 0.37655,0.175056 1.82038,0.88464 1.84001,0.904299 0.008,0.0085 -0.0483,0.213902 -0.23834,0.850224 -0.0404,0.135613 -0.0822,0.246495 -0.0929,0.246495 -0.0102,-1.5e-5 -0.25875,-0.118233 -0.55131,-0.262905 -0.72356,-0.357734 -1.0064,-0.493616 -1.32491,-0.636322 -1.81975,-0.815339 -3.54258,-1.387844 -5.41565,-1.799638 -0.22331,-0.04914 -0.40746,-0.09088 -0.40905,-0.09259 -0.003,-0.0029 0.0793,-0.229415 0.33574,-0.926962 0.069,-0.18725 0.0987,-0.246623 0.12437,-0.246623 z m -6.68537,0.846222 c 0.90637,-0.0014 1.79296,0.02878 2.58196,0.09316 0.75702,0.06182 1.09044,0.09772 1.86641,0.201652 0.31914,0.04273 1.23851,0.199115 1.25411,0.213317 0.008,0.0085 -0.0158,0.122364 -0.0552,0.253802 -0.0394,0.131482 -0.0972,0.326054 -0.12864,0.432436 -0.1047,0.354784 -0.15393,0.512605 -0.15997,0.512605 -0.003,0 -0.079,-0.01283 -0.16808,-0.02807 -0.27235,-0.04729 -1.14045,-0.165639 -1.48704,-0.202705 -1.27232,-0.136038 -2.12015,-0.179387 -3.50101,-0.179087 -1.24677,2.88e-4 -2.00986,0.0329 -3.2785,0.140455 -0.62438,0.05299 -1.62242,0.168561 -2.34024,0.270939 -0.22341,0.03191 -0.45845,0.06638 -0.5223,0.07677 -0.0638,0.0099 -0.14644,0.0238 -0.18367,0.02992 -0.0429,0.0071 -0.0607,0.0043 -0.0485,-0.0071 0.0412,-0.03889 1.0989,-0.661719 1.12378,-0.661719 0.005,0 0.1366,-0.07137 0.29337,-0.158661 0.56301,-0.313475 0.80936,-0.484584 0.99024,-0.687547 l 0.0965,-0.10812 0.23741,-0.02422 c 1.0657,-0.108546 2.26382,-0.165013 3.42906,-0.16752 z m -4.77187,0.320411 c 0.0445,-0.0014 0.0618,0.0029 0.0618,0.01139 0,0.03163 -0.28126,0.308175 -0.44778,0.440226 -0.21075,0.167151 -0.58515,0.433929 -0.76829,0.547547 -0.086,0.05343 -0.16166,0.09716 -0.16788,0.09716 -0.0228,0 0.018,-0.0953 0.20366,-0.473873 0.25357,-0.517505 0.23926,-0.504699 0.62271,-0.560753 0.27169,-0.03974 0.42166,-0.05897 0.49583,-0.06182 z m -1.43544,0.209787 c 0.0114,-1.4e-4 0.0181,6.29e-4 0.0197,0.0029 0.007,0.0071 -0.12066,0.289031 -0.28309,0.62722 -0.16249,0.338204 -0.31127,0.650239 -0.33053,0.693474 l -0.0352,0.07864 -0.18924,0.0329 c -0.67466,0.117663 -1.9753,0.38027 -2.6555,0.536196 -0.8153,0.186922 -2.02998,0.488758 -2.57259,0.639157 -0.48566,0.134614 -1.45232,0.406892 -1.5764,0.444014 -0.21222,0.06353 -0.3585,0.10698 -0.47387,0.140884 -0.35955,0.105554 -1.4089,0.435111 -2.01449,0.632646 -0.38995,0.127208 -0.71594,0.231267 -0.72439,0.231267 -0.0282,0 0.0203,-0.03604 0.11809,-0.08789 0.0896,-0.04757 0.79128,-0.452776 1.03474,-0.597606 0.0585,-0.03476 0.25878,-0.153018 0.44494,-0.262676 0.28982,-0.170697 1.87299,-1.11961 2.57237,-1.541789 0.12236,-0.07379 0.25729,-0.143319 0.29985,-0.154415 0.0426,-0.01139 0.23836,-0.06439 0.43516,-0.118233 0.62855,-0.172236 1.70796,-0.449043 2.12769,-0.545654 1.46726,-0.337676 2.39395,-0.524186 3.62164,-0.728985 0.0778,-0.01283 0.14784,-0.02109 0.18096,-0.02137 z m 12.33567,0.06111 c 0.005,-0.0043 0.17205,0.02821 0.37279,0.07236 0.20076,0.04416 0.39982,0.0876 0.44236,0.09687 0.21814,0.04687 0.94868,0.238404 1.29598,0.339743 0.12764,0.03732 0.27562,0.07962 0.3288,0.09416 0.13661,0.03746 1.1504,0.374002 1.44759,0.480584 0.77723,0.278817 1.74934,0.693814 2.61988,1.118342 0.93735,0.457149 1.14713,0.557805 1.16294,0.557805 0.008,0 0.026,0.01139 0.038,0.02607 0.0164,0.01965 0.0103,0.06609 -0.0285,0.188532 -0.0276,0.08932 -0.0848,0.275598 -0.12706,0.413902 -0.0424,0.138318 -0.0805,0.262364 -0.0846,0.275654 -0.0147,0.04672 -0.059,0.01495 -0.26847,-0.192792 -0.84013,-0.833045 -2.1368,-1.421233 -2.52756,-1.146548 -0.062,0.04359 -0.091,0.08205 -0.11667,0.154657 -0.0208,0.0587 -0.044,0.09416 -0.0593,0.09032 -0.0142,-0.0029 -0.21234,-0.0765 -0.44103,-0.162094 -1.31586,-0.492561 -2.90797,-0.93803 -4.24555,-1.187872 -0.0958,-0.01781 -0.18165,-0.03917 -0.19088,-0.04729 -0.0102,-0.0085 0.0103,-0.09601 0.0416,-0.195256 0.0817,-0.252762 0.33038,-0.96763 0.33989,-0.977146 z m 23.450419,0.196249 c 0.006,0.0056 -0.0296,0.293675 -0.11197,0.909854 -0.0534,0.399101 -0.0846,0.60128 -0.0947,0.612933 -0.0209,0.02407 -1.04257,0.318887 -1.52034,0.438801 -0.91806,0.230441 -1.860249,0.410355 -2.843269,0.542947 -0.45394,0.06125 -1.24909,0.129059 -1.82787,0.155825 -0.38514,0.01781 -1.2906,0.02066 -1.62195,0.0056 -0.1359,-0.0056 -0.14173,-0.0085 -0.13062,-0.04928 0.007,-0.0235 0.0212,-0.09701 0.033,-0.163503 0.0114,-0.06652 0.0315,-0.121082 0.0436,-0.121082 0.0431,-2.88e-4 0.73911,-0.05698 0.83453,-0.06795 0.62182,-0.07194 0.98766,-0.125925 1.44806,-0.213917 1.78147,-0.340284 3.521339,-0.940197 5.369269,-1.851574 0.22837,-0.112677 0.41839,-0.201652 0.42218,-0.197861 z m -14.610549,0.0099 c 0.0129,0 0.1104,0.03533 0.21592,0.07835 0.10541,0.04316 0.37034,0.142307 0.58852,0.220656 1.44956,0.520154 2.91845,0.817759 4.54526,0.920949 0.33415,0.02122 1.97245,0.01424 2.23381,-0.0099 l 0.0967,-0.0085 -0.14508,0.049 c -0.14683,0.04972 -0.61149,0.188689 -1.03321,0.309074 -0.12678,0.03618 -0.25073,0.07906 -0.27532,0.09516 -0.071,0.04658 -0.10483,0.135184 -0.12408,0.325468 -0.0103,0.09743 -0.0325,0.275768 -0.0504,0.396067 -0.0234,0.156752 -0.0412,0.222848 -0.063,0.233148 -0.0409,0.01923 -0.54501,-0.02365 -1.12328,-0.09559 -0.32642,-0.0406 -0.40659,-0.05257 -0.84138,-0.126067 -0.60444,-0.102138 -1.59064,-0.323474 -1.93421,-0.434073 -0.0319,-0.0099 -0.21912,-0.06752 -0.41593,-0.127207 -0.66949,-0.203147 -1.80518,-0.62353 -1.90729,-0.70598 -0.0216,-0.01752 0.0227,-0.264814 0.13462,-0.752019 0.0256,-0.111682 0.0527,-0.240114 0.0604,-0.285328 0.007,-0.04544 0.0245,-0.0822 0.0377,-0.0822 z m -0.29088,1.395066 c 0.0103,-2.88e-4 0.0207,0.0043 0.035,0.01139 0.0808,0.03817 0.27381,0.11795 0.45097,0.186282 1.54183,0.595183 2.89697,0.944982 4.54524,1.173599 0.29617,0.04102 1.04338,0.115528 1.16532,0.116097 0.0355,2.08e-4 0.0437,0.01139 0.0437,0.05855 0,0.06424 -0.22718,1.221062 -0.25347,1.290819 -0.008,0.02393 -0.0232,0.04202 -0.0314,0.04031 -0.008,-0.0014 -0.0454,-0.0071 -0.0826,-0.01139 -0.0372,-0.0043 -0.20698,-0.02863 -0.37719,-0.05414 -1.83245,-0.275456 -3.7169,-0.805525 -5.45174,-1.533555 -0.17932,-0.07522 -0.33019,-0.140883 -0.33528,-0.146026 -0.005,-0.0056 0.0343,-0.186253 0.0874,-0.402577 0.0531,-0.216323 0.11197,-0.460596 0.13063,-0.542818 0.0326,-0.143076 0.045,-0.185612 0.0732,-0.186537 z m 21.242469,0.384386 c 0.0166,0 0.005,0.129487 -0.0419,0.437049 -0.027,0.179829 -0.0659,0.444542 -0.0866,0.588147 -0.0326,0.227262 -0.12921,0.875494 -0.22336,1.498954 -0.0161,0.10641 -0.0333,0.212349 -0.0383,0.235511 -0.0103,0.04943 -0.0476,0.06482 -0.65626,0.270569 -0.85535,0.289172 -1.9203,0.60101 -2.632,0.770652 -0.11125,0.02649 -0.29588,0.07051 -0.41023,0.09786 -0.43676,0.104273 -1.0876,0.23517 -1.68763,0.339302 -0.23075,0.04003 -0.28076,0.048 -0.71575,0.113246 -0.26258,0.03946 -0.34813,0.04687 -0.34813,0.03063 0,-0.0056 0.0345,-0.14624 0.0765,-0.314259 0.11808,-0.471565 0.20257,-0.916078 0.29078,-1.531162 0.0203,-0.142163 0.0398,-0.261309 0.043,-0.264685 0.003,-0.0029 0.22792,-0.06296 0.49902,-0.132477 1.18899,-0.304886 2.09255,-0.585696 3.18369,-0.989526 0.67223,-0.248803 1.28393,-0.49611 1.92253,-0.777034 0.32748,-0.14406 0.38433,-0.16973 0.61661,-0.278618 0.1104,-0.0517 0.20395,-0.09416 0.2079,-0.09416 z m -6.60132,0.03889 c 0.0177,-2.07e-4 0.0144,0.02777 -0.0643,0.526878 -0.0103,0.06652 -0.0375,0.238403 -0.06,0.382036 -0.095,0.607832 -0.18801,1.12585 -0.2054,1.143229 -0.0229,0.02294 -0.7387,0.164514 -1.30167,0.257605 -0.88273,0.145941 -1.619629,0.229857 -2.572579,0.292892 -0.40945,0.02707 -1.77716,0.04914 -2.22439,0.03575 -0.34612,-0.0099 -0.93922,-0.04829 -1.35871,-0.08704 -0.22071,-0.02036 -0.41546,-0.03704 -0.43279,-0.03704 -0.0242,0 -0.0288,-0.01283 -0.02,-0.05328 0.007,-0.02921 0.0558,-0.257634 0.10969,-0.507633 0.093,-0.429941 0.17377,-0.822831 0.17377,-0.844326 0,-0.0056 0.2503,-0.0029 0.55616,0.0029 1.42423,0.03476 3.15329,-0.124786 4.723899,-0.43621 0.77498,-0.153631 1.81594,-0.415526 2.53421,-0.637604 0.0693,-0.02137 0.13305,-0.03903 0.14188,-0.03903 z m -15.010999,0.974767 c 0.003,-0.0029 0.096,0.03434 0.20766,0.08191 1.84221,0.785168 4.0086,1.385763 5.89607,1.634579 l 0.18027,0.0238 -0.0129,0.0688 c -0.0129,0.0715 -0.26482,1.097203 -0.3008,1.224596 h 1.4e-4 c -0.0185,0.06496 -0.0271,0.07235 -0.0825,0.07108 -0.19453,-0.0043 -1.67663,-0.369243 -2.54745,-0.627105 -1.13784,-0.336936 -2.54015,-0.857091 -3.56222,-1.321377 l -0.12892,-0.05855 0.0671,-0.190184 c 0.037,-0.104557 0.11467,-0.350568 0.17271,-0.546594 0.058,-0.196053 0.10756,-0.358488 0.10997,-0.361022 z m 14.628349,1.389168 c 0.0114,0.01139 -0.0128,0.157194 -0.15665,0.943387 -0.0359,0.19681 -0.0708,0.388361 -0.0773,0.425583 -0.007,0.03719 -0.0206,0.11339 -0.0313,0.169287 l -0.0192,0.101565 -0.15819,2.87e-4 c -0.77793,0.0014 -1.83547,0.239428 -2.451279,0.551423 h -1.5e-4 l -0.0944,0.04786 -0.63406,-0.0029 c -0.64158,-0.0029 -1.0233,-0.01581 -1.62052,-0.0547 -0.71287,-0.04644 -1.62328,-0.144999 -2.25345,-0.244031 -0.4587,-0.07208 -0.55763,-0.08846 -0.65274,-0.108546 -0.0559,-0.01139 -0.10161,-0.0245 -0.10161,-0.0282 0,-0.0029 0.0266,-0.117663 0.0595,-0.253232 0.13718,-0.569229 0.23369,-0.986121 0.24414,-1.054455 0.006,-0.04017 0.0166,-0.07621 0.0231,-0.08034 0.007,-0.0043 0.0859,2.88e-4 0.17638,0.0099 0.87481,0.08989 1.5039,0.12037 2.47572,0.1198 0.95818,-5.33e-4 1.54996,-0.02949 2.483,-0.121082 0.24884,-0.02436 0.916609,-0.107265 1.095319,-0.135896 0.69563,-0.111397 0.89772,-0.146069 1.26166,-0.216168 0.23113,-0.04445 0.42552,-0.07565 0.43196,-0.06923 z m 6.51291,0.718845 c 0.0187,1.4e-5 0.0143,0.01283 0.0143,0.03104 0,0.02265 -0.0223,0.17772 -0.0491,0.344584 -0.0271,0.166894 -0.0659,0.407977 -0.0866,0.535626 -0.15104,0.935822 -0.31122,1.892784 -0.31888,1.905164 -0.005,0.0085 -0.0331,0.01909 -0.0625,0.02422 -0.0293,0.0056 -0.24926,0.05342 -0.48863,0.107265 -1.76071,0.396694 -3.33744,0.61219 -5.19337,0.709868 -0.57838,0.03048 -2.21261,0.03548 -2.75626,0.0085 -2.342299,-0.116523 -4.410899,-0.440568 -6.794349,-1.064511 -0.0796,-0.02079 -0.0804,-0.05613 -9.4e-4,-0.05613 0.17395,0 0.49038,-0.137748 0.60705,-0.264315 0.12349,-0.133903 0.14411,-0.197307 0.28286,-0.862404 0.0143,-0.06652 0.0178,-0.06652 0.38488,-0.0043 0.44589,0.07606 1.03659,0.156838 1.53637,0.210029 0.8298,0.08832 1.31082,0.121081 2.15662,0.147092 0.37235,0.01139 0.70166,0.02265 0.73193,0.02478 0.0523,0.0043 0.0487,0.0085 -0.0688,0.09487 -0.19478,0.142621 -0.41538,0.385355 -0.4858,0.534672 -0.0767,0.162548 -0.0817,0.315824 -0.0149,0.454044 0.19847,0.409997 1.05137,0.49635 2.110099,0.213673 0.77174,-0.206039 1.53088,-0.633032 1.76752,-0.994255 0.0704,-0.107265 0.24385,-0.472961 0.24404,-0.514129 5e-5,-0.02023 0.052,-0.03019 0.45463,-0.08633 0.13973,-0.01951 0.28812,-0.04216 0.49796,-0.07565 0.18088,-0.02892 0.97037,-0.171324 1.13641,-0.204943 0.50032,-0.101277 1.48776,-0.333246 1.84719,-0.433859 0.59993,-0.167933 1.12771,-0.321564 1.36364,-0.397135 0.15426,-0.04943 0.3109,-0.09857 0.34814,-0.109257 0.0372,-0.01139 0.22431,-0.07421 0.4158,-0.141026 0.2934,-0.102425 0.39011,-0.137464 0.42132,-0.137464 z m -15.758519,1.178671 c 0.0103,-0.0029 0.11823,0.01468 0.24059,0.03961 l 0.22242,0.04544 -0.003,0.06282 c -0.002,0.03448 -0.0103,0.06966 -0.0194,0.07807 -0.008,0.0085 -0.11581,-0.03761 -0.23739,-0.102415 -0.12165,-0.06482 -0.21314,-0.120513 -0.20318,-0.123647 z"
     id="path16-9"
     style="fill:#f5a532;fill-opacity:1;stroke:#f5a532;stroke-width:0.22845045;stroke-opacity:1" />
  <path
     style="fill:#a03234;fill-opacity:1;stroke-width:0.0518401"
     d="m 70.499601,33.899223 c -0.85781,-0.186348 -1.33522,-0.730466 -1.50715,-1.717765 -0.0957,-0.549676 -0.0371,-1.940047 0.0997,-2.363229 0.19224,-0.59483 0.53838,-0.95802 1.14073,-1.196918 0.27251,-0.108078 0.38975,-0.117403 1.70527,-0.135614 l 1.41265,-0.01956 v 0.362502 0.3625 l -1.25712,0.01767 c -1.19446,0.01679 -1.2694,0.02371 -1.50343,0.138965 -0.31249,0.153889 -0.5204,0.405921 -0.64189,0.778125 -0.0764,0.233995 -0.0955,0.454501 -0.0949,1.096423 7.1e-4,0.935697 0.0732,1.256656 0.35791,1.589374 0.32026,0.374162 0.44395,0.401145 1.93413,0.421963 l 1.30897,0.01828 v 0.358953 0.35895 l -1.33489,-0.0044 c -0.82462,-0.0027 -1.44386,-0.02802 -1.62,-0.06628 z m 4.56192,-0.0034 c -0.69508,-0.192876 -1.06685,-0.657473 -1.22197,-1.527091 -0.0841,-0.471308 -0.0947,-1.610445 -0.0193,-2.074885 0.20631,-1.271535 0.82123,-1.790297 2.20034,-1.856262 1.35659,-0.06489 2.17886,0.28574 2.54297,1.084378 0.12941,0.283831 0.15123,0.40132 0.16656,0.896858 0.0206,0.665618 -0.0507,0.873869 -0.3508,1.023762 -0.16214,0.081 -0.37053,0.09065 -1.95875,0.09072 l -1.77731,1.04e-4 0.0303,0.272161 c 0.0581,0.523076 0.0866,0.636835 0.22127,0.885163 0.0922,0.169995 0.21116,0.294546 0.37149,0.388799 l 0.23589,0.138656 1.56816,0.01575 1.56817,0.01575 v 0.360077 0.36008 l -1.67185,-0.0047 c -1.16446,-0.0032 -1.74264,-0.02429 -1.90513,-0.06937 z m 2.72632,-3.217703 c 0.1697,-0.258995 -0.0209,-0.905844 -0.34993,-1.18747 -0.27691,-0.237016 -0.58739,-0.316147 -1.23651,-0.31515 -0.49049,7.13e-4 -0.57454,0.01533 -0.84116,0.145762 -0.16291,0.07971 -0.34121,0.20811 -0.39619,0.285339 -0.1272,0.178633 -0.25016,0.579195 -0.28513,0.928865 l -0.0272,0.272161 h 1.52565 1.52564 z m 1.83562,0.853602 c 0,-2.637612 4e-4,-2.640975 0.28268,-2.901379 l 0.14052,-0.129601 1.51209,8.8e-5 c 1.45838,8.2e-5 1.52258,0.0044 1.80797,0.119545 0.33994,0.137241 0.70252,0.500685 0.81832,0.820274 0.0568,0.156622 0.0767,0.67484 0.091,2.364899 l 0.0183,2.164324 h -0.441 -0.44098 l -0.0152,-2.008804 c -0.015,-1.981557 -0.0169,-2.012117 -0.13556,-2.253089 -0.0737,-0.149683 -0.19418,-0.290213 -0.31105,-0.362881 -0.17909,-0.111367 -0.25339,-0.119625 -1.21907,-0.1355 -0.91712,-0.01508 -1.03909,-0.0072 -1.12753,0.07284 -0.0948,0.08581 -0.0992,0.190493 -0.0992,2.388591 v 2.298849 h -0.44065 -0.44063 z m 7.14016,2.381746 c -0.42394,-0.09988 -0.76178,-0.353578 -0.93913,-0.705255 -0.1444,-0.286282 -0.18549,-0.823768 -0.18656,-2.439467 l -7.1e-4,-1.568163 h -0.38879 -0.3888 v -0.362888 -0.362881 h 0.3888 0.38879 v -0.881282 -0.881281 h 0.44065 0.44063 v 0.881281 0.881282 h 0.77761 0.77761 v 0.362881 0.36288 h -0.77761 -0.77761 l 0.002,1.542243 c 9.8e-4,0.848233 0.0219,1.64391 0.046,1.768171 0.0943,0.488043 0.37654,0.683037 1.04377,0.721082 l 0.46327,0.02642 v 0.35569 0.355689 l -0.55728,-0.0052 c -0.30651,-0.0028 -0.64513,-0.02591 -0.75249,-0.0512 z m 1.8292,-1.745039 c 5.9e-4,-0.990794 0.0242,-1.962223 0.0527,-2.158729 0.15601,-1.079245 0.77946,-1.534878 2.10022,-1.534878 h 0.48993 v 0.362881 0.36288 h -0.35347 c -0.69272,0 -1.09502,0.226928 -1.28699,0.725955 -0.0776,0.201688 -0.0925,0.489731 -0.11029,2.138211 l -0.0206,1.905123 h -0.43624 -0.43625 l 7.2e-4,-1.801443 z m 3.6454,1.727058 c -0.33259,-0.104014 -0.51633,-0.263941 -0.67538,-0.587827 -0.1294,-0.263509 -0.14781,-0.364581 -0.16402,-0.900388 -0.0231,-0.763427 0.0616,-1.093544 0.36437,-1.422127 0.32825,-0.356105 0.48522,-0.384879 2.09978,-0.384879 h 1.36436 l -1e-4,-0.427681 c -8e-5,-0.514352 -0.0963,-0.748083 -0.36278,-0.881201 -0.15964,-0.07975 -0.35428,-0.09065 -1.62,-0.09072 l -1.43857,-8.1e-5 v -0.365507 -0.365507 l 1.69776,0.01559 c 1.63949,0.01505 1.70516,0.01954 1.91307,0.130722 0.11842,0.06332 0.28822,0.203292 0.37733,0.311041 0.29651,0.358507 0.31458,0.508067 0.3145,2.602917 -1.1e-4,2.126108 -0.007,2.171549 -0.36281,2.349237 -0.16114,0.08049 -0.35546,0.09026 -1.73665,0.08725 -1.12331,-0.0024 -1.61508,-0.02212 -1.77086,-0.07084 z m 2.90764,-0.73284 c 0.0676,-0.06764 0.0815,-0.230363 0.0815,-0.959041 V 31.32602 l -1.23121,2.15e-4 c -1.1224,1.56e-4 -1.24561,0.009 -1.39433,0.09967 -0.20858,0.127185 -0.30053,0.390035 -0.30053,0.859181 0,0.469145 0.092,0.731994 0.30053,0.859179 0.14786,0.09016 0.27078,0.09949 1.31287,0.09967 0.97628,1.57e-4 1.16204,-0.01209 1.2312,-0.08127 z m 1.99955,-2.821582 v -3.628806 h 0.44065 0.44063 v 3.628806 3.628807 h -0.44063 -0.44065 z m 5.720239,3.576409 c -0.3928,-0.08061 -0.73354,-0.263065 -0.97663,-0.522955 -0.39764,-0.425094 -0.5348,-0.870303 -0.58144,-1.887051 -0.0808,-1.759822 0.39369,-2.702363 1.48512,-2.950606 0.26428,-0.06011 0.63862,-0.08204 1.40024,-0.08204 h 1.03953 V 27.59354 26.712259 h 0.44208 0.44208 l -0.0144,3.382566 c -0.0137,3.195895 -0.0197,3.391383 -0.11116,3.542348 -0.18307,0.3023 -0.2019,0.305984 -1.61397,0.315649 -0.7128,0.0049 -1.39296,-0.01103 -1.51146,-0.03535 z m 2.26314,-0.777042 c 0.1,-0.09996 0.10368,-0.172802 0.10368,-2.026453 v -1.922771 l -1.02384,0.01765 c -0.95071,0.01639 -1.04154,0.02636 -1.2715,0.139595 -0.27888,0.137327 -0.46008,0.347348 -0.5911,0.685134 -0.072,0.185625 -0.0897,0.408836 -0.0917,1.162843 -0.003,0.98754 0.0346,1.222803 0.24349,1.529646 0.28318,0.416094 0.5946,0.509755 1.71084,0.51454 0.74998,0.0032 0.82492,-0.0049 0.92015,-0.100182 z m 3.12005,0.748485 c -0.54884,-0.147702 -0.9546,-0.557109 -1.12717,-1.137287 -0.13144,-0.44188 -0.19687,-1.453177 -0.13485,-2.083868 0.0986,-1.002865 0.33431,-1.516406 0.85747,-1.868456 0.3575,-0.24057 0.69782,-0.327826 1.40578,-0.360432 1.59185,-0.07331 2.44596,0.432552 2.67225,1.582677 0.0791,0.402033 0.036,0.990032 -0.0879,1.199789 -0.17871,0.302525 -0.24578,0.312047 -2.19803,0.312047 h -1.7753 l 0.0336,0.397211 c 0.0589,0.69786 0.34072,1.120733 0.83699,1.256292 0.12661,0.03459 0.7676,0.05676 1.64593,0.05694 l 1.43856,1.96e-4 v 0.362882 0.36288 l -1.64592,-0.0034 c -1.25544,-0.0026 -1.71129,-0.021 -1.9214,-0.07755 z m 2.73856,-3.159875 c 0.10227,-0.123229 0.0361,-0.698321 -0.11099,-0.96463 -0.23922,-0.433081 -0.83429,-0.655477 -1.60041,-0.598131 -0.53128,0.03977 -0.76697,0.126084 -1.01193,0.370597 -0.22844,0.228028 -0.33174,0.495898 -0.37507,0.972667 l -0.0271,0.298082 h 1.53014 c 1.30401,0 1.53977,-0.01162 1.59536,-0.07858 z"
     id="path4546"
     inkscape:connector-curvature="0" />
</svg>
