<?xml version="1.0" encoding="UTF-8"?>
<svg id="svg8" width="220mm" height="100mm" version="1.1" viewBox="0 0 220 100" xmlns="http://www.w3.org/2000/svg">
 <g id="layer1" transform="translate(0,-197)">
  <path id="path4496" d="m99.879 261.17c-0.55658-0.14516-1.1453-1.2059-1.372-2.4719-0.0903-0.5043-0.26183-3.3577-0.38121-6.3409-0.23432-5.8553-0.45198-6.842-1.8291-8.2918-1.0678-1.1242-2.0544-1.5355-3.6828-1.5355-3.3892 0-6.959 2.9124-12.37 10.092-3.5323 4.687-5.8163 7.1438-6.6413 7.1438-1.039 0-1.0372-0.0568 0.21811-7.0114 1.3418-7.4338 1.0973-12.967-0.65715-14.871-0.65246-0.70823-2.9627-1.2377-4.3033-0.98619-1.2324 0.2312-2.9916 1.5883-5.2936 4.0836-5.423 5.8785-12.115 12.646-13.624 13.779-2.1239 1.5935-5.7549 3.4037-8.7312 4.353-2.6703 0.85169-7.86 1.192-10.336 0.67777-4.4145-0.91682-8.0171-4.0848-9.5504-8.3985-0.75795-2.1323-1.2762-5.7895-1.2784-9.0219-1e-3 -1.4916-0.09117-2.7072-0.20031-2.7015-0.10914 6e-3 -1.2957 1.6429-2.6369 3.638-3.876 5.7661-9.0266 12.226-9.7477 12.226-0.68871 0-0.3961-0.63594 1.0956-2.3812 2.1682-2.5368 6.2829-8.0561 9.3694-12.568 3.6831-5.3838 10.919-15.022 11.796-15.712 0.83377-0.65584 1.652-0.72612 1.869-0.16055 0.17443 0.45456-0.38419 1.2308-3.0447 4.2306-2.321 2.617-4.5462 6.8937-5.2148 10.023-1.4812 6.9314 1.4388 13.64 7.1635 16.458 5.2116 2.5651 11.674 2.0463 16.826-1.3508 2.4583-1.6207 7.7872-6.8032 13.221-12.858 5.7838-6.4446 7.4377-7.5529 10.938-7.33 3.2523 0.2071 5.7115 2.2782 6.6417 5.5935 0.52045 1.8549 0.59074 6.8391 0.14023 9.944-0.15623 1.0767-0.2416 2.0001-0.18972 2.052 0.05188 0.0519 0.87382-0.82908 1.8265-1.9577 2.9379-3.4803 8.1402-8.3649 9.7435-9.1483 1.7363-0.84847 4.1703-1.1532 5.7653-0.72168 1.7358 0.46957 3.2953 2.0637 4.2359 4.33 0.94742 2.2827 1.6166 5.3719 1.6558 7.644 0.0158 0.91564 0.10509 2.378 0.19844 3.2497 0.32867 3.0692 1.2789 2.1374 4.6187-4.529 4.4213-8.8253 8.8172-14.969 11.798-16.49 1.5029-0.76674 3.8088-0.73491 5.3408 0.0737 2.6851 1.4172 3.5756 3.847 3.9531 10.786 0.27028 4.9684 0.51185 6.3331 1.448 8.1805 1.9792 3.9057 5.5509 4.0923 15.202 0.79426 7.1508-2.4436 8.18-2.6509 14.07-2.8338 7.6501-0.23756 10.297 0.18981 19.145 3.0908 7.6394 2.5047 13.029 3.4433 19.774 3.4433 4.0448 0 6.8094-0.33576 11.012-1.3374 4.4251-1.0546 5.8409-1.0289 4.6018 0.0836-1.1707 1.051-5.3459 2.0837-11.068 2.7376-3.3995 0.38848-4.5356 0.40885-8.1868 0.14675-6.7812-0.48678-11.209-1.4182-18.58-3.9088-6.4995-2.1959-9.836-2.8168-15.016-2.7943-5.8705 0.0255-8.8137 0.61627-14.023 2.8147-4.8417 2.0434-6.8559 2.7165-9.2341 3.0858-5.4393 0.84465-9.6534-1.4855-10.989-6.0764-0.28243-0.97081-0.64084-3.4494-0.79765-5.516-0.52572-6.929-1.8018-9.0793-5.3879-9.0793-2.3968 0-4.054 0.96496-5.8433 3.4025-1.3034 1.7756-5.2387 8.676-7.7166 13.531-1.5205 2.979-2.4602 4.4811-3.4346 5.4901-0.73779 0.76399-1.4538 1.3752-1.591 1.3584-0.13728-0.0169-0.45958-0.0855-0.71622-0.15238zm-66.728-39.174c0.25725-0.40018 0.79088-1.1443 1.1858-1.6536 1.9056-2.4574 2.3045-4.329 1.1652-5.4682-0.64729-0.64729-0.77726-0.67256-2.5797-0.50164-1.6919 0.16044-1.8406 0.1387-1.3689-0.20013 1.0351-0.74354 3.2078-1.3153 5.4707-1.4397 2.2085-0.12137 2.3223-0.0996 2.996 0.57411 0.57874 0.57874 0.66931 0.84822 0.52184 1.5528-0.40745 1.9467-2.9542 4.8741-6.0602 6.9658-1.6162 1.0884-1.9482 1.131-1.3308 0.17058z" fill="#f00" stroke-width=".26458"/>
  <g id="text4485" stroke-width=".26458" aria-label="Coral de Jovens">
   <path id="path4487" d="m64.767 267.15h0.38523l0.12382 3.1644h-0.50906q-0.30268-1.2107-1.1695-1.8986t-2.0913-0.68792q-0.83926 0-1.4997 0.3302t-1.1144 0.94933q-0.45402 0.61912-0.70168 1.5134-0.23389 0.8943-0.23389 2.0225 0 2.2151 0.92181 3.4121 0.92181 1.1832 2.6691 1.1832 2.6554 0 3.4121-2.8205h0.56409v3.4258h-0.48154l-0.31644-1.0869q-1.4446 1.2245-3.4946 1.2245-1.1695 0-2.1188-0.37147-0.93557-0.37148-1.6097-1.0456-0.6604-0.68791-1.0319-1.6648-0.35772-0.97685-0.35772-2.1738 0-1.252 0.38523-2.2839 0.38523-1.0319 1.0732-1.7748 0.70168-0.74295 1.6648-1.1419 0.97684-0.41275 2.1463-0.41275 0.8255 0 1.5547 0.23389 0.72919 0.23389 1.5822 0.75671z" style="font-feature-settings:normal;font-variant-caps:normal;font-variant-ligatures:normal;font-variant-numeric:normal"/>
   <path id="path4489" d="m70.803 270.32q0.78422 0 1.4859 0.28892 0.70168 0.27517 1.2245 0.77047 0.53658 0.4953 0.83926 1.1832 0.31644 0.67416 0.31644 1.4859 0 0.83926-0.31644 1.5409-0.30268 0.70168-0.83926 1.2107-0.52282 0.50906-1.2245 0.79799-0.70168 0.28892-1.4859 0.28892-0.77047 0-1.4721-0.27516-0.68792-0.28893-1.2107-0.79799-0.52282-0.50906-0.8255-1.2107-0.30268-0.71543-0.30268-1.5547 0-0.81174 0.30268-1.4997 0.30268-0.68792 0.8255-1.1832 0.52282-0.4953 1.2107-0.77046 0.70168-0.27517 1.4721-0.27517zm0 0.6604q-0.50906 0-0.93557 0.22013-0.41275 0.22014-0.71543 0.63289-0.28892 0.39899-0.45402 0.97684-0.15134 0.56409-0.15134 1.252 0 0.71543 0.15134 1.2933 0.1651 0.57785 0.45402 0.9906 0.30268 0.39899 0.71543 0.61912 0.41275 0.22014 0.93557 0.22014 0.52282 0 0.94932-0.22014 0.42651-0.22013 0.72919-0.63288t0.46778-0.9906 0.1651-1.2795q0-0.68792-0.1651-1.252t-0.46778-0.96309q-0.30268-0.41275-0.72919-0.63288-0.42651-0.23389-0.94932-0.23389z" style="font-feature-settings:normal;font-variant-caps:normal;font-variant-ligatures:normal;font-variant-numeric:normal"/>
   <path id="path4491" d="m78.388 275.56q0 0.5641 0.02752 0.8943t0.13758 0.50905q0.12382 0.1651 0.34396 0.22014 0.22013 0.055 0.61912 0.0825v0.48154h-3.6597v-0.48154q0.39899-0.0138 0.63288-0.0688 0.23389-0.0688 0.35772-0.2339t0.15134-0.46778q0.04127-0.31644 0.04127-0.83926v-1.6097q0-0.93557-0.02752-1.4584-0.01376-0.52281-0.13758-0.77046-0.11007-0.24765-0.35772-0.28893-0.24765-0.055-0.68792-0.055v-0.48154l2.4077-0.52282 0.19262 1.706h0.05503q0.17886-0.41275 0.44027-0.7567 0.27517-0.34396 0.59161-0.57785 0.31644-0.24765 0.6604-0.38524 0.34396-0.13758 0.70168-0.13758 0.44027 0 0.68792 0.22013 0.26141 0.20638 0.26141 0.56409 0 0.3302-0.20638 0.52282-0.20638 0.17886-0.59161 0.17886-0.22013 0-0.37148-0.055t-0.27517-0.11007q-0.11007-0.0688-0.22013-0.12383-0.09631-0.055-0.22013-0.055-0.37148 0-0.74295 0.48154-0.37148 0.46779-0.57785 1.197-0.11007 0.39899-0.17886 0.90805-0.05503 0.4953-0.05503 1.0456z" style="font-feature-settings:normal;font-variant-caps:normal;font-variant-ligatures:normal;font-variant-numeric:normal"/>
   <path id="path4493" d="m86.692 273.68q-0.78422 0.30269-1.3346 0.59161-0.53658 0.28893-0.86678 0.57785-0.3302 0.28893-0.48154 0.57785-0.13758 0.28893-0.13758 0.59161 0 0.45402 0.30268 0.74295 0.30268 0.28892 0.79798 0.28892 0.35772 0 0.6604-0.17885 0.31644-0.17886 0.55033-0.48155 0.23389-0.31644 0.37148-0.72919 0.13758-0.42651 0.13758-0.89429zm0-0.59161v-0.56409q0-1.6785-1.4309-1.6785-0.23389 0-0.39899 0.0413t-0.27517 0.13758q-0.11007 0.0963-0.20638 0.27517-0.08255 0.17886-0.1651 0.44027-0.15134 0.39899-0.30268 0.53657-0.13758 0.12383-0.41275 0.12383-0.68792 0-0.68792-0.68792 0-0.6604 0.70168-1.0181 0.70168-0.37147 1.995-0.37147 1.3758 0 1.9537 0.4953 0.57785 0.48154 0.57785 1.651v3.0819q0 1.5684 0.61912 1.5684 0.19262 0 0.37148-0.0413 0.17886-0.055 0.30268-0.26141l0.19262 0.3302q-0.1651 0.31644-0.60537 0.53658-0.44027 0.20637-0.92181 0.20637-0.60537 0-0.90805-0.38523-0.28892-0.38523-0.28892-1.0869h-0.06879q-0.35772 0.67416-0.9906 1.0732-0.63288 0.38523-1.4034 0.38523-0.86678 0-1.3621-0.44026-0.4953-0.44027-0.4953-1.1832 0-0.3302 0.11007-0.63288 0.12382-0.30269 0.38523-0.57785 0.26141-0.27517 0.68792-0.53658 0.42651-0.27516 1.0456-0.55033z" style="font-feature-settings:normal;font-variant-caps:normal;font-variant-ligatures:normal;font-variant-numeric:normal"/>
   <path id="path4495" d="m92.398 275.6q0 0.52282 0.04127 0.83926t0.1651 0.4953q0.13758 0.17886 0.37148 0.24765 0.24765 0.0688 0.64664 0.0825v0.48154h-3.7973v-0.48154q0.41275-0.0138 0.6604-0.0825 0.24765-0.0826 0.38523-0.24765 0.15134-0.1651 0.19262-0.45403 0.05503-0.30268 0.05503-0.78422v-5.9298q0-0.74295-0.02752-1.2382-0.01376-0.50906-0.05503-0.68792-0.06879-0.31644-0.3302-0.42651-0.24765-0.11007-0.90805-0.11007v-0.46778l2.6003-0.50906z" style="font-feature-settings:normal;font-variant-caps:normal;font-variant-ligatures:normal;font-variant-numeric:normal"/>
   <path id="path4497" d="m104.59 276.59h-0.055q-0.4953 0.70167-1.0594 1.0044-0.55034 0.28892-1.307 0.28892-0.78423 0-1.4446-0.27516-0.64664-0.28893-1.1282-0.78423-0.46778-0.50906-0.74295-1.2107-0.26141-0.70168-0.26141-1.5272 0-0.81174 0.26141-1.4997 0.27517-0.70167 0.74295-1.197 0.48154-0.50906 1.1419-0.78423 0.6604-0.28892 1.4309-0.28892 0.6604 0 1.1694 0.22013 0.52282 0.22014 1.0044 0.70168v-1.4034q0-0.78423-0.0275-1.307-0.0138-0.52282-0.055-0.71544-0.0688-0.30268-0.38523-0.42651-0.31644-0.12382-1.0319-0.12382v-0.41275l2.8205-0.52282v7.9386q0 0.94933 0.0138 1.5684 0.0138 0.60537 0.0825 0.86678 0.0413 0.1651 0.0963 0.27516 0.0688 0.11007 0.17886 0.17886 0.12382 0.055 0.31644 0.0825 0.20637 0.0275 0.52282 0.0275v0.46778l-2.2839 0.15134zm-0.27516-3.0406q0-0.71544-0.0825-1.0869-0.0688-0.37148-0.28893-0.64664-0.31644-0.41275-0.81174-0.61913-0.48154-0.22013-0.96308-0.22013-0.9906 0-1.5134 0.8255-0.50906 0.81174-0.50906 2.2151 0 0.72919 0.12383 1.3208 0.13758 0.59161 0.38523 1.0181 0.26141 0.41275 0.63288 0.64664 0.38524 0.22013 0.88054 0.22013 0.24765 0 0.4953-0.055 0.2614-0.055 0.4953-0.1651 0.24765-0.12383 0.45402-0.27517 0.20638-0.1651 0.34396-0.37147 0.19262-0.30269 0.27517-0.72919 0.0825-0.42651 0.0825-1.1695z" style="font-feature-settings:normal;font-variant-caps:normal;font-variant-ligatures:normal;font-variant-numeric:normal"/>
   <path id="path4499" d="m114.41 276.47q-1.1695 1.4171-2.903 1.4171-0.81174 0-1.4721-0.26141-0.6604-0.27516-1.1419-0.7567-0.46778-0.4953-0.72919-1.1695-0.26141-0.68792-0.26141-1.5134 0-0.83926 0.27517-1.5547 0.27516-0.71543 0.77046-1.2245 0.50906-0.50906 1.197-0.79799 0.70167-0.28892 1.5272-0.28892 1.3346 0 2.0638 0.72919 0.7292 0.71543 0.7292 2.0638 0 0.19262-0.0825 0.23389-0.0688 0.0413-0.34396 0.0413h-4.5265q-0.0275 0.11006-0.0413 0.27516-0.0138 0.15135-0.0138 0.34396 0 0.71544 0.1651 1.307 0.17886 0.57785 0.4953 0.9906 0.3302 0.41275 0.77047 0.64665 0.45402 0.22013 1.0044 0.22013 0.57785 0 1.0732-0.24765 0.4953-0.26141 1.0181-0.83926zm-2.2701-3.7148q0.27516 0 0.44026-0.0138t0.24765-0.055q0.0825-0.0413 0.11007-0.11006 0.0275-0.0826 0.0275-0.20638 0-0.63288-0.41275-1.0044-0.39899-0.38523-1.1007-0.38523-1.4859 0-1.8436 1.7748z" style="font-feature-settings:normal;font-variant-caps:normal;font-variant-ligatures:normal;font-variant-numeric:normal"/>
   <path id="path4501" d="m121.05 269.25q0-0.48154-0.055-0.77047-0.0413-0.30268-0.19261-0.46778-0.13759-0.17886-0.41275-0.23389-0.27517-0.0688-0.71544-0.0963v-0.52282h4.1825v0.52282q-0.44027 0.0138-0.71544 0.0825-0.2614 0.0688-0.41275 0.24765-0.13758 0.17886-0.19261 0.4953-0.0413 0.31644-0.0413 0.83926v8.4339q0 1.7336-0.72919 2.6416t-2.1325 0.90805q-0.94933 0-1.5134-0.37148-0.57785-0.35772-0.57785-0.96308 0-0.35772 0.19262-0.55034 0.17886-0.17885 0.50906-0.17885 0.26141 0 0.42651 0.12382 0.15134 0.13758 0.35771 0.52282 0.23389 0.44026 0.39899 0.59161 0.17886 0.1651 0.45403 0.1651 0.56409 0 0.86677-0.60537 0.30269-0.60537 0.30269-1.7198z" style="font-feature-settings:normal;font-variant-caps:normal;font-variant-ligatures:normal;font-variant-numeric:normal"/>
   <path id="path4503" d="m128.58 270.32q0.78423 0 1.4859 0.28892 0.70168 0.27517 1.2245 0.77047 0.53657 0.4953 0.83925 1.1832 0.31645 0.67416 0.31645 1.4859 0 0.83926-0.31645 1.5409-0.30268 0.70168-0.83925 1.2107-0.52282 0.50906-1.2245 0.79799-0.70167 0.28892-1.4859 0.28892-0.77046 0-1.4721-0.27516-0.68791-0.28893-1.2107-0.79799t-0.8255-1.2107q-0.30268-0.71543-0.30268-1.5547 0-0.81174 0.30268-1.4997t0.8255-1.1832 1.2107-0.77046q0.70168-0.27517 1.4721-0.27517zm0 0.6604q-0.50905 0-0.93556 0.22013-0.41275 0.22014-0.71544 0.63289-0.28892 0.39899-0.45402 0.97684-0.15134 0.56409-0.15134 1.252 0 0.71543 0.15134 1.2933 0.1651 0.57785 0.45402 0.9906 0.30269 0.39899 0.71544 0.61912 0.41275 0.22014 0.93556 0.22014 0.52282 0 0.94933-0.22014 0.42651-0.22013 0.72919-0.63288t0.46778-0.9906 0.1651-1.2795q0-0.68792-0.1651-1.252t-0.46778-0.96309q-0.30268-0.41275-0.72919-0.63288-0.42651-0.23389-0.94933-0.23389z" style="font-feature-settings:normal;font-variant-caps:normal;font-variant-ligatures:normal;font-variant-numeric:normal"/>
   <path id="path4505" d="m134.27 272.16q-0.1651-0.41275-0.30268-0.64665-0.12382-0.24765-0.27517-0.37147-0.15134-0.12383-0.34395-0.15134-0.17886-0.0413-0.44027-0.055v-0.48154h3.646v0.48154q-0.27517 0.0138-0.45403 0.0275-0.17886 0.0138-0.28892 0.0688-0.0963 0.0413-0.13759 0.13759-0.0413 0.0825-0.0413 0.24765 0 0.23389 0.055 0.44026 0.0688 0.20638 0.13759 0.41275l1.4584 3.9899h0.055l1.252-2.958q0.28893-0.68792 0.41275-1.1007 0.12383-0.41275 0.12383-0.72919t-0.1651-0.42651-0.71544-0.11007v-0.48154h2.7379v0.48154q-0.22013 0-0.39899 0.11007t-0.31644 0.27517q-0.11007 0.15134-0.23389 0.41275-0.11007 0.24765-0.2339 0.52281-0.11006 0.27517-0.20637 0.55034-0.0963 0.26141-0.17886 0.42651l-2.0225 4.6641h-0.79799z" style="font-feature-settings:normal;font-variant-caps:normal;font-variant-ligatures:normal;font-variant-numeric:normal"/>
   <path id="path4507" d="m148.11 276.47q-1.1695 1.4171-2.903 1.4171-0.81174 0-1.4721-0.26141-0.6604-0.27516-1.1419-0.7567-0.46778-0.4953-0.72919-1.1695-0.26141-0.68792-0.26141-1.5134 0-0.83926 0.27517-1.5547 0.27516-0.71543 0.77046-1.2245 0.50906-0.50906 1.197-0.79799 0.70167-0.28892 1.5272-0.28892 1.3346 0 2.0638 0.72919 0.7292 0.71543 0.7292 2.0638 0 0.19262-0.0825 0.23389-0.0688 0.0413-0.34396 0.0413h-4.5265q-0.0275 0.11006-0.0413 0.27516-0.0138 0.15135-0.0138 0.34396 0 0.71544 0.1651 1.307 0.17886 0.57785 0.4953 0.9906 0.3302 0.41275 0.77047 0.64665 0.45402 0.22013 1.0044 0.22013 0.57785 0 1.0732-0.24765 0.4953-0.26141 1.0181-0.83926zm-2.2701-3.7148q0.27516 0 0.44026-0.0138t0.24765-0.055q0.0825-0.0413 0.11007-0.11006 0.0275-0.0826 0.0275-0.20638 0-0.63288-0.41275-1.0044-0.39899-0.38523-1.1007-0.38523-1.4859 0-1.8436 1.7748z" style="font-feature-settings:normal;font-variant-caps:normal;font-variant-ligatures:normal;font-variant-numeric:normal"/>
   <path id="path4509" d="m151.77 275.59q0 0.56409 0.0275 0.89429 0.0275 0.31644 0.13758 0.4953 0.12383 0.1651 0.34396 0.22014 0.23389 0.055 0.63288 0.0826v0.46778h-3.6047v-0.46778q0.38523-0.0275 0.60537-0.0826 0.23389-0.055 0.35771-0.22014 0.12383-0.1651 0.15135-0.46778 0.0413-0.30268 0.0413-0.8255v-1.8299q0-1.6372-0.0825-1.995-0.0413-0.17886-0.11007-0.28892-0.055-0.12383-0.17885-0.17886-0.12383-0.0688-0.31645-0.0826-0.19261-0.0275-0.4953-0.0275v-0.44026l2.2013-0.52282 0.1651 1.3621h0.055q0.52282-0.64664 1.2245-1.0044 0.70168-0.35772 1.5272-0.35772 0.63288 0 1.1557 0.20637 0.52281 0.20638 0.79798 0.5641 0.23389 0.31644 0.3302 0.8255 0.0963 0.4953 0.0963 1.3758v2.2976q0 0.56409 0.0275 0.89429 0.0413 0.31644 0.15134 0.4953 0.11006 0.1651 0.3302 0.22014 0.23389 0.055 0.60536 0.0826v0.46778h-3.5634v-0.46778q0.38523-0.0138 0.60536-0.0688 0.23389-0.0688 0.34396-0.23389 0.12383-0.1651 0.15134-0.46778 0.0413-0.31644 0.0413-0.8255v-1.8161q0-0.78423-0.0826-1.3208-0.0825-0.53658-0.27517-0.86678-0.17886-0.3302-0.48154-0.46778-0.30268-0.15134-0.72919-0.15134-0.61913 0-1.1419 0.3302-0.50906 0.31644-0.79799 0.88053-0.0688 0.13759-0.12382 0.26141-0.0413 0.12383-0.0688 0.28893t-0.0413 0.38523q-0.0138 0.20637-0.0138 0.53657z" style="font-feature-settings:normal;font-variant-caps:normal;font-variant-ligatures:normal;font-variant-numeric:normal"/>
   <path id="path4511" d="m159.47 277.75h-0.30269v-2.3664h0.34396q0.53658 1.9399 1.9537 1.9399 0.55034 0 0.86678-0.26141 0.3302-0.27516 0.3302-0.8255 0-0.20637-0.0688-0.34396-0.055-0.15134-0.23389-0.30268-0.1651-0.1651-0.48155-0.37147-0.30268-0.20638-0.81174-0.52282-0.46778-0.28893-0.81174-0.53658t-0.57785-0.4953q-0.23389-0.2614-0.35772-0.55033-0.11006-0.28892-0.11006-0.67416 0-0.46778 0.15134-0.85301 0.1651-0.399 0.44027-0.67416 0.27516-0.27517 0.64664-0.42651 0.37147-0.1651 0.81174-0.1651 0.37147 0 0.77047 0.12382 0.39899 0.11007 0.70167 0.30269l0.27517-0.28893h0.26141v1.9812h-0.35772q-0.30268-0.83926-0.6604-1.197-0.35772-0.35772-0.88053-0.35772-0.46779 0-0.75671 0.24765-0.27517 0.24765-0.27517 0.68792 0 0.23389 0.0688 0.41275 0.0825 0.1651 0.24765 0.3302 0.1651 0.1651 0.41275 0.34396 0.26141 0.1651 0.61913 0.38523 0.59161 0.37147 1.0044 0.6604 0.4265 0.28892 0.68791 0.57785 0.26141 0.27517 0.38524 0.57785 0.12382 0.30268 0.12382 0.68792 0 0.97684-0.63288 1.5409-0.63289 0.55033-1.6648 0.55033-1.0732 0-1.8436-0.61912z" style="font-feature-settings:normal;font-variant-caps:normal;font-variant-ligatures:normal;font-variant-numeric:normal"/>
  </g>
 </g>
</svg>
