<?xml version="1.0" encoding="UTF-8" standalone="no"?>
<svg
   xmlns:dc="http://purl.org/dc/elements/1.1/"
   xmlns:cc="http://creativecommons.org/ns#"
   xmlns:rdf="http://www.w3.org/1999/02/22-rdf-syntax-ns#"
   xmlns:svg="http://www.w3.org/2000/svg"
   xmlns="http://www.w3.org/2000/svg"
   xmlns:sodipodi="http://sodipodi.sourceforge.net/DTD/sodipodi-0.dtd"
   xmlns:inkscape="http://www.inkscape.org/namespaces/inkscape"
   id="svg8"
   width="220mm"
   height="100mm"
   version="1.1"
   viewBox="0 0 220 100"
   sodipodi:docname="instituto-biblico-logo.svg"
   inkscape:version="0.92.1 r15371">
  <metadata
     id="metadata23">
    <rdf:RDF>
      <cc:Work
         rdf:about="">
        <dc:format>image/svg+xml</dc:format>
        <dc:type
           rdf:resource="http://purl.org/dc/dcmitype/StillImage" />
      </cc:Work>
    </rdf:RDF>
  </metadata>
  <defs
     id="defs21" />
  <sodipodi:namedview
     pagecolor="#ffffff"
     bordercolor="#666666"
     borderopacity="1"
     objecttolerance="10"
     gridtolerance="10"
     guidetolerance="10"
     inkscape:pageopacity="0"
     inkscape:pageshadow="2"
     inkscape:window-width="1920"
     inkscape:window-height="1017"
     id="namedview19"
     showgrid="false"
     inkscape:zoom="1.0238853"
     inkscape:cx="246.10406"
     inkscape:cy="204.3605"
     inkscape:window-x="-8"
     inkscape:window-y="-8"
     inkscape:window-maximized="1"
     inkscape:current-layer="layer1" />
  <g
     id="layer1"
     transform="translate(0,-197)">
    <path
       id="path4496"
       d="m99.879 261.17c-0.55658-0.14516-1.1453-1.2059-1.372-2.4719-0.0903-0.5043-0.26183-3.3577-0.38121-6.3409-0.23432-5.8553-0.45198-6.842-1.8291-8.2918-1.0678-1.1242-2.0544-1.5355-3.6828-1.5355-3.3892 0-6.959 2.9124-12.37 10.092-3.5323 4.687-5.8163 7.1438-6.6413 7.1438-1.039 0-1.0372-0.0568 0.21811-7.0114 1.3418-7.4338 1.0973-12.967-0.65715-14.871-0.65246-0.70823-2.9627-1.2377-4.3033-0.98619-1.2324 0.2312-2.9916 1.5883-5.2936 4.0836-5.423 5.8785-12.115 12.646-13.624 13.779-2.1239 1.5935-5.7549 3.4037-8.7312 4.353-2.6703 0.85169-7.86 1.192-10.336 0.67777-4.4145-0.91682-8.0171-4.0848-9.5504-8.3985-0.75795-2.1323-1.2762-5.7895-1.2784-9.0219-1e-3 -1.4916-0.09117-2.7072-0.20031-2.7015-0.10914 6e-3 -1.2957 1.6429-2.6369 3.638-3.876 5.7661-9.0266 12.226-9.7477 12.226-0.68871 0-0.3961-0.63594 1.0956-2.3812 2.1682-2.5368 6.2829-8.0561 9.3694-12.568 3.6831-5.3838 10.919-15.022 11.796-15.712 0.83377-0.65584 1.652-0.72612 1.869-0.16055 0.17443 0.45456-0.38419 1.2308-3.0447 4.2306-2.321 2.617-4.5462 6.8937-5.2148 10.023-1.4812 6.9314 1.4388 13.64 7.1635 16.458 5.2116 2.5651 11.674 2.0463 16.826-1.3508 2.4583-1.6207 7.7872-6.8032 13.221-12.858 5.7838-6.4446 7.4377-7.5529 10.938-7.33 3.2523 0.2071 5.7115 2.2782 6.6417 5.5935 0.52045 1.8549 0.59074 6.8391 0.14023 9.944-0.15623 1.0767-0.2416 2.0001-0.18972 2.052 0.05188 0.0519 0.87382-0.82908 1.8265-1.9577 2.9379-3.4803 8.1402-8.3649 9.7435-9.1483 1.7363-0.84847 4.1703-1.1532 5.7653-0.72168 1.7358 0.46957 3.2953 2.0637 4.2359 4.33 0.94742 2.2827 1.6166 5.3719 1.6558 7.644 0.0158 0.91564 0.10509 2.378 0.19844 3.2497 0.32867 3.0692 1.2789 2.1374 4.6187-4.529 4.4213-8.8253 8.8172-14.969 11.798-16.49 1.5029-0.76674 3.8088-0.73491 5.3408 0.0737 2.6851 1.4172 3.5756 3.847 3.9531 10.786 0.27028 4.9684 0.51185 6.3331 1.448 8.1805 1.9792 3.9057 5.5509 4.0923 15.202 0.79426 7.1508-2.4436 8.18-2.6509 14.07-2.8338 7.6501-0.23756 10.297 0.18981 19.145 3.0908 7.6394 2.5047 13.029 3.4433 19.774 3.4433 4.0448 0 6.8094-0.33576 11.012-1.3374 4.4251-1.0546 5.8409-1.0289 4.6018 0.0836-1.1707 1.051-5.3459 2.0837-11.068 2.7376-3.3995 0.38848-4.5356 0.40885-8.1868 0.14675-6.7812-0.48678-11.209-1.4182-18.58-3.9088-6.4995-2.1959-9.836-2.8168-15.016-2.7943-5.8705 0.0255-8.8137 0.61627-14.023 2.8147-4.8417 2.0434-6.8559 2.7165-9.2341 3.0858-5.4393 0.84465-9.6534-1.4855-10.989-6.0764-0.28243-0.97081-0.64084-3.4494-0.79765-5.516-0.52572-6.929-1.8018-9.0793-5.3879-9.0793-2.3968 0-4.054 0.96496-5.8433 3.4025-1.3034 1.7756-5.2387 8.676-7.7166 13.531-1.5205 2.979-2.4602 4.4811-3.4346 5.4901-0.73779 0.76399-1.4538 1.3752-1.591 1.3584-0.13728-0.0169-0.45958-0.0855-0.71622-0.15238zm-66.728-39.174c0.25725-0.40018 0.79088-1.1443 1.1858-1.6536 1.9056-2.4574 2.3045-4.329 1.1652-5.4682-0.64729-0.64729-0.77726-0.67256-2.5797-0.50164-1.6919 0.16044-1.8406 0.1387-1.3689-0.20013 1.0351-0.74354 3.2078-1.3153 5.4707-1.4397 2.2085-0.12137 2.3223-0.0996 2.996 0.57411 0.57874 0.57874 0.66931 0.84822 0.52184 1.5528-0.40745 1.9467-2.9542 4.8741-6.0602 6.9658-1.6162 1.0884-1.9482 1.131-1.3308 0.17058z"
       fill="#f00"
       stroke-width=".26458" />
    <g
       id="text4485"
       stroke-width=".26458"
       aria-label="Coral de Jovens">
      <text
         xml:space="preserve"
         style="font-style:normal;font-variant:normal;font-weight:normal;font-stretch:normal;font-size:20.38420677px;line-height:1.25;font-family:TIMES;-inkscape-font-specification:'TIMES, Normal';font-variant-ligatures:normal;font-variant-caps:normal;font-variant-numeric:normal;font-feature-settings:normal;text-align:start;letter-spacing:0px;word-spacing:0px;writing-mode:lr-tb;text-anchor:start;fill:#ff0000;fill-opacity:1;stroke:none;stroke-width:0.13483191"
         x="13.617933"
         y="283.74011"
         id="text4502"><tspan
           sodipodi:role="line"
           id="tspan4500"
           x="13.617933"
           y="283.74011"
           style="font-style:normal;font-variant:normal;font-weight:normal;font-stretch:normal;font-size:20.38420677px;font-family:TIMES;-inkscape-font-specification:'TIMES, Normal';font-variant-ligatures:normal;font-variant-caps:normal;font-variant-numeric:normal;font-feature-settings:normal;text-align:start;writing-mode:lr-tb;text-anchor:start;fill:#ff0000;fill-opacity:1;stroke-width:0.13483191">INSTITUTO BÍBLICO</tspan></text>
    </g>
  </g>
</svg>
