<?xml version="1.0" encoding="UTF-8"?>
<svg width="246.83mm" height="118.62mm" version="1.1" viewBox="0 0 246.82767 118.62429" xmlns="http://www.w3.org/2000/svg">
 <defs>
  <radialGradient id="radialGradient6022" cx="108.37" cy="250.89" r="123.41" gradientTransform="matrix(1 0 0 .4806 15.04 -61.26)" gradientUnits="userSpaceOnUse">
   <stop stop-color="#fff" stop-opacity=".5" offset="0"/>
   <stop stop-color="#fff" stop-opacity="0" offset="1"/>
  </radialGradient>
 </defs>
 <ellipse cx="123.41" cy="59.31" rx="123.41" ry="59.312" fill="url(#radialGradient6022)"/>
 <path id="icm-logo" d="m44.489 27.91c-0.35491-0.0106-0.81878 0.17317-1.2878 0.54208-0.87655 0.6895-8.1131 10.328-11.796 15.712-3.0865 4.5116-7.2013 10.031-9.3695 12.568-1.4917 1.7453-1.7842 2.3812-1.0955 2.3812 0.72109 0 5.8717-6.4605 9.7477-12.227 1.3411-1.9951 2.5279-3.632 2.637-3.638 0.10911-6e-3 0.19899 1.21 0.19999 2.7016 0.0021 3.2323 0.52052 6.8894 1.2785 9.0217 1.5334 4.3137 5.1358 7.4816 9.5503 8.3984 2.476 0.51422 7.666 0.17421 10.336-0.67748 2.9764-0.94928 6.6074-2.7598 8.7312-4.3532 1.5096-1.1326 8.2009-7.9 13.624-13.778 2.302-2.4954 4.0613-3.8528 5.2937-4.084 1.3406-0.25149 3.6512 0.27828 4.3036 0.98651 1.7545 1.9044 1.9986 7.4376 0.65681 14.871-1.2553 6.9546-1.257 7.0115-0.21808 7.0115 0.82498 0 3.1091-2.4568 6.6415-7.1438 5.4108-7.1795 8.9806-10.092 12.37-10.092 1.6284 0 2.6152 0.41114 3.683 1.5353 1.3772 1.4498 1.5945 2.4367 1.8288 8.292 0.11938 2.9832 0.29107 5.8364 0.38137 6.3407 0.22667 1.266 0.81543 2.3265 1.372 2.4717 0.25664 0.0669 0.57896 0.13554 0.71624 0.15244 0.13729 0.0169 0.85333-0.59407 1.5911-1.3581 0.97443-1.009 1.9139-2.5111 3.4344-5.4901 2.4779-4.8548 6.413-11.755 7.7163-13.531 1.7893-2.4375 3.4468-3.4024 5.8436-3.4024 3.5861 0 4.8621 2.15 5.3878 9.079 0.15681 2.0666 0.51546 4.5451 0.79789 5.5159 1.3356 4.5909 5.5496 6.9213 10.989 6.0766 2.3782-0.3693 4.3924-1.0422 9.2341-3.0856 5.2092-2.1985 8.1524-2.7893 14.023-2.8148 5.1794-0.0225 8.5156 0.59824 15.015 2.7941 7.3716 2.4905 11.8 3.422 18.581 3.9088 3.6512 0.2621 4.787 0.24172 8.1866-0.14676 5.7219-0.65388 9.8974-1.6868 11.068-2.7378 1.2392-1.1125-0.17668-1.1378-4.6018-0.0832-4.2027 1.0016-6.9675 1.3374-11.012 1.3374-6.7447 0-12.135-0.93898-19.774-3.4437-8.848-2.901-11.496-3.3283-19.146-3.0908-5.8897 0.18289-6.9187 0.39036-14.069 2.8339-9.6512 3.298-13.223 3.1114-15.202-0.79427-0.93615-1.8474-1.1777-3.212-1.448-8.1804-0.37753-6.9395-1.2682-9.3692-3.9532-10.786-1.5321-0.80861-3.8378-0.84064-5.3408-0.0739-2.981 1.5208-7.3769 7.6647-11.798 16.49-3.3398 6.6665-4.2902 7.5986-4.6188 4.5294-0.0934-0.87169-0.18264-2.3343-0.19844-3.2499-0.0392-2.2721-0.70829-5.3613-1.6557-7.644-0.94066-2.2664-2.5001-3.8604-4.2359-4.33-1.595-0.43146-4.0287-0.12655-5.765 0.72193-1.6032 0.78343-6.8057 5.668-9.7436 9.1483-0.95271 1.1286-1.7749 2.0094-1.8268 1.9575-0.05188-0.0519 0.03343-0.97535 0.18965-2.0521 0.45051-3.1049 0.38041-8.0892-0.14004-9.9441-0.93023-3.3153-3.3897-5.3864-6.642-5.5935-3.5001-0.22287-5.1535 0.88575-10.937 7.3303-5.4342 6.055-10.763 11.237-13.221 12.858-5.1527 3.3971-11.615 3.9159-16.826 1.3508-5.7247-2.8176-8.6451-9.526-7.1639-16.457 0.66862-3.1288 2.8942-7.4057 5.2152-10.023 2.6605-2.9999 3.2192-3.7762 3.0448-4.2308-0.09496-0.24744-0.30531-0.37314-0.58136-0.38137z" fill="#f00" stroke-width=".265"/>
 <path id="icm-logo-line" d="m44.489 27.91c-0.35491-0.0106-0.81878 0.17317-1.2878 0.54208-0.87655 0.6895-8.1131 10.328-11.796 15.712-3.0865 4.5116-7.2013 10.031-9.3695 12.568-1.4917 1.7453-1.7842 2.3812-1.0955 2.3812 0.72109 0 5.8717-6.4605 9.7477-12.227 1.3411-1.9951 2.5279-3.632 2.637-3.638 0.10911-6e-3 0.19899 1.21 0.19999 2.7016 0.0021 3.2323 0.52052 6.8894 1.2785 9.0217 1.5334 4.3137 5.1358 7.4816 9.5503 8.3984 2.476 0.51422 7.666 0.17421 10.336-0.67748 2.9764-0.94928 6.6074-2.7598 8.7312-4.3532 1.5096-1.1326 8.2009-7.9 13.624-13.778 2.302-2.4954 4.0613-3.8528 5.2937-4.084 1.3406-0.25149 3.6512 0.27828 4.3036 0.98651 1.7545 1.9044 1.9986 7.4376 0.65681 14.871-1.2553 6.9546-1.257 7.0115-0.21808 7.0115 0.82498 0 3.1091-2.4568 6.6415-7.1438 5.4108-7.1795 8.9806-10.092 12.37-10.092 1.6284 0 2.6152 0.41114 3.683 1.5353 1.3772 1.4498 1.5945 2.4367 1.8288 8.292 0.11938 2.9832 0.29107 5.8364 0.38137 6.3407 0.22667 1.266 0.81543 2.3265 1.372 2.4717 0.25664 0.0669 0.57896 0.13554 0.71624 0.15244 0.13729 0.0169 0.85333-0.59407 1.5911-1.3581 0.97443-1.009 1.9139-2.5111 3.4344-5.4901 2.4779-4.8548 6.413-11.755 7.7163-13.531 1.7893-2.4375 3.4468-3.4024 5.8436-3.4024 3.5861 0 4.8621 2.15 5.3878 9.079 0.15681 2.0666 0.51546 4.5451 0.79789 5.5159 1.3356 4.5909 5.5496 6.9213 10.989 6.0766 2.3782-0.3693 4.3924-1.0422 9.2341-3.0856 5.2092-2.1985 8.1524-2.7893 14.023-2.8148 5.1794-0.0225 8.5156 0.59824 15.015 2.7941 7.3716 2.4905 11.8 3.422 18.581 3.9088 3.6512 0.2621 4.787 0.24172 8.1866-0.14676 5.7219-0.65388 9.8974-1.6868 11.068-2.7378 1.2392-1.1125-0.17668-1.1378-4.6018-0.0832-4.2027 1.0016-6.9675 1.3374-11.012 1.3374-6.7447 0-12.135-0.93898-19.774-3.4437-8.848-2.901-11.496-3.3283-19.146-3.0908-5.8897 0.18289-6.9187 0.39036-14.069 2.8339-9.6512 3.298-13.223 3.1114-15.202-0.79427-0.93615-1.8474-1.1777-3.212-1.448-8.1804-0.37753-6.9395-1.2682-9.3692-3.9532-10.786-1.5321-0.80861-3.8378-0.84064-5.3408-0.0739-2.981 1.5208-7.3769 7.6647-11.798 16.49-3.3398 6.6665-4.2902 7.5986-4.6188 4.5294-0.0934-0.87169-0.18264-2.3343-0.19844-3.2499-0.0392-2.2721-0.70829-5.3613-1.6557-7.644-0.94066-2.2664-2.5001-3.8604-4.2359-4.33-1.595-0.43146-4.0287-0.12655-5.765 0.72193-1.6032 0.78343-6.8057 5.668-9.7436 9.1483-0.95271 1.1286-1.7749 2.0094-1.8268 1.9575-0.05188-0.0519 0.03343-0.97535 0.18965-2.0521 0.45051-3.1049 0.38041-8.0892-0.14004-9.9441-0.93023-3.3153-3.3897-5.3864-6.642-5.5935-3.5001-0.22287-5.1535 0.88575-10.937 7.3303-5.4342 6.055-10.763 11.237-13.221 12.858-5.1527 3.3971-11.615 3.9159-16.826 1.3508-5.7247-2.8176-8.6451-9.526-7.1639-16.457 0.66862-3.1288 2.8942-7.4057 5.2152-10.023 2.6605-2.9999 3.2192-3.7762 3.0448-4.2308-0.09496-0.24744-0.30531-0.37314-0.58136-0.38137z" fill="none" stroke="#f00" stroke-width=".265"/>
 <path id="icm-logo-dot" d="m51.935 16.23c-0.33176 5e-3 -0.7527 0.026-1.3048 0.0563-2.2629 0.12435-4.4359 0.69617-5.471 1.4397-0.4717 0.33883-0.32301 0.36042 1.3689 0.19998 1.8024-0.17092 1.9324-0.14551 2.5797 0.50178 1.1392 1.1392 0.74033 3.011-1.1653 5.4684-0.39496 0.50932-0.92821 1.2535-1.1855 1.6536-0.61735 0.96037-0.2855 0.91734 1.3307-0.17105 3.106-2.0917 5.6526-5.0187 6.0601-6.9655 0.14746-0.70457 0.0568-0.97413-0.52193-1.5529-0.50526-0.50529-0.69556-0.64396-1.6909-0.63046z" fill="#f00"/>
 <path id="icm-logo-dot-line" d="m51.935 16.23c-0.33176 5e-3 -0.7527 0.026-1.3048 0.0563-2.2629 0.12435-4.4359 0.69617-5.471 1.4397-0.4717 0.33883-0.32301 0.36042 1.3689 0.19998 1.8024-0.17092 1.9324-0.14551 2.5797 0.50178 1.1392 1.1392 0.74033 3.011-1.1653 5.4684-0.39496 0.50932-0.92821 1.2535-1.1855 1.6536-0.61735 0.96037-0.2855 0.91734 1.3307-0.17105 3.106-2.0917 5.6526-5.0187 6.0601-6.9655 0.14746-0.70457 0.0568-0.97413-0.52193-1.5529-0.50526-0.50529-0.69556-0.64396-1.6909-0.63046z" fill="none" stroke="#f00" stroke-width=".265"/>
 <g id="icm-name" stroke-width=".26458" aria-label="IGREJA CRISTÃ MARANATA">
  <path d="m22.796 78.483q0 0.6879 0.05503 1.0869t0.20637 0.61911q0.1651 0.22013 0.45401 0.28892 0.30268 0.06879 0.78421 0.08255v0.5228h-4.4576v-0.5228q0.48153-0.01376 0.77045-0.08255 0.30268-0.08255 0.46777-0.28892 0.1651-0.20637 0.22013-0.57784 0.05503-0.38522 0.05503-1.0318v-5.5857q0-0.57784-0.05503-0.9493-0.04127-0.38522-0.19261-0.60535-0.13758-0.22013-0.41274-0.30268-0.27516-0.09631-0.71542-0.12382v-0.5228h4.1824v0.5228q-0.44026 0.01376-0.71542 0.11006-0.2614 0.09631-0.41274 0.33019-0.13758 0.22013-0.19261 0.61911-0.04127 0.39898-0.04127 1.0181z" style="font-feature-settings:normal;font-variant-caps:normal;font-variant-ligatures:normal;font-variant-numeric:normal"/>
  <path d="m30.643 81.221q-1.1694 0-2.105-0.37147t-1.5959-1.0456q-0.66038-0.6879-1.0181-1.6647-0.34395-0.97682-0.34395-2.1738 0-1.252 0.38522-2.2838t1.0731-1.7748q0.70166-0.74293 1.6647-1.1419 0.97682-0.41274 2.1462-0.41274 0.82548 0 1.5547 0.23389t1.5822 0.75669l0.28892-0.853h0.48153l-0.17885 3.1643h-0.66038q0-0.67414-0.2614-1.1557-0.24764-0.49529-0.66038-0.81172t-0.9493-0.46777q-0.5228-0.15134-1.0731-0.15134-0.83924 0-1.4996 0.33019t-1.1144 0.9493-0.70166 1.5134q-0.23389 0.89427-0.23389 2.0224 0 2.215 0.92179 3.412 0.92179 1.1832 2.6691 1.1832 0.66038 0 1.1832-0.15134 0.5228-0.1651 0.88051-0.4265 0.37147-0.27516 0.55032-0.61911 0.19261-0.35771 0.19261-0.74293 0-0.79796-0.33019-1.0731-0.31643-0.28892-1.0456-0.28892v-0.5228h3.9073v0.5228q-0.33019 0-0.55032 0.05503t-0.35771 0.20637q-0.12382 0.13758-0.17885 0.37147-0.04127 0.23389-0.04127 0.59159v1.5409q-0.2614 0-0.48153 0.02752-0.20637 0.01376-0.44026 0.09631-0.23389 0.06879-0.5228 0.20637-0.27516 0.12382-0.66038 0.34395-0.48153 0.27516-1.1144 0.44026-0.61911 0.1651-1.362 0.1651z" style="font-feature-settings:normal;font-variant-caps:normal;font-variant-ligatures:normal;font-variant-numeric:normal"/>
  <path d="m45.765 73.145q0 1.1006-0.66038 1.8298t-2.105 0.97682l3.0405 3.6596q0.37147 0.45401 0.81172 0.66038 0.45401 0.19261 1.0731 0.28892v0.5228h-2.6553l-3.3707-4.32q-0.17885-0.23389-0.34395-0.37147-0.15134-0.13758-0.33019-0.20637-0.1651-0.08255-0.39898-0.09631-0.22013-0.02752-0.53656-0.02752v2.8617q0 0.50905 0.05503 0.83924 0.06879 0.31643 0.2614 0.49529 0.20637 0.17885 0.57784 0.24764 0.38522 0.05503 1.0043 0.05503v0.5228h-4.8566v-0.5228q0.48153-0.01376 0.77045-0.08255 0.30268-0.06879 0.46777-0.23389t0.22013-0.46777q0.05503-0.30268 0.05503-0.78421v-6.4112q0-0.48153-0.05503-0.77045-0.04127-0.30268-0.19261-0.46777-0.13758-0.17885-0.41274-0.23389-0.27516-0.06879-0.71542-0.09631v-0.5228h4.32q1.8986 0 2.9305 0.70166 1.0456 0.70166 1.0456 1.9536zm-5.4757 2.2288h0.97682q1.3758 0 2.0362-0.49529 0.67414-0.50905 0.67414-1.6647 0-1.1144-0.53656-1.5959-0.5228-0.48153-1.651-0.48153h-1.2657q-0.23389 0-0.23389 0.23389z" style="font-feature-settings:normal;font-variant-caps:normal;font-variant-ligatures:normal;font-variant-numeric:normal"/>
  <path d="m51.119 75.264q0.74293 0 1.2382-0.08255 0.50905-0.09631 0.79796-0.28892 0.30268-0.19261 0.4265-0.49529 0.13758-0.30268 0.13758-0.71542h0.48153v3.7559h-0.48153q0-0.41274-0.12382-0.71542-0.11006-0.30268-0.41274-0.49529-0.28892-0.20637-0.79796-0.30268-0.49529-0.11006-1.2657-0.11006v3.1093q0 0.45401 0.11006 0.75669 0.11006 0.28892 0.37147 0.48153 0.27516 0.17885 0.71542 0.2614 0.44026 0.06879 1.0869 0.06879 0.72917 0 1.2382-0.09631 0.50905-0.11006 0.853-0.35771t0.55032-0.64663q0.20637-0.41274 0.34395-1.0181h0.5228l-0.20637 2.7103h-8.5437v-0.5228q0.48153-0.01376 0.77045-0.08255 0.30268-0.06879 0.46777-0.23389t0.22013-0.46777q0.05503-0.30268 0.05503-0.78421v-6.4112q0-0.48153-0.05503-0.77045-0.04127-0.30268-0.19261-0.46777-0.13758-0.17885-0.41274-0.23389-0.27516-0.06879-0.71542-0.09631v-0.5228h7.9521l0.12382 2.4214h-0.48153q-0.08255-0.55032-0.27516-0.89427-0.17885-0.35771-0.50905-0.56408-0.31643-0.20637-0.81172-0.28892-0.49529-0.08255-1.1969-0.08255h-1.7473q-0.23389 0-0.23389 0.23389z" style="font-feature-settings:normal;font-variant-caps:normal;font-variant-ligatures:normal;font-variant-numeric:normal"/>
  <path d="m59.532 72.581q0-0.48153-0.05503-0.77045-0.04127-0.30268-0.19261-0.46777-0.13758-0.17885-0.41274-0.23389-0.27516-0.06879-0.71542-0.09631v-0.5228h4.1824v0.5228q-0.44026 0.01376-0.71542 0.08255-0.2614 0.06879-0.41274 0.24764-0.13758 0.17885-0.19261 0.49529-0.04127 0.31643-0.04127 0.83924v8.4337q0 1.7335-0.72917 2.6415t-2.1325 0.90803q-0.9493 0-1.5134-0.37147-0.57784-0.35771-0.57784-0.96306 0-0.35771 0.19261-0.55032 0.17885-0.17885 0.50905-0.17885 0.2614 0 0.4265 0.12382 0.15134 0.13758 0.35771 0.5228 0.23389 0.44026 0.39898 0.59159 0.17885 0.1651 0.45401 0.1651 0.56408 0 0.86675-0.60535t0.30268-1.7198z" style="font-feature-settings:normal;font-variant-caps:normal;font-variant-ligatures:normal;font-variant-numeric:normal"/>
  <path d="m69.545 77.245h-3.6734q-0.23389 0.56408-0.39898 1.0043-0.1651 0.4265-0.27516 0.74293-0.09631 0.31643-0.13758 0.53656t-0.04127 0.35771q0 0.38522 0.24764 0.53656 0.24764 0.13758 0.82548 0.13758v0.5228h-3.3432v-0.5228q0.31643-0.04127 0.53656-0.11006 0.23389-0.06879 0.39898-0.19261 0.17885-0.12382 0.30268-0.31643 0.13758-0.20637 0.2614-0.49529l3.5771-8.9565h0.59159l3.1231 7.7595q0.31643 0.77045 0.55032 1.2382 0.23389 0.45401 0.45401 0.6879t0.46777 0.30268q0.2614 0.06879 0.61911 0.06879v0.53656h-4.4851v-0.53656q0.72917 0 1.0043-0.13758t0.27516-0.45401q0-0.13758-0.01376-0.24764-0.01376-0.12382-0.05503-0.2614-0.02752-0.13758-0.09631-0.30268-0.05503-0.17885-0.15134-0.41274zm-3.3982-0.6879h3.1368l-1.5271-4.0586z" style="font-feature-settings:normal;font-variant-caps:normal;font-variant-ligatures:normal;font-variant-numeric:normal"/>
  <path d="m86.31 70.49h0.38522l0.12382 3.1643h-0.50905q-0.30268-1.2107-1.1694-1.8986t-2.0912-0.6879q-0.83924 0-1.4996 0.33019t-1.1144 0.9493-0.70166 1.5134q-0.23389 0.89427-0.23389 2.0224 0 2.215 0.92179 3.412 0.92179 1.1832 2.6691 1.1832 2.6553 0 3.412-2.8204h0.56408v3.4257h-0.48153l-0.31643-1.0869q-1.4446 1.2245-3.4945 1.2245-1.1694 0-2.1187-0.37147-0.93554-0.37147-1.6097-1.0456-0.66038-0.6879-1.0318-1.6647-0.35771-0.97682-0.35771-2.1738 0-1.252 0.38522-2.2838t1.0731-1.7748q0.70166-0.74293 1.6647-1.1419 0.97682-0.41274 2.1462-0.41274 0.82548 0 1.5547 0.23389t1.5822 0.75669z" style="font-feature-settings:normal;font-variant-caps:normal;font-variant-ligatures:normal;font-variant-numeric:normal"/>
  <path d="m96.928 73.145q0 1.1006-0.66038 1.8298-0.66038 0.72917-2.105 0.97682l3.0405 3.6596q0.37147 0.45401 0.81172 0.66038 0.45401 0.19261 1.0731 0.28892v0.5228h-2.6553l-3.3707-4.32q-0.17885-0.23389-0.34395-0.37147-0.15134-0.13758-0.33019-0.20637-0.1651-0.08255-0.39898-0.09631-0.22013-0.02752-0.53656-0.02752v2.8617q0 0.50905 0.05503 0.83924 0.06879 0.31643 0.2614 0.49529 0.20637 0.17885 0.57784 0.24764 0.38522 0.05503 1.0043 0.05503v0.5228h-4.8566v-0.5228q0.48153-0.01376 0.77045-0.08255 0.30268-0.06879 0.46777-0.23389t0.22013-0.46777q0.05503-0.30268 0.05503-0.78421v-6.4112q0-0.48153-0.05503-0.77045-0.04127-0.30268-0.19261-0.46777-0.13758-0.17885-0.41274-0.23389-0.27516-0.06879-0.71542-0.09631v-0.5228h4.32q1.8986 0 2.9305 0.70166 1.0456 0.70166 1.0456 1.9536zm-5.4757 2.2288h0.97682q1.3758 0 2.0362-0.49529 0.67414-0.50905 0.67414-1.6647 0-1.1144-0.53656-1.5959-0.5228-0.48153-1.651-0.48153h-1.2657q-0.23389 0-0.23389 0.23389z" style="font-feature-settings:normal;font-variant-caps:normal;font-variant-ligatures:normal;font-variant-numeric:normal"/>
  <path d="m102.28 78.483q0 0.6879 0.055 1.0869t0.20637 0.61911q0.16509 0.22013 0.45401 0.28892 0.30268 0.06879 0.78421 0.08255v0.5228h-4.4576v-0.5228q0.48153-0.01376 0.77045-0.08255 0.30268-0.08255 0.46777-0.28892 0.1651-0.20637 0.22013-0.57784 0.055-0.38522 0.055-1.0318v-5.5857q0-0.57784-0.055-0.9493-0.0413-0.38522-0.19261-0.60535-0.13758-0.22013-0.41274-0.30268-0.27516-0.09631-0.71542-0.12382v-0.5228h4.1824v0.5228q-0.44026 0.01376-0.71542 0.11006-0.2614 0.09631-0.41274 0.33019-0.13758 0.22013-0.19261 0.61911-0.0413 0.39898-0.0413 1.0181z" style="font-feature-settings:normal;font-variant-caps:normal;font-variant-ligatures:normal;font-variant-numeric:normal"/>
  <path d="m105.2 77.85h0.50904q0.0963 0.61911 0.35771 1.1144 0.27516 0.49529 0.67414 0.83924 0.41274 0.34395 0.93555 0.53656 0.53656 0.17885 1.1557 0.17885 1.0181 0 1.6097-0.48153 0.59159-0.48153 0.59159-1.307 0-0.34395-0.12382-0.63287-0.11007-0.28892-0.38523-0.55032-0.27516-0.27516-0.74293-0.53656-0.45401-0.2614-1.1557-0.56408-0.853-0.37147-1.4308-0.71542-0.57784-0.34395-0.92179-0.71542t-0.49529-0.78421q-0.13758-0.4265-0.13758-0.96306 0-0.63287 0.22013-1.1694 0.23389-0.53656 0.64663-0.92179 0.41274-0.39898 0.97682-0.60535 0.56407-0.22013 1.2382-0.22013 0.60535 0 1.1282 0.19261 0.52281 0.19261 1.0594 0.61911l0.35771-0.61911h0.31643l0.15134 2.7378h-0.50905q-0.33019-1.1282-0.96306-1.6785-0.61911-0.55032-1.4996-0.55032-0.83924 0-1.3345 0.41274-0.49528 0.41274-0.49528 1.1144 0 0.33019 0.11006 0.60535 0.11006 0.2614 0.35771 0.50905 0.24764 0.23389 0.64662 0.48153 0.39899 0.23389 0.99058 0.49529 1.0181 0.45401 1.6922 0.853 0.67415 0.38522 1.0731 0.78421 0.39898 0.38522 0.56408 0.82548 0.16509 0.4265 0.16509 0.96306 0 0.6879-0.27516 1.2657t-0.77045 0.99058q-0.49528 0.41274-1.1832 0.64663-0.6879 0.22013-1.5134 0.22013-0.78421 0-1.4171-0.22013-0.61911-0.22013-1.2657-0.74293l-0.38523 0.67414h-0.31643z" style="font-feature-settings:normal;font-variant-caps:normal;font-variant-ligatures:normal;font-variant-numeric:normal"/>
  <path d="m123.97 73.118h-0.56408q-0.0413-0.59159-0.19261-0.99058-0.15134-0.39898-0.44025-0.61911-0.27516-0.23389-0.70166-0.33019-0.4265-0.09631-1.0181-0.09631-0.50905 0-0.82548 0.02752-0.30268 0.01376-0.46778 0.06879-0.16509 0.05503-0.22012 0.13758-0.0413 0.06879-0.0413 0.19261v7.3605q0 0.44026 0.055 0.75669 0.0688 0.31643 0.24765 0.5228 0.19261 0.19261 0.53656 0.30268 0.35771 0.09631 0.93554 0.11006v0.5228h-5.2005v-0.5228q0.57784-0.01376 0.93554-0.11006 0.35771-0.11006 0.53657-0.30268 0.19261-0.20637 0.24764-0.5228 0.0688-0.31643 0.0688-0.75669v-7.3605q0-0.12382-0.055-0.19261-0.0413-0.08255-0.19261-0.13758-0.13758-0.05503-0.39899-0.06879-0.2614-0.02752-0.70165-0.02752-0.53657 0-1.0043 0.04127-0.45401 0.04127-0.79796 0.24764-0.33019 0.19261-0.53656 0.60535t-0.22013 1.1419h-0.50905v-2.6278h10.387z" style="font-feature-settings:normal;font-variant-caps:normal;font-variant-ligatures:normal;font-variant-numeric:normal"/>
  <path d="m129.92 77.245h-3.6734q-0.23389 0.56408-0.39898 1.0043-0.1651 0.4265-0.27516 0.74293-0.0963 0.31643-0.13758 0.53656-0.0413 0.22013-0.0413 0.35771 0 0.38522 0.24765 0.53656 0.24764 0.13758 0.82548 0.13758v0.5228h-3.3432v-0.5228q0.31644-0.04127 0.53657-0.11006 0.23388-0.06879 0.39898-0.19261 0.17885-0.12382 0.30267-0.31643 0.13758-0.20637 0.26141-0.49529l3.5771-8.9565h0.59159l3.1231 7.7595q0.31643 0.77045 0.55032 1.2382 0.23388 0.45401 0.45401 0.6879t0.46777 0.30268q0.2614 0.06879 0.61911 0.06879v0.53656h-4.4851v-0.53656q0.72918 0 1.0043-0.13758t0.27516-0.45401q0-0.13758-0.0138-0.24764-0.0138-0.12382-0.055-0.2614-0.0275-0.13758-0.0963-0.30268-0.055-0.17885-0.15134-0.41274zm-3.3982-0.6879h3.1368l-1.5271-4.0586zm-0.39898-7.1129q0.11006-0.70166 0.50904-1.1282 0.41274-0.44026 0.94931-0.44026 0.27516 0 0.53656 0.09631 0.27516 0.09631 0.53656 0.22013 0.27516 0.12382 0.53656 0.22013 0.2614 0.09631 0.52281 0.09631 0.2614 0 0.39898-0.12382 0.13758-0.13758 0.24764-0.45401h0.45402q-0.0688 0.70166-0.46778 1.1694-0.38522 0.45401-0.90802 0.45401-0.27516 0-0.55032-0.09631-0.27516-0.11006-0.56408-0.23389-0.27516-0.12382-0.56408-0.22013-0.27516-0.11006-0.55032-0.11006-0.2614 0-0.39898 0.12382-0.12382 0.11006-0.22013 0.4265z" style="font-feature-settings:normal;font-variant-caps:normal;font-variant-ligatures:normal;font-variant-numeric:normal"/>
  <path d="m144.78 78.621 3.5771-8.131h3.0818v0.5228q-0.44025 0.01376-0.71541 0.11006-0.2614 0.09631-0.41274 0.33019-0.13758 0.22013-0.19261 0.61911-0.0413 0.39898-0.0413 1.0181v5.3931q0 0.6879 0.055 1.0869t0.20637 0.61911q0.1651 0.22013 0.45402 0.28892 0.30267 0.06879 0.7842 0.08255v0.5228h-4.4576v-0.5228q0.48153-0.01376 0.77045-0.08255 0.30268-0.08255 0.46777-0.28892 0.1651-0.20637 0.22013-0.57784 0.055-0.38522 0.055-1.0318v-6.3837h-0.13758l-4.0173 9.0252h-0.30268l-3.9486-9.0252h-0.055v6.2874q0 0.6879 0.055 1.0869t0.20637 0.61911q0.1651 0.22013 0.45402 0.28892 0.30267 0.06879 0.7842 0.08255v0.5228h-3.8385v-0.5228q0.48153-0.01376 0.77045-0.08255 0.30268-0.08255 0.46777-0.28892 0.1651-0.20637 0.22013-0.57784 0.055-0.38522 0.055-1.0318v-5.5857q0-0.57784-0.055-0.9493-0.0413-0.38522-0.19261-0.60535-0.13758-0.22013-0.41274-0.30268-0.27516-0.09631-0.71542-0.12382v-0.5228h3.2882l3.467 8.131z" style="font-feature-settings:normal;font-variant-caps:normal;font-variant-ligatures:normal;font-variant-numeric:normal"/>
  <path d="m158.92 77.245h-3.6734q-0.23388 0.56408-0.39898 1.0043-0.1651 0.4265-0.27516 0.74293-0.0963 0.31643-0.13758 0.53656-0.0413 0.22013-0.0413 0.35771 0 0.38522 0.24764 0.53656 0.24764 0.13758 0.82548 0.13758v0.5228h-3.3432v-0.5228q0.31643-0.04127 0.53656-0.11006 0.23388-0.06879 0.39898-0.19261 0.17885-0.12382 0.30268-0.31643 0.13758-0.20637 0.2614-0.49529l3.5771-8.9565h0.59159l3.1231 7.7595q0.31643 0.77045 0.55032 1.2382 0.23388 0.45401 0.45401 0.6879t0.46777 0.30268q0.26141 0.06879 0.61911 0.06879v0.53656h-4.4851v-0.53656q0.72917 0 1.0043-0.13758t0.27516-0.45401q0-0.13758-0.0138-0.24764-0.0138-0.12382-0.055-0.2614-0.0275-0.13758-0.0963-0.30268-0.055-0.17885-0.15133-0.41274zm-3.3982-0.6879h3.1368l-1.5271-4.0586z" style="font-feature-settings:normal;font-variant-caps:normal;font-variant-ligatures:normal;font-variant-numeric:normal"/>
  <path d="m171.87 73.145q0 1.1006-0.66038 1.8298t-2.105 0.97682l3.0405 3.6596q0.37147 0.45401 0.81173 0.66038 0.45401 0.19261 1.0731 0.28892v0.5228h-2.6553l-3.3707-4.32q-0.17886-0.23389-0.34395-0.37147-0.15134-0.13758-0.3302-0.20637-0.16509-0.08255-0.39898-0.09631-0.22013-0.02752-0.53656-0.02752v2.8617q0 0.50905 0.055 0.83924 0.0688 0.31643 0.2614 0.49529 0.20637 0.17885 0.57784 0.24764 0.38522 0.05503 1.0043 0.05503v0.5228h-4.8566v-0.5228q0.48153-0.01376 0.77045-0.08255 0.30267-0.06879 0.46777-0.23389t0.22013-0.46777q0.055-0.30268 0.055-0.78421v-6.4112q0-0.48153-0.055-0.77045-0.0413-0.30268-0.19261-0.46777-0.13758-0.17885-0.41274-0.23389-0.27516-0.06879-0.71542-0.09631v-0.5228h4.32q1.8986 0 2.9305 0.70166 1.0456 0.70166 1.0456 1.9536zm-5.4757 2.2288h0.97682q1.3758 0 2.0362-0.49529 0.67414-0.50905 0.67414-1.6647 0-1.1144-0.53656-1.5959-0.5228-0.48153-1.651-0.48153h-1.2657q-0.23389 0-0.23389 0.23389z" style="font-feature-settings:normal;font-variant-caps:normal;font-variant-ligatures:normal;font-variant-numeric:normal"/>
  <path d="m180.36 77.245h-3.6734q-0.23388 0.56408-0.39898 1.0043-0.1651 0.4265-0.27516 0.74293-0.0963 0.31643-0.13758 0.53656-0.0413 0.22013-0.0413 0.35771 0 0.38522 0.24764 0.53656 0.24764 0.13758 0.82548 0.13758v0.5228h-3.3432v-0.5228q0.31643-0.04127 0.53656-0.11006 0.23388-0.06879 0.39898-0.19261 0.17885-0.12382 0.30268-0.31643 0.13758-0.20637 0.2614-0.49529l3.5771-8.9565h0.59159l3.1231 7.7595q0.31643 0.77045 0.55032 1.2382 0.23389 0.45401 0.45401 0.6879 0.22013 0.23389 0.46778 0.30268 0.2614 0.06879 0.61911 0.06879v0.53656h-4.4851v-0.53656q0.72917 0 1.0043-0.13758t0.27516-0.45401q0-0.13758-0.0138-0.24764-0.0137-0.12382-0.055-0.2614-0.0275-0.13758-0.0963-0.30268-0.055-0.17885-0.15134-0.41274zm-3.3982-0.6879h3.1368l-1.5271-4.0586z" style="font-feature-settings:normal;font-variant-caps:normal;font-variant-ligatures:normal;font-variant-numeric:normal"/>
  <path d="m193.81 81.221-6.535-8.6125h-0.055v5.8747q0 0.6879 0.0413 1.0869 0.055 0.39898 0.19261 0.61911 0.15134 0.22013 0.41274 0.28892 0.27516 0.06879 0.71542 0.08255v0.5228h-3.7009v-0.5228q0.48153-0.01376 0.77045-0.08255 0.30268-0.08255 0.46777-0.28892 0.1651-0.20637 0.22013-0.57784 0.055-0.38522 0.055-1.0318v-5.5857q0-0.57784-0.055-0.9493-0.0413-0.38522-0.19261-0.60535-0.13758-0.22013-0.41274-0.30268-0.27516-0.09631-0.71542-0.12382v-0.5228h2.7241l6.0122 8.0209h0.055v-5.4207q0-0.67414-0.055-1.0731-0.0413-0.41274-0.19262-0.63287-0.13758-0.22013-0.41274-0.28892-0.2614-0.06879-0.70165-0.08255v-0.5228h3.7009v0.5228q-0.48153 0.01376-0.78421 0.09631-0.28892 0.06879-0.45401 0.27516-0.1651 0.20637-0.22013 0.59159-0.055 0.38522-0.055 1.0181v8.2273z" style="font-feature-settings:normal;font-variant-caps:normal;font-variant-ligatures:normal;font-variant-numeric:normal"/>
  <path d="m203.23 77.245h-3.6734q-0.23388 0.56408-0.39898 1.0043-0.1651 0.4265-0.27516 0.74293-0.0963 0.31643-0.13758 0.53656-0.0413 0.22013-0.0413 0.35771 0 0.38522 0.24764 0.53656 0.24764 0.13758 0.82548 0.13758v0.5228h-3.3432v-0.5228q0.31643-0.04127 0.53656-0.11006 0.23388-0.06879 0.39898-0.19261 0.17885-0.12382 0.30268-0.31643 0.13758-0.20637 0.2614-0.49529l3.5771-8.9565h0.59159l3.1231 7.7595q0.31643 0.77045 0.55032 1.2382 0.23388 0.45401 0.45401 0.6879t0.46777 0.30268q0.26141 0.06879 0.61911 0.06879v0.53656h-4.4851v-0.53656q0.72917 0 1.0043-0.13758t0.27516-0.45401q0-0.13758-0.0138-0.24764-0.0138-0.12382-0.055-0.2614-0.0275-0.13758-0.0963-0.30268-0.055-0.17885-0.15133-0.41274zm-3.3982-0.6879h3.1368l-1.5271-4.0586z" style="font-feature-settings:normal;font-variant-caps:normal;font-variant-ligatures:normal;font-variant-numeric:normal"/>
  <path d="m216.95 73.118h-0.56408q-0.0413-0.59159-0.19261-0.99058-0.15134-0.39898-0.44026-0.61911-0.27516-0.23389-0.70166-0.33019-0.4265-0.09631-1.0181-0.09631-0.50905 0-0.82548 0.02752-0.30268 0.01376-0.46777 0.06879-0.1651 0.05503-0.22013 0.13758-0.0413 0.06879-0.0413 0.19261v7.3605q0 0.44026 0.055 0.75669 0.0688 0.31643 0.24764 0.5228 0.19261 0.19261 0.53656 0.30268 0.35771 0.09631 0.93555 0.11006v0.5228h-5.2005v-0.5228q0.57784-0.01376 0.93555-0.11006 0.35771-0.11006 0.53656-0.30268 0.19261-0.20637 0.24764-0.5228 0.0688-0.31643 0.0688-0.75669v-7.3605q0-0.12382-0.055-0.19261-0.0413-0.08255-0.19261-0.13758-0.13758-0.05503-0.39898-0.06879-0.2614-0.02752-0.70166-0.02752-0.53656 0-1.0043 0.04127-0.45402 0.04127-0.79797 0.24764-0.33019 0.19261-0.53656 0.60535t-0.22013 1.1419h-0.50905v-2.6278h10.387z" style="font-feature-settings:normal;font-variant-caps:normal;font-variant-ligatures:normal;font-variant-numeric:normal"/>
  <path d="m222.9 77.245h-3.6734q-0.23388 0.56408-0.39898 1.0043-0.16509 0.4265-0.27516 0.74293-0.0963 0.31643-0.13758 0.53656-0.0413 0.22013-0.0413 0.35771 0 0.38522 0.24764 0.53656 0.24765 0.13758 0.82548 0.13758v0.5228h-3.3432v-0.5228q0.31643-0.04127 0.53656-0.11006 0.23389-0.06879 0.39898-0.19261 0.17886-0.12382 0.30268-0.31643 0.13758-0.20637 0.2614-0.49529l3.5771-8.9565h0.59159l3.1231 7.7595q0.31643 0.77045 0.55032 1.2382 0.23389 0.45401 0.45401 0.6879 0.22013 0.23389 0.46778 0.30268 0.2614 0.06879 0.61911 0.06879v0.53656h-4.4851v-0.53656q0.72917 0 1.0043-0.13758t0.27516-0.45401q0-0.13758-0.0138-0.24764-0.0138-0.12382-0.055-0.2614-0.0275-0.13758-0.0963-0.30268-0.055-0.17885-0.15134-0.41274zm-3.3982-0.6879h3.1368l-1.5271-4.0586z" style="font-feature-settings:normal;font-variant-caps:normal;font-variant-ligatures:normal;font-variant-numeric:normal"/>
 </g>
 <g id="icm-maanaim-name" fill="#f00" stroke-width=".26458" aria-label="MAANAIM GUARAPARI">
  <path d="m71.838 94.671h-1.0232v-6.6299l-2.1393 4.5112h-0.60976l-2.1238-4.5112v6.6299h-0.95598v-7.6944h1.3952l2.0515 4.2838 1.9843-4.2838h1.4211z"/>
  <path d="m79.982 94.671h-1.0903l-0.75445-2.1445h-3.3279l-0.75445 2.1445h-1.0387l2.8008-7.6944h1.3642zm-2.16-3.023-1.3487-3.7774-1.3539 3.7774z"/>
  <path d="m87.217 94.671h-1.0903l-0.75445-2.1445h-3.3279l-0.75445 2.1445h-1.0387l2.8008-7.6944h1.3642zm-2.16-3.023-1.3487-3.7774-1.3539 3.7774z"/>
  <path d="m94.255 94.671h-1.266l-3.6482-6.8831v6.8831h-0.95598v-7.6944h1.5864l3.3279 6.2837v-6.2837h0.95598z"/>
  <path d="m102.37 94.671h-1.0903l-0.75445-2.1445h-3.3279l-0.75445 2.1445h-1.0387l2.8008-7.6944h1.3642zm-2.16-3.023-1.3487-3.7774-1.3539 3.7774z"/>
  <path d="m106.25 94.671h-3.0385v-0.78546h1.0077v-6.1235h-1.0077v-0.78546h3.0385v0.78546h-1.0077v6.1235h1.0077z"/>
  <path d="m114.85 94.671h-1.0232v-6.6299l-2.1393 4.5112h-0.60977l-2.1238-4.5112v6.6299h-0.95599v-7.6944h1.3952l2.0515 4.2838 1.9843-4.2838h1.421z"/>
  <path d="m127.07 94.103q-0.63043 0.28938-1.3797 0.50641-0.74412 0.21187-1.4417 0.21187-0.89914 0-1.6484-0.24804-0.74929-0.24804-1.2764-0.74412-0.53225-0.50124-0.82163-1.2505-0.28938-0.75445-0.28938-1.7621 0-1.8448 1.0748-2.9093 1.08-1.0697 2.961-1.0697 0.65627 0 1.3384 0.16019 0.68728 0.15502 1.4779 0.53225v1.2144h-0.093q-0.1602-0.12402-0.46508-0.32555-0.30488-0.20153-0.59942-0.33589-0.35656-0.16019-0.8113-0.26354-0.44957-0.10852-1.0232-0.10852-1.2919 0-2.0463 0.83196-0.74929 0.8268-0.74929 2.2427 0 1.4934 0.78546 2.3254 0.78546 0.8268 2.1393 0.8268 0.49608 0 0.98699-0.09818 0.49607-0.09818 0.86813-0.25321v-1.8861h-2.0618v-0.89914h3.0746z"/>
  <path d="m134.65 91.581q0 0.83713-0.18603 1.4624-0.18086 0.6201-0.59942 1.0335-0.3979 0.39273-0.93015 0.57359t-1.2402 0.18086q-0.72344 0-1.2609-0.1912t-0.90431-0.56326q-0.41857-0.42373-0.6046-1.0232-0.18086-0.59943-0.18086-1.4727v-4.6042h1.0232v4.6559q0 0.62526 0.0827 0.98699 0.0879 0.36172 0.28938 0.65627 0.22737 0.33589 0.61493 0.50641 0.39273 0.17053 0.94048 0.17053 0.55292 0 0.94049-0.16536 0.38756-0.17053 0.62009-0.51158 0.20154-0.29455 0.28421-0.67177 0.0878-0.38239 0.0878-0.94565v-4.6817h1.0232z"/>
  <path d="m142.63 94.671h-1.0903l-0.75445-2.1445h-3.3279l-0.75445 2.1445h-1.0387l2.8008-7.6944h1.3642zm-2.16-3.023-1.3487-3.7774-1.3539 3.7774z"/>
  <path d="m150.17 94.671h-1.328l-2.5734-3.0591h-1.4417v3.0591h-1.0232v-7.6944h2.1548q0.69761 0 1.1627 0.09301 0.46508 0.08785 0.83714 0.32038 0.41856 0.26354 0.6511 0.6666 0.2377 0.3979 0.2377 1.0128 0 0.83196-0.41856 1.3952-0.41857 0.55809-1.1524 0.8423zm-2.3926-5.5292q0-0.33072-0.11885-0.58393-0.11368-0.25837-0.38239-0.43407-0.2222-0.14986-0.52708-0.2067-0.30488-0.06201-0.71828-0.06201h-1.204v2.9041h1.0335q0.48574 0 0.84747-0.08268 0.36172-0.08785 0.61493-0.32038 0.23253-0.21703 0.34105-0.49608 0.11368-0.28421 0.11368-0.71828z"/>
  <path d="m157.23 94.671h-1.0903l-0.75446-2.1445h-3.3278l-0.75446 2.1445h-1.0387l2.8008-7.6944h1.3642zm-2.16-3.023-1.3487-3.7774-1.3539 3.7774z"/>
  <path d="m163.43 89.302q0 0.51158-0.18086 0.95082-0.17569 0.43407-0.49608 0.75445-0.39789 0.3979-0.94048 0.59943-0.54258 0.19636-1.3694 0.19636h-1.0232v2.868h-1.0232v-7.6944h2.0877q0.69244 0 1.173 0.11885 0.48057 0.11368 0.85263 0.36172 0.43924 0.29455 0.67694 0.73378 0.24287 0.43924 0.24287 1.111zm-1.0645 0.02584q0-0.3979-0.13952-0.69244-0.13952-0.29455-0.42373-0.48058-0.24804-0.16019-0.56843-0.22737-0.31521-0.07234-0.80096-0.07234h-1.0128v3.0747h0.86297q0.62009 0 1.0077-0.10852 0.38756-0.11368 0.63043-0.35656 0.24287-0.24804 0.34105-0.52192 0.10335-0.27388 0.10335-0.61493z"/>
  <path d="m170.6 94.671h-1.0903l-0.75445-2.1445h-3.3279l-0.75445 2.1445h-1.0387l2.8008-7.6944h1.3642zm-2.16-3.023-1.3487-3.7774-1.3539 3.7774z"/>
  <path d="m178.13 94.671h-1.328l-2.5734-3.0591h-1.4417v3.0591h-1.0232v-7.6944h2.1548q0.69761 0 1.1627 0.09301 0.46507 0.08785 0.83713 0.32038 0.41856 0.26354 0.6511 0.6666 0.2377 0.3979 0.2377 1.0128 0 0.83196-0.41856 1.3952-0.41857 0.55809-1.1524 0.8423zm-2.3925-5.5292q0-0.33072-0.11886-0.58393-0.11368-0.25837-0.38239-0.43407-0.2222-0.14986-0.52708-0.2067-0.30488-0.06201-0.71828-0.06201h-1.204v2.9041h1.0335q0.48574 0 0.84747-0.08268 0.36172-0.08785 0.61493-0.32038 0.23253-0.21703 0.34105-0.49608 0.11369-0.28421 0.11369-0.71828z"/>
  <path d="m181.84 94.671h-3.0385v-0.78546h1.0077v-6.1235h-1.0077v-0.78546h3.0385v0.78546h-1.0077v6.1235h1.0077z"/>
 </g>
</svg>
