<?xml version="1.0" encoding="UTF-8" standalone="no"?>
<!-- Created with Inkscape (http://www.inkscape.org/) -->

<svg
   xmlns:dc="http://purl.org/dc/elements/1.1/"
   xmlns:cc="http://creativecommons.org/ns#"
   xmlns:rdf="http://www.w3.org/1999/02/22-rdf-syntax-ns#"
   xmlns:svg="http://www.w3.org/2000/svg"
   xmlns="http://www.w3.org/2000/svg"
   xmlns:sodipodi="http://sodipodi.sourceforge.net/DTD/sodipodi-0.dtd"
   xmlns:inkscape="http://www.inkscape.org/namespaces/inkscape"
   width="445.35825mm"
   height="244.35873mm"
   viewBox="0 0 445.35825 244.35873"
   version="1.1"
   id="svg4762"
   inkscape:export-filename="C:\Users\Gustavo Freitas\Desktop\projeto-aprendiz-jr.png"
   inkscape:export-xdpi="114.07"
   inkscape:export-ydpi="114.07"
   inkscape:version="0.92.1 r15371"
   sodipodi:docname="projeto-aprendiz-logo.svg">
  <defs
     id="defs4756" />
  <sodipodi:namedview
     id="base"
     pagecolor="#ffffff"
     bordercolor="#666666"
     borderopacity="1.0"
     inkscape:pageopacity="0.0"
     inkscape:pageshadow="2"
     inkscape:zoom="0.35"
     inkscape:cx="807.33629"
     inkscape:cy="690.22908"
     inkscape:document-units="mm"
     inkscape:current-layer="layer1"
     showgrid="false"
     fit-margin-top="0"
     fit-margin-left="0"
     fit-margin-right="0"
     fit-margin-bottom="0"
     inkscape:window-width="1920"
     inkscape:window-height="1017"
     inkscape:window-x="-8"
     inkscape:window-y="-8"
     inkscape:window-maximized="1" />
  <metadata
     id="metadata4759">
    <rdf:RDF>
      <cc:Work
         rdf:about="">
        <dc:format>image/svg+xml</dc:format>
        <dc:type
           rdf:resource="http://purl.org/dc/dcmitype/StillImage" />
        <dc:title></dc:title>
      </cc:Work>
    </rdf:RDF>
  </metadata>
  <g
     inkscape:label="Layer 1"
     inkscape:groupmode="layer"
     id="layer1"
     transform="translate(233.64046,-117.3358)">
    <g
       id="g5341"
       transform="matrix(5.4481305,0,0,5.4481305,1039.2631,-521.92499)">
      <path
         inkscape:connector-curvature="0"
         d="m -157.01604,117.44466 -0.72275,0.72267 c -0.39752,0.39746 -0.79676,0.79249 -0.88726,0.87782 -0.1446,0.13636 -0.80646,0.75172 -0.99275,0.92298 -0.27313,0.25108 -0.87548,0.77688 -1.21529,1.06088 -0.13815,0.11547 -0.25425,0.21317 -0.25799,0.21705 -0.0197,0.0205 -0.34417,0.28418 -0.62463,0.50761 -0.1755,0.13982 -0.32825,0.26152 -0.33946,0.2705 -0.33242,0.2668 -1.17262,0.88436 -1.65649,1.21752 -0.12322,0.0848 -0.27903,0.19214 -0.34625,0.23843 -0.11451,0.0789 -0.32578,0.2162 -0.72639,0.47205 -0.41604,0.26571 -1.22162,0.73958 -1.60902,0.94652 -0.61608,0.32909 -1.0013,0.51849 -1.71406,0.84251 -0.0925,0.042 -0.0902,0.0444 -0.0853,-0.0878 l 0.003,-0.08 -0.042,0.0298 c -0.023,0.0164 -0.10469,0.0592 -0.18133,0.0951 -0.3903,0.18255 -1.60014,0.59341 -3.32373,1.12875 -0.72575,0.22542 -0.67378,0.21237 -1.01803,0.25616 -0.62002,0.0789 -0.96937,0.10036 -1.62939,0.10045 -0.63729,4e-5 -0.94016,-0.0177 -1.48687,-0.0871 -0.94733,-0.12032 -1.86658,-0.35932 -2.76305,-0.71844 -0.26257,-0.10517 -0.30212,-0.12531 -0.33888,-0.17246 -0.0193,-0.0248 -0.0319,-0.032 -0.0366,-0.0209 -0.004,0.009 -0.0168,0.017 -0.0288,0.017 -0.012,0 -0.27885,-0.12781 -0.59296,-0.28403 -0.50219,-0.24973 -0.91267,-0.44918 -0.92447,-0.44918 -0.002,0 -0.064,-0.0282 -0.13757,-0.0626 -0.33882,-0.15852 -1.13297,-0.483 -1.50683,-0.61567 l -0.12398,-0.044 -0.006,-0.0651 c -0.02,-0.2082 -0.25394,-0.43569 -0.64196,-0.62438 -0.66251,-0.32218 -1.32283,-0.32675 -1.51114,-0.0105 -0.0122,0.0205 -0.0317,0.0373 -0.0434,0.0373 -0.0116,0 -0.15542,-0.03 -0.31956,-0.0666 -1.07198,-0.23931 -2.11773,-0.38637 -3.28572,-0.46212 -0.30069,-0.0195 -1.01054,-0.0426 -1.40134,-0.0457 l -0.34219,-0.002 0.32322,-0.75358 c 0.17779,-0.41447 0.31788,-0.75566 0.31128,-0.75823 -0.0228,-0.009 -0.27604,0.0401 -0.29088,0.0563 -0.0129,0.0141 -0.0516,0.0972 -0.2192,0.47115 -0.0184,0.0411 -0.0531,0.11745 -0.0772,0.16972 -0.0241,0.0523 -0.11918,0.26078 -0.21132,0.46343 l -0.16758,0.36846 -0.23868,0.009 c -0.67097,0.0247 -1.57228,0.10113 -2.26864,0.19226 -0.0859,0.0112 -0.19974,0.026 -0.25301,0.0329 -0.0978,0.0126 -0.3098,0.044 -0.45988,0.068 -0.0448,0.007 -0.17614,0.0282 -0.29188,0.0467 -0.29753,0.0476 -0.28777,0.0473 -0.29378,0.01 -0.009,-0.0551 -0.0305,-0.0812 -0.081,-0.0979 -0.10919,-0.036 -0.31061,0.0117 -0.53405,0.12639 -0.11037,0.0567 -0.22262,0.13025 -0.24538,0.16085 -0.009,0.0121 -0.0788,0.0299 -0.29187,0.0747 -0.20313,0.0427 -0.22873,0.0438 -0.33947,0.0143 -0.18086,-0.0483 -0.53769,-0.0215 -0.87018,0.0656 -0.15785,0.0413 -0.55125,0.17259 -0.64991,0.21689 -0.0377,0.0169 -0.13581,0.0604 -0.21796,0.0965 -0.0822,0.0361 -0.24529,0.113 -0.36249,0.17089 -0.17618,0.087 -0.27146,0.12305 -0.54987,0.20802 -0.44998,0.13733 -0.89436,0.28067 -1.35518,0.43716 -0.20911,0.071 -0.40004,0.13494 -0.4243,0.14205 -0.0242,0.007 -0.0442,0.0185 -0.0442,0.0254 0,0.015 0.0547,0.16276 0.0603,0.16276 0.002,0 0.29752,-0.0977 0.65644,-0.21721 0.35894,-0.11949 0.66037,-0.2173 0.66981,-0.2173 0.01,0 -0.068,0.0579 -0.17205,0.12854 -0.48969,0.33245 -0.95461,0.75947 -1.04208,0.9572 -0.0149,0.0337 -0.0276,0.0912 -0.0284,0.12787 l -0.001,0.0667 -0.45481,0.1549 c -0.25019,0.0852 -0.48544,0.16481 -0.52278,0.17685 -0.0373,0.0121 -0.0726,0.026 -0.0785,0.0309 -0.008,0.007 0.0325,0.1421 0.0515,0.17313 0.001,0.002 0.14517,-0.0461 0.32006,-0.10658 0.61484,-0.21249 1.00863,-0.33856 1.14277,-0.36589 0.15315,-0.0312 0.2963,-0.0769 0.53305,-0.16998 0.0896,-0.0353 0.19041,-0.0717 0.22401,-0.0811 0.0336,-0.009 0.13141,-0.0384 0.21731,-0.0645 0.0859,-0.0262 0.20495,-0.0613 0.26468,-0.0781 0.13504,-0.0378 0.1998,-0.0562 0.34626,-0.0984 0.2746,-0.0792 0.64105,-0.17428 0.64742,-0.16791 0.0197,0.0197 -0.58975,0.56395 -0.97544,0.87118 -0.0988,0.0787 -0.57958,0.43523 -0.61352,0.45498 -0.0236,0.0137 -0.0979,0.0411 -0.16509,0.0609 -0.32054,0.0945 -0.41049,0.12206 -0.83505,0.25558 -0.49715,0.15635 -1.15301,0.37346 -1.58863,0.52585 -0.1531,0.0536 -0.32575,0.11324 -0.38363,0.13268 -0.11626,0.039 -0.11185,0.0294 -0.0679,0.14934 0.0194,0.0529 0.0249,0.0578 0.0566,0.0501 0.0345,-0.008 0.24152,-0.0799 0.45606,-0.15763 0.13337,-0.0483 1.52004,-0.50525 1.7694,-0.58311 0.0994,-0.031 0.18416,-0.053 0.18829,-0.0489 0.007,0.007 -0.20109,0.14678 -0.56595,0.37931 -0.0933,0.0595 -0.20026,0.12786 -0.23761,0.15191 -0.0373,0.024 -0.2543,0.15845 -0.48208,0.2986 -0.84378,0.51917 -0.98597,0.61102 -1.12362,0.72615 -0.0467,0.0391 -0.0886,0.0858 -0.0932,0.10376 -0.005,0.018 -0.01,0.0327 -0.0109,0.0327 -0.003,0 -0.47032,0.16177 -0.71057,0.24606 -0.12505,0.0439 -0.16632,0.0641 -0.16632,0.0815 0,0.0369 0.0518,0.14768 0.069,0.14768 0.009,0 0.1172,-0.0362 0.24141,-0.0806 0.67809,-0.24184 1.5195,-0.52516 2.09976,-0.707 0.0672,-0.0211 0.22907,-0.072 0.35976,-0.11329 0.46762,-0.14764 1.20928,-0.36607 1.6905,-0.49791 0.0821,-0.0225 0.17068,-0.047 0.19682,-0.0544 0.26739,-0.0756 1.08421,-0.28441 1.48007,-0.3784 0.31269,-0.0742 0.70131,-0.16106 1.16091,-0.2594 0.39525,-0.0846 1.13153,-0.2204 1.14607,-0.21142 0.006,0.004 0.0349,-0.001 0.0639,-0.0118 0.029,-0.0103 0.0925,-0.0253 0.14105,-0.0334 1.3538,-0.22481 2.42067,-0.34253 3.72723,-0.41139 0.40914,-0.0216 1.79665,-0.0212 2.19967,5.8e-4 0.90046,0.0487 1.49436,0.10999 2.3331,0.24075 0.1385,0.0216 0.1466,0.0246 0.13899,0.0515 -0.009,0.0324 -0.0546,0.21503 -0.0763,0.30664 l -0.0144,0.0607 0.0856,0.0778 c 0.0471,0.0428 0.0913,0.0763 0.0981,0.0743 0.007,-0.002 0.029,-0.0613 0.0492,-0.13178 0.0887,-0.30984 0.10908,-0.36581 0.13318,-0.36581 0.0129,0 0.1179,0.0186 0.23338,0.0414 0.86755,0.17157 1.77564,0.4185 2.54544,0.69209 0.29292,0.10412 0.29461,0.10474 0.56843,0.21192 l 0.2018,0.079 0.0477,0.075 c 0.26382,0.41543 0.99744,0.94645 1.5583,1.12784 0.15867,0.0513 0.34774,0.0633 0.42092,0.0267 0.0345,-0.0172 0.14242,-0.15572 0.15812,-0.20279 0.004,-0.0121 0.18923,0.061 0.42573,0.16807 0.3078,0.13933 1.08405,0.43109 1.59858,0.60083 0.22199,0.0732 0.40377,0.13706 0.40393,0.1418 1.6e-4,0.005 -0.0347,0.013 -0.0775,0.0183 -0.1639,0.0205 -0.30987,0.10628 -0.35197,0.20685 -0.027,0.0645 -0.0228,0.17115 0.009,0.23976 0.0577,0.12271 0.20476,0.26609 0.41356,0.40335 0.0672,0.0442 0.11666,0.0803 0.10998,0.0803 -0.0443,0 -0.89546,-0.3133 -1.36139,-0.50115 -0.65769,-0.26511 -0.9752,-0.40292 -1.60694,-0.69748 -0.0991,-0.0462 -0.28498,-0.13582 -0.80116,-0.38637 -0.21809,-0.10586 -0.34806,-0.165 -0.81465,-0.37036 -0.38167,-0.16799 -1.20553,-0.46324 -1.73812,-0.62289 -0.84518,-0.2534 -1.98124,-0.49425 -2.82432,-0.59885 -0.056,-0.007 -0.15068,-0.0191 -0.21043,-0.027 -0.19955,-0.0263 -0.70009,-0.0746 -0.98446,-0.095 -0.62057,-0.0445 -0.7369,-0.0479 -1.64976,-0.0479 -1.02291,0 -1.19338,0.006 -2.09094,0.0752 -0.76173,0.0586 -1.96825,0.20922 -2.70886,0.33813 -0.0411,0.007 -0.16321,0.0283 -0.27149,0.0469 -0.61769,0.10637 -1.41021,0.26794 -2.17931,0.4443 -0.30675,0.0703 -1.26127,0.30626 -1.41889,0.35072 -0.0486,0.0137 -0.18599,0.0507 -0.30549,0.0823 -0.11948,0.0316 -0.257,0.0687 -0.30556,0.0825 -0.54393,0.15399 -0.98579,0.28087 -1.11342,0.31981 -0.0859,0.0262 -0.20802,0.0629 -0.27149,0.0815 -0.33652,0.0985 -1.24549,0.38852 -1.86706,0.59571 -0.50096,0.16699 -0.67386,0.2262 -1.20169,0.4118 -0.65535,0.23043 -0.71289,0.25092 -0.71894,0.25601 -0.0106,0.009 0.0447,0.15632 0.0611,0.1626 0.0162,0.006 0.0536,-0.006 0.51523,-0.17163 0.14936,-0.0535 0.30518,-0.10852 0.34625,-0.12233 0.0411,-0.0138 0.21652,-0.0741 0.38985,-0.13401 0.17333,-0.0599 0.54909,-0.18617 0.83504,-0.28052 0.28596,-0.0944 0.53518,-0.17681 0.55385,-0.18324 0.0187,-0.006 0.14089,-0.0452 0.27157,-0.0862 0.1307,-0.041 0.33541,-0.10509 0.4549,-0.14255 0.30387,-0.0953 0.61715,-0.18925 0.9795,-0.29404 0.17071,-0.0494 0.32873,-0.0955 0.35114,-0.1026 0.0663,-0.0209 0.50494,-0.14361 0.65172,-0.18233 0.0747,-0.0197 0.20303,-0.0538 0.28517,-0.0758 0.20281,-0.0544 1.00424,-0.25722 1.22208,-0.3092 1.11669,-0.2665 1.99616,-0.44109 3.19077,-0.63333 0.16018,-0.0258 0.6475,-0.0945 0.86223,-0.12166 0.0933,-0.0118 0.21558,-0.0274 0.27157,-0.0346 0.29724,-0.0384 1.06385,-0.11066 1.43929,-0.13558 1.17211,-0.0778 2.16824,-0.0839 3.17041,-0.0196 2.31643,0.14878 4.34466,0.63211 6.27988,1.49647 0.19214,0.0858 0.38023,0.17532 0.87583,0.41704 0.26904,0.13121 0.78636,0.37365 0.85543,0.40086 0.0149,0.006 0.0669,0.029 0.11544,0.0513 0.0486,0.0223 0.13402,0.0603 0.19003,0.0844 0.056,0.0241 0.12634,0.0546 0.15622,0.0678 0.82884,0.36532 2.10521,0.82854 3.028,1.09893 0.10454,0.0306 0.22983,0.0676 0.27838,0.0821 0.10599,0.0317 0.31703,0.0879 0.63813,0.16972 2.54768,0.64938 5.16817,0.85235 7.61578,0.5899 0.0719,-0.008 0.18565,-0.0198 0.25285,-0.0269 0.3549,-0.0375 1.05001,-0.14152 1.45288,-0.21755 0.32341,-0.061 1.04494,-0.21397 1.12536,-0.2385 0.0237,-0.007 0.0248,-0.002 0.0157,0.0718 -0.005,0.0437 -0.0116,0.0815 -0.014,0.084 -0.005,0.006 -0.0585,0.0121 -0.18332,0.0221 -0.45821,0.0368 -1.20582,0.40455 -1.75128,0.86157 -0.21503,0.18014 -0.42257,0.40654 -0.53571,0.58443 -0.26134,0.41092 -0.19188,0.75356 0.16949,0.83596 h 8e-5 c 0.10584,0.0241 0.35324,0.0179 0.49485,-0.0124 0.71308,-0.15252 1.45954,-0.63874 1.8098,-1.17882 0.1156,-0.17827 0.1953,-0.44236 0.31469,-1.04215 l 0.0634,-0.31866 0.0806,-0.0229 c 0.0443,-0.0126 0.18439,-0.0515 0.31136,-0.0865 0.12696,-0.035 0.33169,-0.0941 0.4549,-0.13153 0.12322,-0.0374 0.25761,-0.0778 0.29868,-0.0898 0.0411,-0.012 0.25803,-0.0838 0.48208,-0.1597 0.7276,-0.24638 1.1683,-0.41406 1.81943,-0.69234 0.29339,-0.12541 0.39346,-0.16969 0.71977,-0.31833 0.42122,-0.19187 1.2241,-0.59321 1.61575,-0.8077 0.31833,-0.17429 0.50974,-0.28233 0.5149,-0.29072 0.007,-0.012 -0.025,-0.0788 -0.06,-0.1239 -0.0258,-0.0333 -0.0271,-0.0336 -0.0678,-0.0107 -0.0228,0.0128 -0.0887,0.0488 -0.14644,0.0799 -0.0577,0.0311 -0.16292,0.0888 -0.23387,0.12821 -0.21272,0.11813 -0.47467,0.2547 -0.87052,0.4539 -0.33088,0.1665 -0.51047,0.25317 -0.89472,0.43153 -0.36478,0.16934 -0.99315,0.43421 -1.50037,0.63242 -0.37788,0.14767 -1.0574,0.38335 -1.50037,0.52038 -0.28678,0.0887 -0.94597,0.2763 -0.9708,0.2763 -0.0133,0 -0.007,-0.0655 0.028,-0.26578 0.0346,-0.20121 0.0439,-0.25804 0.0738,-0.45391 0.009,-0.056 0.0207,-0.13536 0.0271,-0.17644 0.007,-0.0411 0.0186,-0.12051 0.0271,-0.17652 0.009,-0.056 0.0207,-0.13545 0.0271,-0.17652 0.0224,-0.14488 0.10874,-0.747 0.10874,-0.75823 0,-0.006 0.0993,-0.0497 0.2206,-0.0966 0.35786,-0.13833 0.96885,-0.39401 1.34772,-0.56397 0.35102,-0.15747 1.21825,-0.58206 1.56823,-0.76783 0.10083,-0.0535 0.20161,-0.10685 0.22401,-0.11851 0.0224,-0.0117 0.13544,-0.0743 0.25119,-0.13915 0.11576,-0.0649 0.24717,-0.13809 0.29198,-0.16276 0.39085,-0.21525 1.08902,-0.63713 1.63612,-0.98862 0.17676,-0.11356 0.72812,-0.48232 0.74504,-0.49833 0.0156,-0.0147 0.0116,-0.0275 -0.024,-0.0793 -0.0234,-0.034 -0.0491,-0.0658 -0.0572,-0.0708 -0.008,-0.005 -0.092,0.0427 -0.18654,0.10609 -1.63821,1.09794 -3.10097,1.91581 -4.67295,2.61311 -0.17549,0.0778 -0.33744,0.14969 -0.35984,0.1597 -0.0676,0.0302 -0.42413,0.1762 -0.59065,0.24191 -0.0859,0.0339 -0.19778,0.0781 -0.24871,0.0982 -0.0509,0.0201 -0.0962,0.033 -0.10045,0.0288 -0.004,-0.004 -0.001,-0.0644 0.007,-0.13368 0.014,-0.11916 0.0962,-0.78203 0.12407,-1.00171 0.007,-0.056 0.0261,-0.21488 0.0422,-0.35304 0.0162,-0.13816 0.0363,-0.30317 0.0448,-0.36665 l 0.0155,-0.11536 0.35985,-0.18332 c 0.31337,-0.15965 0.50986,-0.26314 0.91651,-0.48258 0.37385,-0.20173 1.09224,-0.62504 1.59551,-0.94022 0.30064,-0.18827 1.22929,-0.80473 1.44608,-0.95994 0.16939,-0.12126 0.35664,-0.25429 0.39224,-0.27863 0.25465,-0.17402 1.06956,-0.79335 1.62779,-1.23725 l 0.0277,-0.022 -0.028,-0.0391 c -0.0154,-0.0215 -0.0432,-0.0531 -0.0618,-0.0704 l -0.0337,-0.0315 -0.33083,0.26048 c -1.00307,0.78976 -2.0733,1.54709 -3.1053,2.19759 -0.5275,0.33244 -1.21627,0.73887 -1.62491,0.9587 -0.0522,0.0281 -0.12569,0.0682 -0.16309,0.0892 -0.26716,0.14956 -0.9712,0.50554 -0.98082,0.49592 -0.004,-0.004 0.0151,-0.18942 0.0426,-0.41173 0.0275,-0.22231 0.0556,-0.46831 0.0625,-0.54673 0.007,-0.0784 0.016,-0.16091 0.0202,-0.18332 0.0104,-0.0545 -0.009,-0.08 -0.0635,-0.0828 -0.0247,-0.001 -0.0701,-0.007 -0.10079,-0.0121 l -0.0558,-0.01 -0.0298,0.19492 c -0.0164,0.10721 -0.0618,0.42099 -0.10086,0.69732 l -0.0711,0.50238 -0.10807,0.0545 c -0.17509,0.0884 -0.51106,0.23838 -0.91593,0.40875 -0.16804,0.0707 -0.33304,0.14029 -0.36665,0.15464 -0.0783,0.0334 -0.5091,0.20024 -0.68571,0.26553 -0.44091,0.16298 -1.06763,0.36719 -1.5568,0.50728 -0.26564,0.0761 -0.8638,0.23162 -0.89132,0.2318 -0.0123,8e-5 -0.0154,-0.0133 -0.0104,-0.0441 0.004,-0.0243 0.0196,-0.13578 0.0348,-0.24779 0.0152,-0.11202 0.0427,-0.29531 0.061,-0.40733 0.0321,-0.19651 0.0897,-0.57071 0.10799,-0.70154 0.005,-0.0349 0.0161,-0.0691 0.0251,-0.0761 0.009,-0.007 0.0988,-0.0408 0.19965,-0.0751 1.33879,-0.45554 2.74366,-1.0995 4.16168,-1.90763 0.17443,-0.0994 0.69694,-0.40883 0.80786,-0.47836 0.056,-0.0351 0.17517,-0.10954 0.26479,-0.16543 0.44721,-0.27889 0.86683,-0.55686 1.37141,-0.90848 0.69137,-0.48177 1.2803,-0.92044 1.94677,-1.45023 0.67675,-0.53793 1.6791,-1.38787 2.1878,-1.8552 0.24266,-0.22292 0.29234,-0.27056 0.2957,-0.28368 0.002,-0.008 -0.0238,-0.042 -0.0576,-0.0752 l -0.0615,-0.0603 -0.0574,0.0537 c -0.0316,0.0295 -0.0606,0.0569 -0.0645,0.0607 -0.004,0.004 -0.10188,0.092 -0.21763,0.19591 -0.11575,0.10393 -0.25932,0.23301 -0.31906,0.28683 -0.0597,0.0538 -0.1401,0.12457 -0.1786,0.15713 -0.0385,0.0326 -0.19432,0.16638 -0.34624,0.29744 -1.08087,0.93228 -2.18026,1.78736 -3.29005,2.55875 -0.26134,0.18165 -0.81129,0.54916 -1.00884,0.67419 -0.3215,0.20347 -0.60175,0.37866 -0.69582,0.43509 -0.3949,0.23691 -0.7033,0.41524 -1.00477,0.58095 -0.0859,0.0472 -0.20257,0.11205 -0.25932,0.14412 -0.23782,0.13441 -1.18764,0.60688 -1.53982,0.76593 -0.68029,0.30721 -1.3374,0.57027 -2.00546,0.80289 -0.05,0.0174 -0.0946,0.0279 -0.0992,0.0233 -0.005,-0.005 0.01,-0.1573 0.032,-0.33921 0.0437,-0.35805 0.0548,-0.46453 0.10442,-1.00693 l 0.009,-0.0924 0.0701,-0.0323 c 0.15319,-0.0706 0.40453,-0.18348 0.40857,-0.18348 0.0189,0 0.81394,-0.39006 1.09412,-0.53679 2.00593,-1.0505 4.02166,-2.44263 6.10346,-4.21492 0.18515,-0.15763 0.72347,-0.62604 0.78872,-0.68628 0.008,-0.008 0.0722,-0.0656 0.14237,-0.12903 0.45986,-0.41588 0.88882,-0.81572 1.29567,-1.2075 0.42031,-0.40473 1.43041,-1.43 1.42437,-1.44576 -0.003,-0.009 -0.0331,-0.0391 -0.0657,-0.0664 z m -32.89888,6.26016 c 0.0227,-1.3e-4 0.0534,3.4e-4 0.0865,0.001 l 0.1205,0.004 -0.12895,0.0462 c -0.0709,0.0254 -0.13708,0.0491 -0.14694,0.0527 -0.0137,0.005 -0.0129,-0.006 0.004,-0.0455 0.012,-0.0286 0.0238,-0.0541 0.0265,-0.0567 10e-4,-10e-4 0.016,-0.002 0.0387,-0.002 z m 1.07132,0.006 c 0.13663,0.001 0.66832,0.0272 0.92803,0.0461 1.06136,0.0772 2.05903,0.22386 3.09327,0.45497 0.11061,0.0247 0.2036,0.0475 0.20669,0.0506 0.003,0.003 -0.0363,0.10305 -0.0875,0.2221 -0.0512,0.11906 -0.12568,0.30357 -0.16558,0.40998 -0.0811,0.21633 -0.066,0.2039 -0.20902,0.17139 -0.30078,-0.0684 -1.13899,-0.20646 -1.55474,-0.25608 -0.35205,-0.042 -0.48091,-0.0555 -0.76717,-0.0805 -0.59338,-0.0519 -1.00009,-0.0721 -1.69722,-0.0841 -0.28379,-0.005 -0.51816,-0.0108 -0.52079,-0.013 -0.003,-0.002 0.0443,-0.0287 0.10418,-0.0589 0.14777,-0.0743 0.33292,-0.1835 0.42342,-0.24962 0.2418,-0.17672 0.3399,-0.4006 0.24099,-0.55005 -0.0203,-0.0307 -0.0324,-0.0585 -0.0269,-0.0618 0.001,-8.7e-4 0.0129,-0.001 0.0324,-9.5e-4 z m -1.45322,0.002 -0.0198,0.0458 c -0.0191,0.0439 -0.32742,0.72605 -0.38646,0.85477 l -0.0285,0.0622 -0.25533,0.0166 c -0.47509,0.0309 -0.98914,0.0776 -1.44933,0.13168 -0.10906,0.0128 -0.20132,0.0204 -0.20496,0.0167 -0.003,-0.004 0.067,-0.16422 0.15688,-0.35686 0.0899,-0.19264 0.16102,-0.35272 0.15805,-0.3557 -0.007,-0.007 -0.23525,0.0435 -0.28443,0.0622 -0.0281,0.0107 -0.0684,0.0802 -0.20794,0.35793 l -0.17303,0.34476 -0.12333,0.0167 c -0.0678,0.009 -0.19655,0.0284 -0.28616,0.0425 -0.0896,0.0141 -0.24543,0.0386 -0.34625,0.0544 -0.16276,0.0254 -0.3145,0.0512 -0.55675,0.0944 -0.0411,0.007 -0.13813,0.0256 -0.21571,0.0407 -0.0776,0.0151 -0.14657,0.0273 -0.15324,0.0273 -0.007,0 0.012,-0.0321 0.0417,-0.0713 0.0623,-0.0825 0.0829,-0.1301 0.0829,-0.19178 0,-0.1242 -0.14202,-0.14818 -0.39847,-0.0673 -0.10611,0.0335 -0.30565,0.12502 -0.34832,0.15987 -0.0112,0.009 -0.044,0.0308 -0.0728,0.0481 l -0.0525,0.0315 0.0543,-0.0801 c 0.0724,-0.10679 0.1449,-0.25381 0.17312,-0.3509 0.0223,-0.0766 0.022,-0.17548 -8e-4,-0.26702 -0.01,-0.0404 -10e-4,-0.0458 0.0937,-0.0601 0.0601,-0.009 0.0628,-0.008 0.0628,0.0237 0,0.0182 0.0158,0.048 0.0352,0.0661 0.0312,0.0292 0.0469,0.0328 0.13915,0.0317 0.17416,-0.002 0.45728,-0.10922 0.62836,-0.2381 0.0402,-0.0303 0.0875,-0.0608 0.10516,-0.0677 0.0265,-0.0104 0.49748,-0.0914 0.85734,-0.14736 0.79445,-0.1236 1.91533,-0.23221 2.74702,-0.26618 z m 0.64345,0.21597 c 0.0862,10e-4 0.14541,0.0301 0.15332,0.083 0.0152,0.1013 -0.26491,0.37588 -0.59629,0.58469 -0.0853,0.0537 -0.0949,0.0566 -0.19491,0.0566 -0.0789,0 -0.10351,-0.004 -0.0982,-0.017 0.0472,-0.11344 0.19775,-0.42265 0.22508,-0.4622 0.0503,-0.0728 0.21518,-0.1801 0.3319,-0.21605 0.0659,-0.0203 0.12737,-0.0297 0.1791,-0.0291 z m 5.2397,0.68081 c 0.008,-0.002 0.0225,0.007 0.0536,0.0286 0.2456,0.16893 0.64505,0.33374 0.9592,0.39574 0.4475,0.0883 0.77561,0.0658 0.94683,-0.0649 0.0598,-0.0456 0.0654,-0.0472 0.11139,-0.0314 0.0732,0.0251 0.2959,0.10725 0.38786,0.14296 0.0448,0.0174 0.13947,0.0542 0.21042,0.0817 0.52994,0.20574 1.14441,0.4833 1.92143,0.86795 0.33607,0.16638 0.64293,0.31656 0.68199,0.33382 0.0648,0.0286 0.0703,0.0344 0.0622,0.0665 -0.005,0.0193 -0.0521,0.19046 -0.10501,0.38031 -0.0529,0.18985 -0.10225,0.34685 -0.10973,0.34883 -0.0162,0.004 -0.0644,-0.0183 -0.48506,-0.22757 -0.73226,-0.36416 -1.24766,-0.59914 -1.78254,-0.81276 -0.9187,-0.36695 -1.73267,-0.63007 -2.67149,-0.86348 -0.22485,-0.0559 -0.37683,-0.10009 -0.37683,-0.10956 -2e-5,-0.009 0.0403,-0.12482 0.0895,-0.25799 0.0492,-0.13316 0.0927,-0.25267 0.0966,-0.26553 0.002,-0.008 0.005,-0.0123 0.01,-0.0132 z m -11.94874,0.007 c 0.0187,-7.4e-4 0.0237,0.009 0.035,0.0435 0.0349,0.10565 -0.0473,0.33263 -0.20585,0.56837 -0.0871,0.12957 -0.27139,0.36316 -0.32239,0.40874 -0.0188,0.0168 -0.16383,0.0624 -0.39896,0.12564 -0.20319,0.0546 -0.41223,0.11114 -0.46451,0.12564 -0.37072,0.10281 -0.37497,0.10328 -0.2817,0.0338 0.0712,-0.0531 0.22828,-0.21825 0.27615,-0.29048 0.022,-0.0332 0.0471,-0.0839 0.0557,-0.11255 0.0137,-0.0457 0.0122,-0.0565 -0.0119,-0.0888 -0.0177,-0.0238 -0.0475,-0.0412 -0.0842,-0.0491 -0.10921,-0.0235 -0.39901,0.0538 -0.79593,0.21216 -0.11203,0.0447 -0.23239,0.0927 -0.26752,0.10658 -0.11142,0.0441 -0.0689,-0.004 0.14925,-0.1675 0.17832,-0.13396 0.61019,-0.39304 0.81757,-0.49045 0.0879,-0.0413 0.22436,-0.0837 0.72649,-0.22542 0.12515,-0.0353 0.69408,-0.18443 0.74886,-0.19625 0.01,-0.002 0.0178,-0.004 0.024,-0.004 z m 6.30137,0.2202 0.77398,0.001 c 0.42901,6e-4 0.89199,0.008 1.03875,0.0173 0.84218,0.0516 1.31603,0.0976 1.98509,0.19251 0.30495,0.0433 0.93995,0.15342 1.21595,0.21092 0.0168,0.004 0.0306,0.013 0.0306,0.0212 0,0.008 -0.059,0.19594 -0.13111,0.41728 -0.0721,0.22133 -0.13469,0.40601 -0.13914,0.41047 -0.005,0.004 -0.0322,0.003 -0.0617,-0.004 -0.36829,-0.0815 -1.23739,-0.2004 -1.9086,-0.26114 -0.75993,-0.0688 -1.0786,-0.0818 -2.00947,-0.0821 -0.97487,-3.4e-4 -1.43505,0.0179 -2.26752,0.09 -0.10828,0.009 -0.22721,0.0173 -0.26419,0.0176 -0.0654,5.1e-4 -0.0675,-7.4e-4 -0.0765,-0.0445 -0.0229,-0.11083 -0.13028,-0.16542 -0.32529,-0.16542 -0.20725,0 -0.44462,0.0632 -0.77678,0.20694 -0.0878,0.038 -0.16281,0.0659 -0.16674,0.0619 -0.004,-0.004 0.015,-0.0554 0.0421,-0.11428 0.0944,-0.2053 0.21335,-0.46114 0.28427,-0.61138 0.0829,-0.17553 0.0288,-0.1506 0.42091,-0.19475 0.48387,-0.0545 0.80653,-0.0845 1.24238,-0.11578 0.0486,-0.004 0.14175,-0.0102 0.2071,-0.015 0.0787,-0.006 0.11876,-0.004 0.11876,0.005 0,0.008 -0.0209,0.059 -0.0466,0.11379 -0.0717,0.15322 -0.1437,0.32803 -0.13765,0.33407 0.005,0.005 0.37949,-0.17841 0.40832,-0.20022 0.007,-0.006 0.13267,-0.0737 0.27829,-0.15125 z m -3.06793,0.26694 c 0.01,-5.8e-4 0.0158,-5e-4 0.0179,3.4e-4 0.005,0.002 -0.0951,0.2212 -0.22401,0.48632 -0.12889,0.26511 -0.23638,0.48724 -0.23893,0.49359 -0.003,0.006 -0.14805,0.0353 -0.32329,0.0642 -0.50537,0.0834 -1.40027,0.25538 -1.85985,0.35736 -0.59006,0.13095 -1.07854,0.24848 -1.5907,0.38271 -0.15425,0.0404 -0.28527,0.0735 -0.29123,0.0735 -0.0205,0 0.0184,-0.029 0.26935,-0.20098 0.55527,-0.38043 1.04024,-0.75594 1.33653,-1.03502 0.0461,-0.0434 0.0959,-0.0854 0.11081,-0.0934 0.0456,-0.0244 0.45078,-0.11363 1.11674,-0.24581 0.56405,-0.11195 1.53085,-0.27422 1.6767,-0.28285 z m -2.45787,0.18016 c 0.005,10e-4 0.005,0.014 -0.001,0.0389 -0.005,0.0188 -0.0203,0.0373 -0.0345,0.041 -0.0329,0.009 -0.0326,0.002 0.003,-0.047 0.0164,-0.023 0.0274,-0.0339 0.0329,-0.0329 z m 10.92523,0.0621 c 0.0356,0 0.7011,0.1682 1.00278,0.25344 0.50333,0.1422 1.13684,0.34953 1.54794,0.50662 0.31853,0.12171 0.40266,0.15452 0.55666,0.21721 0.0934,0.038 0.18198,0.0746 0.19692,0.0814 0.0149,0.007 0.0944,0.0409 0.17651,0.0758 0.19466,0.0827 0.22225,0.0951 0.54309,0.24431 0.26433,0.12289 1.2779,0.62102 1.29169,0.63482 0.006,0.006 -0.0339,0.15016 -0.16732,0.59686 -0.0284,0.0952 -0.0577,0.17304 -0.0652,0.17304 -0.007,-1e-5 -0.18165,-0.083 -0.38703,-0.18456 -0.50794,-0.25113 -0.7065,-0.34652 -0.93009,-0.4467 -1.27747,-0.57237 -2.48691,-0.97427 -3.8018,-1.26335 -0.15677,-0.0345 -0.28604,-0.0638 -0.28716,-0.065 -0.002,-0.002 0.0556,-0.16105 0.2357,-0.65073 0.0484,-0.13145 0.0693,-0.17313 0.0873,-0.17313 z m -4.69315,0.59405 c 0.63628,-0.001 1.25867,0.0202 1.81254,0.0654 0.53143,0.0434 0.7655,0.0686 1.31024,0.14156 0.22403,0.03 0.86943,0.13978 0.88038,0.14975 0.006,0.006 -0.0111,0.0859 -0.0387,0.17817 -0.0276,0.0923 -0.0682,0.22889 -0.0903,0.30357 -0.0735,0.24906 -0.10806,0.35985 -0.1123,0.35985 -0.002,0 -0.0554,-0.009 -0.118,-0.0197 -0.19119,-0.0332 -0.80059,-0.11628 -1.0439,-0.1423 -0.89317,-0.0955 -1.48835,-0.12593 -2.45772,-0.12572 -0.87524,2.1e-4 -1.41093,0.0231 -2.30151,0.0986 -0.43833,0.0372 -1.13895,0.11833 -1.64286,0.1902 -0.15683,0.0224 -0.32184,0.0466 -0.36665,0.0539 -0.0448,0.007 -0.10281,0.0167 -0.12894,0.021 -0.0301,0.005 -0.0426,0.003 -0.034,-0.005 0.0289,-0.0273 0.77143,-0.46453 0.78889,-0.46453 0.003,0 0.0959,-0.0501 0.20595,-0.11138 0.39524,-0.22006 0.56817,-0.34018 0.69515,-0.48266 l 0.0677,-0.0759 0.16666,-0.017 c 0.74813,-0.0762 1.5892,-0.11584 2.40721,-0.1176 z m -3.34987,0.22493 c 0.0312,-0.001 0.0434,0.002 0.0434,0.008 0,0.0222 -0.19745,0.21634 -0.31434,0.30904 -0.14795,0.11734 -0.41078,0.30462 -0.53935,0.38438 -0.0604,0.0375 -0.11348,0.0682 -0.11785,0.0682 -0.016,0 0.0127,-0.0669 0.14297,-0.33266 0.17801,-0.36329 0.16796,-0.3543 0.43715,-0.39365 0.19072,-0.0279 0.296,-0.0414 0.34807,-0.0434 z m -1.00767,0.14727 c 0.008,-9e-5 0.0127,4.5e-4 0.0138,0.002 0.005,0.005 -0.0847,0.2029 -0.19873,0.44031 -0.11407,0.23742 -0.21851,0.45647 -0.23204,0.48682 l -0.0247,0.0552 -0.13285,0.0231 c -0.47361,0.0826 -1.38666,0.26695 -1.86417,0.37641 -0.57234,0.13122 -1.42505,0.34311 -1.80596,0.44869 -0.34093,0.0945 -1.01954,0.28564 -1.10664,0.3117 -0.14898,0.0446 -0.25167,0.0751 -0.33266,0.0989 -0.2524,0.0741 -0.98905,0.30545 -1.41418,0.44412 -0.27374,0.0893 -0.50259,0.16235 -0.50852,0.16235 -0.0198,0 0.0142,-0.0253 0.0829,-0.0617 0.0629,-0.0334 0.55548,-0.31785 0.72639,-0.41952 0.0411,-0.0244 0.18167,-0.10742 0.31235,-0.1844 0.20345,-0.11983 1.31485,-0.78597 1.80581,-1.08234 0.0859,-0.0518 0.18062,-0.10061 0.2105,-0.1084 0.0299,-0.008 0.16732,-0.0452 0.30548,-0.083 0.44124,-0.12091 1.199,-0.31523 1.49364,-0.38305 1.03002,-0.23705 1.68056,-0.36798 2.5424,-0.51175 0.0546,-0.009 0.10379,-0.0148 0.12704,-0.015 z m 8.65966,0.0429 c 0.003,-0.003 0.12079,0.0198 0.26171,0.0508 0.14093,0.031 0.28067,0.0615 0.31053,0.068 0.15315,0.0329 0.66598,0.16736 0.90979,0.2385 0.0896,0.0262 0.19348,0.0559 0.23081,0.0661 0.0959,0.0263 0.80759,0.26255 1.01622,0.33737 0.54562,0.19573 1.22804,0.48706 1.83916,0.78508 0.65802,0.32092 0.80529,0.39158 0.81639,0.39158 0.006,0 0.0183,0.008 0.0267,0.0183 0.0115,0.0138 0.007,0.0464 -0.02,0.13235 -0.0193,0.0627 -0.0595,0.19347 -0.0892,0.29056 -0.0298,0.0971 -0.0565,0.18418 -0.0594,0.19351 -0.0103,0.0328 -0.0414,0.0105 -0.18846,-0.13534 -0.58977,-0.5848 -1.50004,-0.99771 -1.77436,-0.80488 -0.0435,0.0306 -0.0639,0.0576 -0.0819,0.10857 -0.0146,0.0412 -0.0309,0.0661 -0.0416,0.0634 -0.01,-0.002 -0.14906,-0.0537 -0.30961,-0.11379 -0.92373,-0.34578 -2.0414,-0.6585 -2.98038,-0.83389 -0.0672,-0.0125 -0.12752,-0.0275 -0.134,-0.0332 -0.007,-0.006 0.007,-0.0674 0.0292,-0.13707 0.0574,-0.17744 0.23193,-0.67928 0.2386,-0.68596 z m 16.46227,0.13773 c 0.004,0.004 -0.0208,0.20616 -0.0786,0.63872 -0.0375,0.28017 -0.0594,0.4221 -0.0665,0.43028 -0.0147,0.0169 -0.73188,0.22386 -1.06727,0.30804 -0.64448,0.16177 -1.3059,0.28807 -1.99599,0.38115 -0.31867,0.043 -0.87687,0.0906 -1.28317,0.10939 -0.27037,0.0125 -0.906,0.0145 -1.13861,0.004 -0.0954,-0.004 -0.0995,-0.006 -0.0917,-0.0346 0.005,-0.0165 0.0149,-0.0681 0.0232,-0.11478 0.008,-0.0467 0.0221,-0.085 0.0306,-0.085 0.0302,-1.8e-4 0.51885,-0.04 0.58584,-0.0477 0.43652,-0.0505 0.69334,-0.0884 1.01654,-0.15017 1.2506,-0.23888 2.47199,-0.66002 3.76924,-1.29981 0.16032,-0.0791 0.29371,-0.14156 0.29637,-0.1389 z m -10.25665,0.007 c 0.009,0 0.0775,0.0248 0.15158,0.055 0.074,0.0303 0.25998,0.0999 0.41314,0.1549 1.0176,0.36515 2.04876,0.57407 3.19078,0.64651 0.23458,0.0149 1.38467,0.01 1.56815,-0.007 l 0.0679,-0.006 -0.10185,0.0344 c -0.10308,0.0349 -0.42927,0.13246 -0.72532,0.21697 -0.089,0.0254 -0.17601,0.0555 -0.19327,0.0668 -0.0499,0.0327 -0.0736,0.0949 -0.0871,0.22848 -0.007,0.0684 -0.0228,0.19359 -0.0354,0.27804 -0.0164,0.11004 -0.0289,0.15644 -0.0442,0.16367 -0.0287,0.0135 -0.3826,-0.0166 -0.78855,-0.0671 -0.22914,-0.0285 -0.28543,-0.0369 -0.59065,-0.0885 -0.42431,-0.0717 -1.11663,-0.22708 -1.35782,-0.30472 -0.0224,-0.007 -0.15382,-0.0474 -0.29198,-0.0893 -0.46998,-0.14261 -1.26724,-0.43772 -1.33892,-0.4956 -0.0152,-0.0123 0.0159,-0.1859 0.0945,-0.52792 0.018,-0.0784 0.037,-0.16856 0.0424,-0.2003 0.005,-0.0319 0.0172,-0.0577 0.0265,-0.0577 z m -0.2042,0.97934 c 0.007,-2.1e-4 0.0145,0.003 0.0245,0.008 0.0567,0.0268 0.19221,0.0828 0.31657,0.13077 1.08238,0.41782 2.03369,0.66338 3.19078,0.82387 0.20791,0.0288 0.73246,0.0811 0.81806,0.0815 0.0249,1.3e-4 0.0306,0.008 0.0306,0.0411 0,0.0451 -0.15947,0.85719 -0.17793,0.90616 -0.006,0.0168 -0.0163,0.0295 -0.022,0.0283 -0.006,-0.001 -0.0319,-0.005 -0.058,-0.008 -0.0261,-0.003 -0.14529,-0.0201 -0.26479,-0.038 -1.28638,-0.19337 -2.60927,-0.56548 -3.82713,-1.07656 -0.12588,-0.0528 -0.23179,-0.0989 -0.23537,-0.10251 -0.003,-0.004 0.0241,-0.13075 0.0614,-0.28261 0.0373,-0.15186 0.0786,-0.32334 0.0917,-0.38106 0.0229,-0.10044 0.0316,-0.1303 0.0514,-0.13095 z m 14.91227,0.26984 c 0.0117,0 0.003,0.0909 -0.0294,0.30681 -0.0189,0.12624 -0.0463,0.31207 -0.0608,0.41288 -0.0229,0.15954 -0.0907,0.6146 -0.1568,1.05227 -0.0113,0.0747 -0.0234,0.14907 -0.0269,0.16533 -0.007,0.0347 -0.0334,0.0455 -0.4607,0.18994 -0.60046,0.203 -1.34806,0.42191 -1.84767,0.541 -0.0781,0.0186 -0.20771,0.0495 -0.28799,0.0687 -0.3066,0.0732 -0.76349,0.16509 -1.18471,0.23819 -0.16199,0.0281 -0.19709,0.0337 -0.50246,0.0795 -0.18433,0.0277 -0.24439,0.0329 -0.24439,0.0215 0,-0.004 0.0242,-0.10266 0.0537,-0.22061 0.0829,-0.33104 0.14221,-0.64309 0.20413,-1.07488 0.0143,-0.0998 0.0279,-0.18344 0.0302,-0.18581 0.002,-0.002 0.16,-0.0442 0.35031,-0.093 0.83467,-0.21403 1.46897,-0.41116 2.23496,-0.69465 0.4719,-0.17466 0.90132,-0.34827 1.34962,-0.54548 0.22989,-0.10113 0.2698,-0.11915 0.43286,-0.19559 0.0775,-0.0363 0.14317,-0.0661 0.14595,-0.0661 z m -4.63414,0.0273 c 0.0125,-1.3e-4 0.0101,0.0195 -0.0451,0.36987 -0.007,0.0467 -0.0263,0.16736 -0.0421,0.26819 -0.0667,0.4267 -0.13199,0.79035 -0.1442,0.80255 -0.016,0.0161 -0.51856,0.11549 -0.91377,0.18084 -0.61968,0.10245 -1.13699,0.16136 -1.80596,0.20561 -0.28744,0.019 -1.24757,0.0345 -1.56153,0.0251 -0.24297,-0.007 -0.65933,-0.0339 -0.95381,-0.0611 -0.15494,-0.0143 -0.29166,-0.026 -0.30382,-0.026 -0.017,0 -0.0202,-0.009 -0.014,-0.0374 0.005,-0.0205 0.0391,-0.18086 0.077,-0.35636 0.0653,-0.30182 0.12199,-0.57763 0.12199,-0.59272 0,-0.004 0.17572,-0.002 0.39043,0.002 0.99981,0.0244 2.21362,-0.0876 3.31619,-0.30622 0.54403,-0.10785 1.27479,-0.2917 1.77902,-0.4476 0.0486,-0.015 0.0934,-0.0274 0.0996,-0.0274 z m -10.53777,0.68429 c 0.002,-0.002 0.0674,0.0241 0.14578,0.0575 1.29324,0.55119 2.81406,0.97281 4.13906,1.14748 l 0.12655,0.0167 -0.009,0.0483 c -0.009,0.0502 -0.18591,0.77024 -0.21117,0.85967 h 9e-5 c -0.0129,0.0456 -0.019,0.0508 -0.0579,0.0499 -0.13656,-0.003 -1.177,-0.25921 -1.78832,-0.44023 -0.79877,-0.23653 -1.78319,-0.60168 -2.50069,-0.92761 l -0.0905,-0.0411 0.0472,-0.13351 c 0.026,-0.0734 0.0805,-0.2461 0.12124,-0.38371 0.0407,-0.13763 0.0755,-0.25166 0.0772,-0.25344 z m 10.26915,0.9752 c 0.008,0.008 -0.009,0.11035 -0.10997,0.66226 -0.0252,0.13816 -0.0497,0.27263 -0.0543,0.29876 -0.005,0.0261 -0.0145,0.0796 -0.0219,0.11884 l -0.0134,0.0713 -0.11105,1.8e-4 c -0.54611,0.001 -1.2885,0.16808 -1.72081,0.3871 h -8e-5 l -0.0663,0.0336 -0.44511,-0.002 c -0.4504,-0.002 -0.71836,-0.0111 -1.13762,-0.0384 -0.50043,-0.0326 -1.13954,-0.10179 -1.58192,-0.17131 -0.32201,-0.0506 -0.39145,-0.0621 -0.45823,-0.0762 -0.0392,-0.008 -0.0713,-0.0172 -0.0713,-0.0198 0,-0.002 0.0187,-0.0826 0.0417,-0.17777 0.0963,-0.3996 0.16405,-0.69226 0.17139,-0.74023 0.004,-0.0282 0.0116,-0.0535 0.0162,-0.0564 0.005,-0.003 0.0603,2.1e-4 0.12382,0.007 0.61412,0.0631 1.05574,0.0845 1.73796,0.0841 0.67265,-3.7e-4 1.08808,-0.0207 1.74308,-0.085 0.17469,-0.0171 0.64347,-0.0753 0.76891,-0.0954 0.48834,-0.0782 0.63021,-0.10254 0.8857,-0.15175 0.16225,-0.0312 0.29871,-0.0531 0.30323,-0.0486 z m 4.57208,0.50463 c 0.0131,1e-5 0.01,0.009 0.01,0.0218 0,0.0159 -0.0156,0.12476 -0.0345,0.2419 -0.019,0.11716 -0.0463,0.2864 -0.0608,0.37601 -0.10603,0.65695 -0.21848,1.32874 -0.22385,1.33743 -0.003,0.006 -0.0233,0.0134 -0.0439,0.017 -0.0206,0.004 -0.17498,0.0375 -0.34302,0.0753 -1.23602,0.27848 -2.34289,0.42976 -3.64576,0.49833 -0.40603,0.0214 -1.55326,0.0249 -1.9349,0.006 -1.6443,-0.0818 -3.09647,-0.30928 -4.76965,-0.74729 -0.0559,-0.0146 -0.0564,-0.0394 -7.9e-4,-0.0394 0.12211,0 0.34425,-0.0967 0.42614,-0.18555 0.0867,-0.094 0.10118,-0.13851 0.19858,-0.60541 0.01,-0.0467 0.0126,-0.0467 0.27018,-0.003 0.31302,0.0534 0.72769,0.1101 1.07854,0.14744 0.58252,0.062 0.9202,0.085 1.51395,0.10326 0.26139,0.008 0.49257,0.0159 0.51382,0.0174 0.0367,0.003 0.0342,0.006 -0.0483,0.0666 -0.13673,0.10012 -0.29159,0.27052 -0.34103,0.37534 -0.0538,0.11411 -0.0573,0.22171 -0.0104,0.31874 0.13933,0.28782 0.73807,0.34844 1.4813,0.15 0.54176,-0.14464 1.07468,-0.44439 1.2408,-0.69797 0.0494,-0.0753 0.17119,-0.33202 0.17132,-0.36092 4e-5,-0.0142 0.0365,-0.0212 0.31915,-0.0606 0.0981,-0.0137 0.20226,-0.0296 0.34957,-0.0531 0.12698,-0.0203 0.6812,-0.12027 0.79776,-0.14387 0.35123,-0.0711 1.04441,-0.23394 1.29674,-0.30457 0.42115,-0.11789 0.79165,-0.22574 0.95728,-0.27879 0.10829,-0.0347 0.21825,-0.0692 0.24439,-0.0767 0.0261,-0.008 0.15747,-0.0521 0.29189,-0.099 0.20598,-0.0719 0.27386,-0.0965 0.29577,-0.0965 z m -11.06253,0.82743 c 0.007,-0.002 0.083,0.0103 0.1689,0.0278 l 0.15614,0.0319 -0.002,0.0441 c -10e-4,0.0242 -0.007,0.0489 -0.0136,0.0548 -0.006,0.006 -0.0813,-0.0264 -0.16665,-0.0719 -0.0854,-0.0455 -0.14962,-0.0846 -0.14263,-0.0868 z"
         id="path16-9"
         style="fill:#f5a532;fill-opacity:1;stroke:#f5a532;stroke-width:0.16037285;stroke-opacity:1" />
      <path
         style="fill:#a03234;fill-opacity:1;stroke-width:0.26458332"
         d="m -193.185,137.68501 c 0,-2.1497 0.0267,-2.25063 0.63681,-2.40375 1.39429,-0.34994 2.35779,1.06761 1.68408,2.47772 -0.19084,0.39946 -0.60298,0.75203 -0.93431,0.79929 -0.42825,0.0611 -0.59283,0.26307 -0.59283,0.7276 0,0.39522 -0.15296,0.64306 -0.39688,0.64306 -0.32158,0 -0.39687,-0.42572 -0.39687,-2.24392 z m 1.60541,-0.1708 c 0.21858,-0.40841 0.22268,-0.73477 0.015,-1.19063 -0.45149,-0.99091 -0.82664,-0.73557 -0.82664,0.56264 0,1.28024 0.32713,1.53334 0.81166,0.62799 z m 5.53834,2.20305 c 0,-0.11642 0.113,-0.32478 0.25111,-0.46302 0.13811,-0.13824 0.28694,-1.0753 0.33073,-2.08235 0.0508,-1.16939 0.19912,-1.87049 0.41035,-1.94028 0.52929,-0.17489 0.45143,3.74506 -0.085,4.28154 -0.44583,0.44583 -0.90714,0.54963 -0.90714,0.20411 z m -4.23333,-2.67044 c 0,-1.17771 0.10239,-1.59849 0.41851,-1.71979 0.70906,-0.27209 1.16899,-0.17913 1.16899,0.23627 0,0.21828 -0.1786,0.39688 -0.39688,0.39688 -0.29986,0 -0.39687,0.32338 -0.39687,1.32291 0,0.99954 -0.097,1.32292 -0.39688,1.32292 -0.30788,0 -0.39687,-0.34963 -0.39687,-1.55919 z m 2.16958,1.24169 c -0.79757,-0.79756 -0.13342,-3.12208 0.89202,-3.12208 0.58171,0 1.43631,0.98824 1.43631,1.66092 0,1.36594 -1.48907,2.30042 -2.32833,1.46116 z m 1.43621,-0.91408 c 0.17938,-0.71469 -0.0845,-1.41815 -0.56309,-1.50083 -0.3004,-0.0519 -0.51048,1.26098 -0.29261,1.82872 0.23021,0.59992 0.66462,0.43346 0.8557,-0.32789 z m 2.92912,0.76057 c -1.27737,-1.41148 0.44809,-3.88528 1.78056,-2.5528 0.72934,0.72933 0.51586,1.35864 -0.52726,1.55433 -1.05174,0.19731 -1.11911,0.7995 -0.0919,0.822 0.90497,0.0198 0.93398,0.49932 0.0359,0.59417 -0.47356,0.05 -0.91262,-0.10316 -1.19729,-0.4177 z m 1.10575,-1.62013 c 0.20055,-0.12702 0.28603,-0.35812 0.18997,-0.51356 -0.23163,-0.37478 -0.95147,-0.0842 -0.95147,0.38405 0,0.42138 0.23705,0.4617 0.7615,0.12951 z m 1.9531,1.76041 c -0.14334,-0.1819 -0.3306,-0.95322 -0.41613,-1.71404 -0.12304,-1.09453 -0.0616,-1.47723 0.29437,-1.83319 0.41961,-0.41962 0.45563,-0.42001 0.53542,-0.006 0.0471,0.24427 0.19587,0.44413 0.33072,0.44413 0.13486,0 0.24519,0.17859 0.24519,0.39687 0,0.21829 -0.11906,0.39688 -0.26458,0.39688 -0.14553,0 -0.26459,0.40969 -0.26459,0.91043 0,0.50073 0.11906,0.98401 0.26459,1.07394 0.14552,0.0899 0.26458,0.27556 0.26458,0.41249 0,0.36172 -0.68469,0.30515 -0.98957,-0.0818 z m 1.66603,-0.25731 c -0.22653,-0.32342 -0.41188,-0.83271 -0.41188,-1.13175 0,-0.76624 0.73135,-1.71979 1.31902,-1.71979 0.2724,0 0.68237,0.1871 0.91104,0.41577 0.49006,0.49006 0.55399,2.25059 0.0983,2.70631 -0.50517,0.50517 -1.46837,0.3692 -1.91646,-0.27054 z m 1.30791,-1.08765 c 0,-1.01926 -0.33989,-1.31107 -0.75695,-0.64988 -0.32185,0.51023 0.0203,1.86556 0.43598,1.72701 0.17654,-0.0588 0.32097,-0.54356 0.32097,-1.07713 z m -7.66161,-2.27478 c -0.19568,-0.3166 0.30205,-0.6303 0.65447,-0.41249 0.2959,0.18288 0.10165,0.65879 -0.2689,0.65879 -0.12834,0 -0.30185,-0.11084 -0.38557,-0.2463 z"
         id="path4637"
         inkscape:connector-curvature="0"
         sodipodi:nodetypes="scccsssccscccccccccscssssscsscccccccsccccccscccccsssscscccssccccsccsccsc" />
      <path
         style="fill:#a03234;fill-opacity:1;stroke-width:0.26458332"
         d="m -215.81838,158.15871 c -0.1708,-0.4451 0.65604,-1.86849 2.18761,-3.7659 0.86889,-1.07645 0.87922,-1.11714 0.37344,-1.4714 -0.59487,-0.41667 -1.07422,-1.51994 -1.07422,-2.47245 0,-1.02637 0.95133,-3.46944 2.11132,-5.42198 0.58502,-0.98475 1.06368,-1.85893 1.06368,-1.94263 0,-0.0837 -0.80367,-0.1514 -1.78593,-0.15044 -1.36325,0.001 -1.97381,0.13001 -2.57969,0.5437 -2.54407,1.73705 -9.89367,4.99014 -13.64292,6.03864 -2.22515,0.62228 -3.20825,0.69306 -3.96927,0.28578 -2.07621,-1.11116 2.52452,-4.3094 8.53672,-5.93438 2.07845,-0.56176 7.21982,-1.43608 8.58243,-1.45948 0.51949,-0.009 5.16125,-3.6798 7.40602,-5.85696 1.18277,-1.14714 2.35146,-2.08571 2.59707,-2.08571 0.68525,0 1.47016,0.50266 1.47016,0.94148 0,0.21654 -0.9525,1.77932 -2.11668,3.47286 -1.16416,1.69353 -2.11666,3.14958 -2.11666,3.23566 0,0.0861 0.74414,0.33482 1.65365,0.55274 1.24256,0.29772 1.71857,0.54421 1.91481,0.99153 0.14366,0.32742 0.32262,0.59531 0.39772,0.59531 0.0751,0 0.72268,-0.41671 1.43905,-0.92604 1.60726,-1.14272 2.70946,-1.23405 2.95769,-0.24507 0.094,0.37453 0.0358,0.97743 -0.12926,1.33977 -0.32933,0.72278 -0.26244,0.7085 1.09932,-0.23462 0.40371,-0.2796 0.71701,-0.64703 0.69624,-0.81652 -0.0898,-0.73308 0.0616,-0.96951 0.62025,-0.96812 1.03739,0.003 2.60321,0.54568 2.76134,0.95778 0.0838,0.21843 -0.16986,1.05531 -0.56375,1.85974 -0.39389,0.80442 -0.65686,1.5219 -0.58438,1.59438 0.17436,0.17435 3.44112,-1.8084 4.88965,-2.96775 0.907,-0.72593 1.38157,-0.91646 2.28272,-0.91646 2.46558,0 1.93969,1.38564 -1.14014,3.00404 -1.0097,0.53059 -2.02373,0.96471 -2.25338,0.96471 -0.22964,0 -0.60223,0.35718 -0.828,0.79375 -0.24887,0.48127 -0.29948,0.79375 -0.12854,0.79375 0.86495,0 6.45539,-3.36744 7.65493,-4.611 0.90086,-0.93391 1.92472,-1.22835 2.27884,-0.65535 0.0985,0.15944 -0.40043,0.8857 -1.10886,1.61389 l -1.28802,1.324 c 1.20203,-0.58094 4.54974,-3.58607 5.48402,-2.74438 0.18547,0.18546 -0.0718,0.79662 -0.81254,1.9303 -0.59617,0.9124 -1.03287,1.70998 -0.97046,1.77239 0.2002,0.20019 2.32383,-0.74993 4.45307,-1.99231 1.98425,-1.15778 2.13165,-1.20047 3.6113,-1.04581 1.24145,0.12976 1.61243,0.0768 1.90008,-0.27107 0.33447,-0.40453 5.51407,-4.79304 7.20786,-6.107 0.56719,-0.44 0.85389,-0.51969 1.10875,-0.30817 0.51021,0.42343 0.21504,0.88421 -1.00606,1.5705 -2.34779,1.31954 -8.14374,7.6663 -8.14374,8.91768 0,0.47971 2.84797,-0.99289 6.45745,-3.33896 1.58707,-1.03155 3.03855,-1.87555 3.22553,-1.87555 0.79545,0 0.62157,0.6602 -0.47703,1.81126 -1.5368,1.6102 -2.64089,2.98991 -2.50299,3.12782 0.16034,0.16034 2.84435,-1.46636 5.71762,-3.4653 2.14804,-1.4944 3.71901,-2.15849 3.71901,-1.57213 0,0.0914 -0.36855,0.81038 -0.819,1.59768 l -0.819,1.43145 1.26767,-0.80393 c 1.30571,-0.82805 2.0686,-1.00228 2.35555,-0.53797 0.0968,0.15659 0.63966,-0.061 1.32006,-0.52916 1.1001,-0.75689 1.99278,-1.02579 1.98087,-0.5967 -0.003,0.10914 -0.74716,0.69146 -1.65363,1.29404 -1.59151,1.05794 -1.66907,1.16251 -2.25686,3.04271 -0.85092,2.7219 -2.46498,5.3259 -4.68146,7.55277 -2.75473,2.76761 -4.19286,2.96152 -3.45159,0.46541 0.74157,-2.49708 3.72492,-6.71272 6.26809,-8.85715 1.38004,-1.16367 1.74973,-1.94225 0.55544,-1.1698 -0.40018,0.25884 -1.45519,1.10597 -2.34445,1.88251 -1.47903,1.29158 -2.74878,1.81772 -2.74878,1.13902 0,-0.15009 0.53231,-1.06638 1.18291,-2.03619 0.65059,-0.96982 1.13609,-1.81011 1.0789,-1.86731 -0.0572,-0.0572 -0.76303,0.38283 -1.56849,0.97786 -0.80546,0.59502 -1.55145,1.08186 -1.65775,1.08186 -0.10629,0 -0.88031,0.53979 -1.72005,1.19952 -3.62711,2.84962 -5.62052,2.23932 -3.10019,-0.94914 0.60197,-0.76155 0.9294,-1.2827 0.72761,-1.15812 -0.2018,0.12459 -1.46087,0.96812 -2.79797,1.87453 -2.46168,1.66878 -4.19826,2.41147 -4.9574,2.12016 -0.2722,-0.10446 -0.41673,-0.48944 -0.41673,-1.11002 v -0.95009 l -1.25678,1.04442 c -2.43343,2.02227 -4.08996,2.43362 -4.2492,1.05517 -0.0451,-0.39052 0.11574,-1.09249 0.35746,-1.55993 0.41761,-0.80757 0.41583,-0.8408 -0.0358,-0.66748 -2.09957,0.80568 -2.99476,0.98398 -3.52238,0.70161 -0.65758,-0.35193 -0.70827,-0.99761 -0.14182,-1.80634 0.64981,-0.92772 0.18108,-0.70271 -1.94421,0.93332 -3.87404,2.98219 -3.92587,3.01077 -4.19395,2.31214 -0.091,-0.23718 0.25893,-0.90307 0.8602,-1.63685 l 1.01364,-1.23701 -1.57951,1.06944 c -2.26096,1.53084 -3.14773,1.93967 -4.20716,1.93967 -0.78289,0 -0.96181,-0.11025 -1.10505,-0.68096 -0.094,-0.37454 -0.0315,-0.98699 0.13893,-1.361 l 0.30984,-0.68003 -0.73928,0.47553 c -0.40661,0.26154 -0.97413,0.63586 -1.26118,0.83183 -0.28703,0.19597 -0.86816,0.3563 -1.29138,0.3563 -0.72241,0 -0.76085,-0.0533 -0.62815,-0.87105 0.0777,-0.47908 0.51693,-1.50803 0.97597,-2.28657 0.45904,-0.77853 0.73436,-1.51577 0.61182,-1.63831 -0.29239,-0.29239 -3.51928,1.86332 -5.36407,3.58345 -2.53701,2.36557 -4.64624,2.87364 -4.61978,1.11281 0.006,-0.38174 -0.0128,-0.69408 -0.0411,-0.69408 -0.10956,0 -3.54117,4.78125 -3.54117,4.93391 0,0.0888 0.71437,0.0807 1.5875,-0.0181 0.98473,-0.11141 1.5875,-0.0809 1.5875,0.0803 0,0.35359 -0.76917,0.5705 -2.43036,0.68536 l -1.39336,0.0964 -1.59387,2.33354 c -1.57082,2.29979 -2.36537,2.91797 -2.68383,2.08809 z m 56.356,-6.73298 c 0.77376,-1.25172 1.61862,-2.69257 1.87749,-3.2019 l 0.47066,-0.92604 -0.71783,0.66146 c -1.22745,1.13106 -3.84741,5.40917 -3.84741,6.28242 0,0.42508 0.99423,-0.83771 2.21709,-2.81594 z m -50.54166,-1.77435 c 2.78497,-3.73031 3.45895,-4.95434 3.09868,-5.62752 -0.15311,-0.28608 -0.7179,-0.66521 -1.25511,-0.8425 -0.93154,-0.30744 -1.00507,-0.287 -1.58955,0.44183 -0.33706,0.4203 -1.15584,1.83575 -1.81952,3.14544 -0.962,1.8984 -1.20854,2.65974 -1.21587,3.75468 -0.009,1.34388 0.15349,1.94476 0.52,1.92301 0.10055,-0.006 1.11817,-1.26369 2.26137,-2.79494 z m -19.00045,-1.02609 c 3.13334,-1.05184 11.44845,-5.03706 11.14431,-5.3412 -0.46611,-0.46611 -8.61337,1.86755 -11.34442,3.24945 -1.32361,0.66974 -3.11861,2.11528 -3.11861,2.51145 0,0.41993 1.31166,0.25404 3.31872,-0.4197 z m 53.24177,-2.12125 c 0.74839,-0.58208 1.36579,-1.14763 1.37197,-1.25677 0.006,-0.10914 -0.29741,-0.19844 -0.67468,-0.19844 -0.49046,0 -1.16911,0.48316 -2.38125,1.6953 -0.93241,0.93241 -1.69529,1.83568 -1.69529,2.00726 0,0.30624 0.6629,-0.13461 3.37925,-2.24735 z m -28.42672,0.67574 c 1.06022,-0.98319 1.76414,-2.08875 1.76414,-2.77074 0,-0.45184 -0.40602,-0.33943 -1.77716,0.49203 -0.82714,0.50159 -1.927,2.48234 -1.927,3.47036 0,0.52199 0.27285,0.35439 1.94002,-1.19165 z m 13.95673,-2.55669 c 0.34133,-0.41369 0.3255,-0.42821 -0.17582,-0.16119 -0.303,0.1614 -0.71973,0.49805 -0.92603,0.7481 -0.34134,0.41369 -0.32549,0.42821 0.17581,0.16118 0.303,-0.1614 0.71973,-0.49804 0.92604,-0.74809 z m -21.36447,-2.48467 c 1.06736,0 1.13746,-0.0543 2.13481,-1.65365 0.56717,-0.9095 1.22167,-1.94708 1.45445,-2.30573 0.23279,-0.35864 -0.88644,0.40273 -2.48717,1.69194 -3.38061,2.72272 -3.3215,2.66906 -2.69034,2.44188 0.26656,-0.0959 0.98128,-0.17444 1.58825,-0.17444 z m 49.35124,-0.88633 c 0.6035,-0.64241 0.48357,-0.95864 -0.49186,-1.29692 -0.29054,-0.10076 -0.21964,-0.2074 0.26458,-0.39799 0.91558,-0.36037 1.70338,-0.0112 1.80104,0.79826 0.0899,0.7449 -0.74631,1.51839 -1.64144,1.51839 -0.49298,0 -0.48989,-0.0282 0.0677,-0.62174 z"
         id="path4637-9"
         inkscape:connector-curvature="0"
         sodipodi:nodetypes="cccscsccscsccssssscscccccccsccscscsccccccccsccccsssccssscscccccccscsscccscccccscccccccsccccscccccscccccsscscccccscccsssccccccssccssscscsscsssccscccsccscsccccscc" />
      <g
         transform="matrix(0.45043474,0,0,0.45043474,-166.10262,145.0704)"
         id="g4736">
        <path
           style="fill:#b4d342;fill-opacity:1;stroke-width:0.06508576"
           inkscape:connector-curvature="0"
           id="path2-5"
           d="m -11.210419,16.589247 c -0.198155,0.01223 -0.395826,0.05143 -0.586339,0.118377 -0.349562,0.122857 -1.039088,0.545634 -5.876145,3.605018 -2.254675,1.426066 -2.566471,1.692429 -2.994113,2.557862 -0.441817,0.894183 -0.533457,1.980316 -0.241926,2.864198 0.07087,0.214782 0.544267,1.605869 1.051926,3.091433 0.507659,1.485564 0.977512,2.862353 1.044007,3.059223 0.113287,0.335304 1.12334,3.262553 1.468652,4.256131 0.08577,0.246792 0.228849,0.572794 0.317799,0.724587 0.226228,0.386031 0.760593,0.846291 1.161161,1.000267 0.706668,0.271676 1.382863,0.140677 2.329472,-0.451673 0.300903,-0.188292 0.766759,-0.479669 1.035244,-0.647522 0.268478,-0.167859 0.780949,-0.490508 1.138946,-0.716637 0.357964,-0.226136 0.870429,-0.548609 1.138945,-0.716638 0.845983,-0.529483 2.9423773,-1.853399 3.4211399,-2.160659 0.7647832,-0.490917 1.2327294,-1.127568 1.5687399,-2.134061 0.08873,-0.265826 0.1187532,-0.550939 0.117984,-1.106736 -0.00155,-0.669845 -0.022911,-0.809776 -0.2061717,-1.333971 -0.4673017,-1.336662 -1.2756254,-3.669439 -1.3867824,-4.002682 -0.1204825,-0.361024 -0.8723514,-2.540795 -1.782447,-5.167072 -0.5328656,-1.537607 -0.7055595,-1.894296 -1.0964346,-2.265129 -0.4294721,-0.407456 -1.0290941,-0.611161 -1.6235501,-0.574423 z m -1.076141,5.965932 c 0.248091,0.0092 0.452772,0.121812 0.686849,0.322174 0.6231,0.533357 0.93039,1.61348 0.70234,2.469688 -0.109301,0.41043 -0.18537,0.554935 -0.535095,1.017794 l -0.279663,0.369841 0.207764,0.0449 c 0.492631,0.106287 0.951068,0.442756 2.5451766,1.868312 l 0.2010068,0.179952 -0.1783609,0.145789 c -0.097945,0.08016 -0.2923928,0.210608 -0.4322082,0.289994 l -0.2542413,0.144206 -0.61296,-0.534703 c -1.036627,-0.9041 -1.11496,-0.967904 -1.478952,-1.203673 -0.564138,-0.365383 -0.768957,-0.355058 -1.469037,0.07188 -0.322172,0.196486 -0.594056,0.396478 -0.603818,0.444523 -0.0097,0.04804 0.205511,0.731552 0.478293,1.519081 0.272783,0.78756 0.508267,1.475724 0.52318,1.529381 0.03605,0.130069 -0.02667,0.207034 -0.307867,0.377783 -0.402628,0.244509 -0.335095,0.335542 -0.836605,-1.126184 -0.171949,-0.501148 -0.45933,-1.33574 -0.638781,-1.854784 -0.986123,-2.852282 -1.380479,-4.007063 -1.380479,-4.043193 -7.7e-5,-0.02221 0.226689,-0.185417 0.504115,-0.362693 0.277426,-0.177276 0.827534,-0.52883 1.222352,-0.781026 0.989735,-0.632132 1.523539,-0.904254 1.93696,-0.889033 z m -0.257815,1.04716 c -0.320337,6.07e-4 -0.558111,0.111757 -1.355804,0.634806 -0.357972,0.234716 -0.717405,0.455055 -0.79886,0.489418 -0.08146,0.03437 -0.165914,0.109246 -0.187899,0.166444 -0.03482,0.09077 0.545526,1.949644 0.704722,2.257136 0.03245,0.06265 0.0751,0.114017 0.09455,0.114017 0.01945,0 0.318423,-0.180298 0.664595,-0.40043 0.346196,-0.220132 0.731982,-0.464295 0.857284,-0.543044 0.662643,-0.416488 0.950453,-0.938846 0.895412,-1.62478 -0.05435,-0.676941 -0.388398,-1.094436 -0.873965,-1.093668 z" />
        <path
           style="fill:#e76c30;stroke-width:0.06508576"
           inkscape:connector-curvature="0"
           id="path4-2"
           d="m -38.730059,36.276332 c -1.592955,-0.194073 -3.41499,-0.413451 -4.048882,-0.487511 -0.633907,-0.07411 -1.314368,-0.190328 -1.512162,-0.258376 -0.691446,-0.237891 -1.282313,-0.771264 -1.621243,-1.463348 -0.333766,-0.681645 -0.335365,-0.783101 -0.07403,-4.694306 0.131344,-1.965633 0.224653,-3.70234 0.207364,-3.859314 -0.01729,-0.156959 -0.01115,-0.25248 0.01376,-0.212268 0.02483,0.0402 0.110973,-1.002881 0.191382,-2.318018 0.08041,-1.315137 0.174647,-2.590839 0.209417,-2.834833 0.167136,-1.173076 1.13118,-2.097854 2.267435,-2.175264 0.429818,-0.02929 7.930952,0.813389 8.629724,0.969517 1.07637,0.240288 1.995997,1.214972 2.171728,2.301721 0.07027,0.434622 -0.07126,3.017482 -0.187191,3.415528 -0.06504,0.223246 -0.270585,0.981741 -0.529231,1.952566 -0.07157,0.268477 -0.154844,0.576006 -0.185154,0.683398 -0.07087,0.25115 -0.327763,1.222505 -0.582111,2.201018 -0.126763,0.487741 -0.199908,0.928775 -0.199908,1.205362 0,0.756719 0.305046,1.613173 0.799169,2.243682 l 0.194379,0.248045 -0.04574,0.682483 c -0.02529,0.377168 -0.100174,0.840756 -0.167436,1.03632 -0.335104,0.973977 -1.16662,1.603564 -2.225233,1.684895 -0.273198,0.02099 -1.376943,-0.08629 -3.306369,-0.321367 z m -0.195256,-5.060834 c 0,-0.0099 0.117054,-1.816115 0.260114,-4.013828 0.143068,-2.197712 0.247491,-4.008448 0.232055,-4.023899 -0.01545,-0.01545 -0.204289,-0.04881 -0.419679,-0.07426 l -0.391627,-0.0462 -0.03536,0.329376 c -0.08525,0.794094 -0.496243,7.668585 -0.460598,7.704177 0.02175,0.02175 0.177429,0.05881 0.345957,0.08235 0.417826,0.05835 0.469139,0.06296 0.469139,0.0422 z" />
        <path
           style="fill:#03a5d5;stroke-width:0.06508576"
           inkscape:connector-curvature="0"
           id="path6-1"
           d="m -63.495351,36.768317 c -0.572755,-0.135911 -2.051807,-0.488994 -3.286843,-0.784639 -1.235036,-0.295644 -2.588226,-0.619001 -3.007181,-0.718582 -1.303683,-0.309874 -1.94288,-0.70769 -2.410573,-1.500401 -0.386516,-0.655124 -0.46152,-1.001497 -0.414551,-1.914667 0.02206,-0.429564 0.06734,-0.971362 0.100461,-1.204056 0.03313,-0.232686 0.09052,-0.657368 0.127455,-0.943765 0.230933,-1.790211 0.335949,-2.595837 0.394518,-3.026477 0.07364,-0.541668 0.342384,-2.595297 0.651496,-4.979041 0.290786,-2.242376 0.313594,-2.365679 0.519397,-2.808542 0.326925,-0.703439 0.91663,-1.157088 1.719949,-1.322979 0.486051,-0.100417 0.593219,-0.08321 2.87227,0.46106 1.038088,0.247914 2.253598,0.538169 2.701074,0.645007 3.805273,0.908558 3.709337,0.879654 4.269507,1.288001 0.146696,0.10695 0.374824,0.326378 0.506945,0.487619 l 0.240226,0.29317 -0.511356,0.511356 c -1.079062,1.079062 -1.367027,2.292265 -0.925701,3.899826 0.67485,2.458157 0.895106,3.287844 0.984662,3.709644 0.06004,0.282753 0.02667,0.665878 -0.232724,2.66848 -0.525725,4.059183 -0.511934,3.99192 -0.933311,4.551245 -0.456732,0.606256 -1.158625,0.947993 -1.92935,0.939307 -0.217234,-0.0023 -0.863587,-0.115632 -1.436365,-0.251543 z m -1.035936,-5.66021 c 0.37058,-0.168305 0.788406,-0.598445 0.972132,-1.000882 0.234831,-0.514217 0.343113,-1.001573 0.523857,-2.357607 0.09065,-0.680147 0.250719,-1.878998 0.355713,-2.664175 0.104996,-0.785101 0.183832,-1.434597 0.175208,-1.443208 -0.0086,-0.0086 -0.197355,-0.05765 -0.419402,-0.108947 l -0.403728,-0.09327 -0.03629,0.267302 c -0.01991,0.147019 -0.152546,1.175229 -0.294691,2.284962 -0.142145,1.109734 -0.290526,2.208014 -0.329753,2.440707 -0.235584,1.397468 -0.700302,1.917512 -1.588735,1.778064 -0.660367,-0.103673 -1.119727,-0.472397 -1.305835,-1.048159 -0.15862,-0.490716 -0.108131,-1.278776 0.260766,-4.069944 0.169459,-1.282236 0.294822,-2.344617 0.278595,-2.360836 -0.04712,-0.04712 -0.757227,-0.185763 -0.786023,-0.153462 -0.01437,0.01607 -0.105118,0.644316 -0.201752,1.396085 -0.09663,0.751737 -0.24647,1.908594 -0.332974,2.570851 -0.304031,2.327551 -0.179144,3.203898 0.564206,3.958865 0.47632,0.48376 1.050927,0.711564 1.814664,0.719405 0.345158,0.0039 0.56599,-0.03036 0.753929,-0.115717 z" />
        <path
           style="fill:#ae4182;stroke-width:0.06508576"
           inkscape:connector-curvature="0"
           id="path8-8"
           d="m -28.626687,16.858302 c -0.339769,-0.0023 -0.688563,0.06327 -0.958986,0.190682 -0.407963,0.192273 -0.871581,0.64939 -1.065838,1.051156 -0.123505,0.255456 -0.677833,2.233535 -1.674441,5.973082 -0.09063,0.340077 -0.252534,0.940613 -0.35951,1.334356 -0.106994,0.393765 -0.253242,0.935617 -0.325348,1.204056 -0.07211,0.268478 -0.156021,0.575875 -0.186309,0.683267 -0.07087,0.25115 -0.327631,1.222583 -0.581972,2.201171 -0.124342,0.478418 -0.199815,0.929852 -0.199815,1.194524 0,0.882498 0.3631,1.776989 1.006263,2.478836 l 0.392089,0.428234 2.961903,1.461119 c 4.477909,2.209243 5.08182,2.497208 5.435203,2.5913 0.977743,0.260214 2.067644,-0.263935 2.523729,-1.213973 0.177945,-0.370649 1.961637,-6.896937 1.946954,-7.12348 -0.0046,-0.07157 -0.100505,-0.393673 -0.212922,-0.715847 -1.234805,-3.538985 -1.282313,-3.749078 -1.075371,-4.749499 0.191827,-0.927315 0.817925,-1.929042 1.450356,-2.31994 l 0.237952,-0.146589 -0.255033,-0.224844 c -0.299526,-0.26405 -7.920189,-4.056493 -8.475978,-4.218003 -0.178322,-0.05181 -0.378905,-0.078 -0.582771,-0.07945 z m 3.240337,6.46645 c 0.492684,0 0.60205,0.02336 0.976435,0.208155 0.918398,0.453341 1.622167,1.457044 1.822574,2.599219 0.122427,0.697704 0.04943,1.927196 -0.158895,2.679472 -0.357635,1.291231 -0.960063,2.17934 -1.762997,2.599218 -0.480078,0.251043 -1.285696,0.27854 -1.801127,0.06119 -1.813886,-0.765022 -2.532646,-3.157083 -1.701038,-5.660825 0.386239,-1.162777 0.964291,-1.943111 1.710571,-2.309639 0.30623,-0.150394 0.442686,-0.176776 0.914477,-0.176776 z m 0.0183,0.961369 c -0.100274,0.0039 -0.20356,0.02644 -0.350379,0.06911 -0.538223,0.156474 -0.857129,0.46893 -1.196906,1.172692 -1.025174,2.123376 -0.71424,4.301024 0.708696,4.963666 0.437874,0.203682 0.876963,0.202737 1.320057,-0.0039 0.619871,-0.288603 1.168618,-1.255254 1.421759,-2.504665 0.133874,-0.660782 0.10301,-1.766917 -0.06196,-2.217852 -0.268462,-0.733842 -0.847214,-1.285619 -1.509164,-1.438441 -0.134673,-0.03106 -0.231825,-0.04505 -0.332097,-0.0409 z" />
        <path
           style="fill:#db322d;stroke-width:0.06508576"
           inkscape:connector-curvature="0"
           id="path10-7"
           d="m -50.347822,16.881363 -1.106351,0.531921 c -2.42979,1.167695 -6.929761,3.404381 -7.072668,3.515232 -0.652956,0.506929 -1.169771,1.230962 -1.407846,1.972783 -0.197801,0.616311 -0.158134,1.41853 0.119176,2.408112 0.07525,0.268478 0.18205,0.649259 0.23716,0.846137 0.140008,0.500195 0.496244,1.849403 0.833454,3.156545 0.156981,0.608547 0.435752,1.662832 0.619708,2.343001 0.183964,0.680139 0.522519,1.939497 0.752391,2.798626 0.229872,0.859128 0.463957,1.677131 0.519997,1.817423 0.231833,0.580519 0.693415,1.040702 1.291076,1.287079 0.340485,0.140393 1.110426,0.150501 1.49648,0.01945 0.22074,-0.07495 7.891747,-3.82649 7.956319,-3.891064 0.0077,-0.0077 -0.01476,-0.159894 -0.04966,-0.338854 -0.04766,-0.244186 -0.0039,-1.259328 0.177569,-4.06787 l 0.241525,-3.742468 -0.632823,-2.343001 c -1.486025,-5.502075 -1.395315,-5.234713 -1.958022,-5.753372 -0.459115,-0.423199 -0.804935,-0.555036 -1.463887,-0.557342 z m -0.506891,5.263162 c 0.02937,0.02937 2.03628,7.460799 2.03628,7.540208 0,0.0276 -0.178867,0.13066 -0.397647,0.229212 l -0.397646,0.179166 -2.189641,-2.156662 c -1.204133,-1.186298 -2.196252,-2.151281 -2.204708,-2.143594 -0.0085,0.0077 0.330684,1.300378 0.753983,2.872886 l 0.769879,2.859046 -0.363884,0.177569 c -0.199991,0.09765 -0.378897,0.17839 -0.397647,0.17916 -0.01876,7.68e-4 -0.323418,-1.074681 -0.676917,-2.390278 -0.353506,-1.315522 -0.813083,-3.020327 -1.02133,-3.788208 -0.20824,-0.767874 -0.372018,-1.401696 -0.364276,-1.407846 0.0077,-0.0062 0.191989,-0.101101 0.409561,-0.210147 l 0.395663,-0.198224 2.174959,2.176111 c 1.196369,1.196754 2.184183,2.149668 2.194791,2.117765 0.01059,-0.03191 -0.302555,-1.254792 -0.695982,-2.717601 -0.393426,-1.462734 -0.734004,-2.737129 -0.756765,-2.831605 -0.03813,-0.158442 -0.01237,-0.184894 0.331705,-0.342429 0.205227,-0.09394 0.385116,-0.159126 0.39963,-0.144597 z" />
        <path
           style="fill:#2fa14c;stroke-width:0.06508576"
           inkscape:connector-curvature="0"
           id="path12-6"
           d="m -81.637911,37.344862 c -0.411468,-0.103684 -0.854285,-0.363131 -1.129643,-0.661812 -0.508043,-0.551162 -0.541583,-0.672589 -1.425757,-5.161768 -0.451227,-2.291035 -0.994348,-5.034082 -1.206977,-6.095694 -0.212615,-1.06161 -0.38657,-2.102543 -0.38657,-2.313097 0,-0.511172 0.151839,-1.067146 0.431963,-1.581808 0.418094,-0.768073 1.030017,-1.265939 1.953333,-1.589266 0.281047,-0.09842 2.033974,-0.730467 3.895446,-1.40454 1.86147,-0.674081 3.504854,-1.260788 3.651988,-1.303837 0.150947,-0.04412 0.477087,-0.06611 0.748486,-0.05042 0.596616,0.03452 1.013105,0.222823 1.444975,0.653294 0.552654,0.550855 0.508651,0.392097 1.509087,5.444659 0.403567,2.038126 0.389222,1.735862 0.160941,3.391853 -0.05935,0.430732 -0.165983,1.246259 -0.395633,3.026476 -0.03698,0.286374 -0.09429,0.711057 -0.127455,0.943765 -0.03313,0.232679 -0.07837,0.774492 -0.100461,1.204056 -0.04658,0.905944 0.0316,1.27501 0.399585,1.886148 0.124226,0.206296 0.225866,0.385677 0.225866,0.398638 0,0.08095 -0.945764,0.454279 -3.351877,1.323209 -1.503476,0.542913 -3.041159,1.101277 -3.41699,1.240724 -1.852938,0.68758 -2.315249,0.791789 -2.880264,0.649459 z m 5.509617,-7.052835 c 0.160279,-0.09393 0.395371,-0.297635 0.522419,-0.45268 0.555797,-0.678285 0.574731,-1.31898 0.10897,-3.687581 -0.179498,-0.912786 -0.43523,-2.216161 -0.568296,-2.89633 -0.133059,-0.680147 -0.26395,-1.262326 -0.290863,-1.29369 -0.05988,-0.0698 -0.714071,0.156428 -0.754121,0.260783 -0.01576,0.04098 0.207118,1.262786 0.495221,2.715141 0.288111,1.452278 0.55542,2.844135 0.594026,3.092972 0.08866,0.571486 0.0031,0.926699 -0.295291,1.225042 -0.17939,0.17939 -0.263988,0.215466 -0.505354,0.215466 -0.391273,0 -0.576743,-0.182811 -0.764152,-0.753151 -0.08149,-0.248015 -0.156866,-0.46116 -0.16749,-0.473659 -0.04328,-0.05089 -0.678962,0.342567 -0.678962,0.420224 0,0.04612 0.07256,0.313748 0.161333,0.594649 0.176714,0.559378 0.468868,0.964674 0.827995,1.148708 0.314139,0.16094 0.935694,0.106166 1.314522,-0.115848 z" />
      </g>
    </g>
  </g>
</svg>
