<?xml version="1.0" encoding="UTF-8" standalone="no"?>
<!-- Created with Inkscape (http://www.inkscape.org/) -->

<svg
   xmlns:dc="http://purl.org/dc/elements/1.1/"
   xmlns:cc="http://creativecommons.org/ns#"
   xmlns:rdf="http://www.w3.org/1999/02/22-rdf-syntax-ns#"
   xmlns:svg="http://www.w3.org/2000/svg"
   xmlns="http://www.w3.org/2000/svg"
   xmlns:sodipodi="http://sodipodi.sourceforge.net/DTD/sodipodi-0.dtd"
   xmlns:inkscape="http://www.inkscape.org/namespaces/inkscape"
   width="163.04068mm"
   height="52.639984mm"
   viewBox="0 0 163.04068 52.639984"
   version="1.1"
   id="svg8"
   inkscape:version="0.92.1 r15371"
   sodipodi:docname="radio-maanaim-logo.svg">
  <defs
     id="defs2" />
  <sodipodi:namedview
     id="base"
     pagecolor="#ffffff"
     bordercolor="#666666"
     borderopacity="1.0"
     inkscape:pageopacity="0.0"
     inkscape:pageshadow="2"
     inkscape:zoom="1.4"
     inkscape:cx="369.77414"
     inkscape:cy="3.1069292"
     inkscape:document-units="mm"
     inkscape:current-layer="layer1"
     showgrid="false"
     fit-margin-top="0"
     fit-margin-left="0"
     fit-margin-right="0"
     fit-margin-bottom="0"
     inkscape:window-width="1920"
     inkscape:window-height="1017"
     inkscape:window-x="-8"
     inkscape:window-y="-8"
     inkscape:window-maximized="1" />
  <metadata
     id="metadata5">
    <rdf:RDF>
      <cc:Work
         rdf:about="">
        <dc:format>image/svg+xml</dc:format>
        <dc:type
           rdf:resource="http://purl.org/dc/dcmitype/StillImage" />
        <dc:title></dc:title>
      </cc:Work>
    </rdf:RDF>
  </metadata>
  <g
     inkscape:label="Layer 1"
     inkscape:groupmode="layer"
     id="layer1"
     transform="translate(-58.24507,-148.48224)">
    <path
       style="fill:#8b0304;fill-opacity:1;stroke-width:0.59333205"
       d="m 62.450959,192.44773 c -1.188196,-0.47998 0.104726,-2.38888 5.160341,-7.6186 15.363,-15.89219 29.024066,-32.0564 27.977058,-33.10341 -1.743488,-1.74348 -15.999986,4.32617 -25.591493,10.89553 -5.708075,3.90954 -7.484192,5.85573 -8.084849,8.85897 -0.427312,2.13651 -1.587589,2.84943 -2.884996,1.77266 -2.372334,-1.96884 0.62454,-5.59702 9.384365,-11.36125 14.710293,-9.6798 30.535789,-15.12648 31.160621,-10.72458 0.300453,2.11671 -1.962873,5.21118 -9.655148,13.20081 -12.422637,12.90282 -13.230548,13.87247 -7.445666,8.93606 6.624905,-5.65324 11.969626,-9.15901 17.845058,-11.70516 7.75049,-3.35871 8.41322,-2.03778 2.45724,4.89765 -5.884698,6.85243 -11.528503,13.88274 -11.144786,13.88274 0.183662,0 3.113329,-2.20276 6.510582,-4.89501 7.485964,-5.93244 11.940584,-8.68486 14.809364,-9.1504 1.8695,-0.30337 2.1558,-0.19421 2.1558,0.82251 0,0.64479 -0.56823,1.68096 -1.26274,2.30261 -1.30101,1.16458 -11.19723,13.66853 -11.19723,14.14783 0,0.34285 5.96477,-1.70113 7.80366,-2.67411 0.76615,-0.40538 2.53431,-1.73643 3.92924,-2.9579 4.78396,-4.189 7.75588,-4.79002 10.66538,-2.15688 1.65603,1.49874 1.66937,2.19621 0.0807,4.21591 -2.23879,2.84615 -0.74108,2.27797 3.11981,-1.18356 5.75454,-5.1593 8.52127,-5.86659 11.62255,-2.97115 1.70568,1.59246 1.67821,2.23339 -0.19083,4.45462 -0.84485,1.00402 -1.2964,1.82552 -1.00344,1.82552 0.87447,0 7.26333,-4.01035 9.4563,-5.93582 1.69243,-1.48596 2.24149,-1.68101 3.23515,-1.1492 1.143,0.61171 1.08844,0.75804 -1.21426,3.25615 -1.32606,1.43864 -2.41104,2.74977 -2.41104,2.91364 0,0.16392 2.03677,-1.03167 4.52613,-2.65673 4.21748,-2.75323 6.74719,-3.66551 6.74719,-2.43325 0,0.2868 -0.93206,2.06926 -2.07121,3.961 -1.13915,1.89177 -1.98196,3.52883 -1.87286,3.6379 0.6643,0.6643 6.39877,-2.36269 9.40621,-4.96513 5.87557,-5.08441 8.53923,-5.75315 11.58589,-2.9087 1.63842,1.52967 1.66284,2.15634 0.15854,4.06871 -0.65264,0.82973 -1.18665,1.67123 -1.18665,1.87001 0,0.77104 5.77589,-2.62444 8.39768,-4.93676 2.62063,-2.31127 3.99507,-2.89794 4.83092,-2.06204 0.20519,0.20519 -1.61008,2.52837 -4.03402,5.16261 -2.42393,2.63421 -4.3087,4.88794 -4.18836,5.00827 0.28542,0.28545 4.77559,-2.01198 7.44048,-3.80698 1.14947,-0.77425 2.87538,-2.47332 3.83542,-3.7757 1.67872,-2.27741 3.41995,-3.0171 4.18565,-1.77814 0.20048,0.32443 -0.38448,1.579 -1.29994,2.78797 l -1.66453,2.19813 3.43475,-2.78796 c 3.09393,-2.51133 5.16855,-3.47103 5.16855,-2.39095 0,0.21842 -0.80327,1.82036 -1.78506,3.56 -0.98178,1.73963 -1.63991,3.16297 -1.46253,3.16297 0.17739,0 2.62339,-1.7355 5.43557,-3.85665 4.70645,-3.55004 7.30535,-4.7181 7.30535,-3.28336 0,0.31532 -1.068,2.22572 -2.37334,4.24531 -1.30531,2.01961 -2.3733,3.92655 -2.3733,4.23768 0,0.91732 2.85306,-0.0366 9.34496,-3.12421 6.2256,-2.96104 8.06875,-3.05859 3.55999,-0.18837 -3.13207,1.9938 -13.87733,6.71629 -15.28184,6.71629 -0.57081,0 -1.3946,-0.42989 -1.83065,-0.95531 -0.6722,-0.80993 -0.59266,-1.3208 0.52282,-3.3572 1.05185,-1.92029 1.10699,-2.22204 0.27517,-1.50491 -4.08727,3.52378 -8.04818,6.41077 -8.79548,6.41077 -1.61245,0 -1.58453,-1.7282 0.0742,-4.59101 1.24505,-2.14881 1.36616,-2.59865 0.50567,-1.878 -6.301,5.27689 -9.54608,7.65566 -10.44367,7.65566 -1.41991,0 -1.36217,-0.29023 0.56045,-2.81624 l 1.63166,-2.14376 -2.94721,2.24702 c -3.37859,2.57591 -5.26302,3.41991 -6.54094,2.92954 -1.34845,-0.51746 -1.07867,-2.53393 0.64053,-4.78793 l 1.5357,-2.0134 -2.90256,1.62056 c -3.20022,1.78674 -5.26917,1.63416 -4.75021,-0.35035 0.21977,-0.84018 -0.7348,-0.35378 -3.5697,1.81904 -3.05529,2.34176 -4.25916,2.92798 -5.7209,2.78572 -1.65801,-0.16147 -1.8507,-0.38175 -1.84546,-2.11048 0.002,-1.06165 -0.13163,-1.86266 -0.29944,-1.78 -4.72718,2.32699 -8.55472,2.63846 -9.27748,0.75497 -0.17806,-0.4638 0.43422,-1.8451 1.36042,-3.06956 l 1.68399,-2.22625 -2.89499,1.98182 c -1.59225,1.09 -4.28437,3.11348 -5.98247,4.4966 -2.93157,2.38781 -5.17815,3.84937 -5.91683,3.84937 -1.11444,0 0.0435,-2.53052 2.38032,-5.20185 1.4938,-1.70763 2.57108,-3.10481 2.39395,-3.10481 -0.17716,0 -1.58512,0.801 -3.12885,1.78 -1.54372,0.97901 -3.45311,1.77999 -4.24311,1.77999 -1.1975,0 -1.39092,-0.23755 -1.16319,-1.42875 0.24692,-1.29169 -0.0953,-1.14633 -3.56784,1.51518 -3.02769,2.3206 -4.23241,2.90578 -5.68969,2.76377 -1.42817,-0.13927 -1.91679,-0.51762 -2.14799,-1.66353 -0.22336,-1.10686 -0.67572,-1.48333 -1.78258,-1.48333 -1.13211,0 -1.47387,-0.30034 -1.44337,-1.26841 0.0352,-1.11538 -0.41659,-0.91849 -3.74379,1.63165 -5.45545,4.1814 -9.14542,3.82006 -7.42893,-0.72747 l 0.63133,-1.67256 -2.75928,1.39723 c -4.22236,2.1381 -8.720086,3.34139 -9.515731,2.54574 -0.363108,-0.3631 -0.660174,-0.86249 -0.660174,-1.10977 0,-0.24728 2.681757,-3.81131 5.959435,-7.92007 4.52809,-5.67617 5.55012,-7.2588 4.25522,-6.58918 -2.44064,1.26213 -10.184807,7.16037 -16.741315,12.75085 -3.397994,2.89733 -6.16685,4.80862 -6.971643,4.81239 -1.813298,0.009 -1.715659,-1.45358 0.273183,-4.09107 2.506997,-3.32461 12.451475,-14.7816 16.443825,-18.94485 l 3.60462,-3.75891 -2.37334,0.96707 c -7.49689,3.05477 -15.8782,9.43026 -28.254843,21.49284 -4.793622,4.67199 -8.941289,8.47344 -9.217051,8.44767 -0.275739,-0.0258 -0.832982,-0.18075 -1.238294,-0.34454 z m 57.929211,-12.94377 c 3.45455,-2.86526 3.74446,-3.8386 1.15041,-3.8624 -1.27933,-0.0112 -6.97786,5.21796 -8.46063,7.76451 l -1.14451,1.96563 2.44791,-1.45795 c 1.34636,-0.80187 4.04942,-2.78628 6.00682,-4.40979 z m 11.33757,2.73221 c 1.14218,-0.83489 3.2024,-2.52594 4.57828,-3.75789 2.49493,-2.23395 2.49762,-2.24092 1.0129,-2.61356 -1.20881,-0.30339 -2.1053,0.16953 -4.76829,2.51538 -1.80376,1.58898 -3.84347,3.79223 -4.53268,4.89611 l -1.2531,2.00707 1.44311,-0.76456 c 0.79371,-0.42052 2.37762,-1.44766 3.51978,-2.28255 z m 39.68899,-2.73221 c 3.45453,-2.86526 3.74446,-3.8386 1.15043,-3.8624 -1.27933,-0.0112 -6.97787,5.21796 -8.46065,7.76451 l -1.14451,1.96563 2.44791,-1.45795 c 1.34636,-0.80187 4.04942,-2.78628 6.00682,-4.40979 z m 18.06895,-7.32986 c 1.56654,-1.731 1.14122,-2.87482 -0.9464,-2.54521 -0.24473,0.0386 -0.44496,-0.19174 -0.44496,-0.51177 0,-0.88014 3.01925,-1.45478 4.0968,-0.77974 2.31953,1.45315 0.5289,4.92178 -2.54081,4.92178 -1.07323,0 -1.08376,-0.0695 -0.1646,-1.08506 z"
       id="path4496-4"
       inkscape:connector-curvature="0"
       sodipodi:nodetypes="ccssccccccccsccscscccccccscccscscccccsccccsccccsscscscsccscccsccsccccccsccccccccccscscsccccscccccssccccccccscccccccsccsccccccscccssccscscc" />
    <path
       style="fill:#f7941e;fill-opacity:1;stroke-width:0.66681081"
       d="m 125.091,160.25616 c 8.59637,-1.89304 15.91495,-4.36815 22.85858,-7.73069 l 6.10717,-2.95749 5.89542,2.91605 c 6.4492,3.18996 14.12286,5.79134 22.8991,7.76285 l 7.31614,0.97356 -6.64933,-0.0321 c -7.18804,-0.47692 -16.65219,-2.17652 -22.91639,-4.11542 -6.63385,-2.05332 -6.81258,-2.05334 -13.42478,-0.001 -6.10776,1.89557 -15.72254,3.6244 -23.00497,4.13654 l -6.72424,-0.0229 z"
       id="path4496-8-5"
       inkscape:connector-curvature="0"
       sodipodi:nodetypes="cccccccccccc" />
    <path
       style="fill:#f7941e;fill-opacity:1;stroke-width:0.37356287"
       d="m 110.76657,154.47 c 4.81589,-1.06053 8.91592,-2.44714 12.80591,-4.33092 l 3.42138,-1.65684 3.30275,1.63363 c 3.61299,1.78712 7.91196,3.24445 12.82861,4.34893 l 3.17528,0.71332 -2.80172,-0.1859 c -4.02691,-0.26724 -9.32895,-1.2193 -12.83829,-2.30553 -3.71645,-1.15035 -3.81657,-1.15035 -7.52088,-6.5e-4 -3.42171,1.06189 -8.80813,2.03044 -12.88792,2.31734 l -2.80173,0.19712 3.31661,-0.73036 z"
       id="path4496-8-5-5"
       inkscape:connector-curvature="0"
       sodipodi:nodetypes="ccccccccccccc" />
    <path
       style="fill:#f7941e;fill-opacity:1;stroke-width:0.354673"
       d="m 178.8158,163.6555 c 4.57238,-1.00691 8.46509,-2.3234 12.15836,-4.11194 l 3.24837,-1.57306 3.13575,1.55101 c 3.43031,1.69676 7.51189,3.08039 12.17993,4.12903 l 3.0147,0.67727 -2.66004,-0.17671 c -3.82329,-0.25365 -8.85722,-1.15766 -12.18913,-2.18897 -3.52848,-1.09215 -3.62357,-1.09215 -7.14057,-6.3e-4 -3.24866,1.00822 -8.36272,1.92776 -12.23619,2.20018 l -2.66005,0.18703 3.14887,-0.69343 z"
       id="path4496-8-5-5-5"
       inkscape:connector-curvature="0"
       sodipodi:nodetypes="ccccccccccccc" />
    <path
       style="fill:#8b0304;fill-opacity:1;stroke-width:0.05424835"
       d="m 164.70078,170.39978 c -1.65751,-0.22634 -2.4133,-0.79332 -2.79906,-2.1005 -0.10271,-0.3475 -0.11885,-0.54644 -0.11885,-1.44822 0,-0.90591 0.0179,-1.09991 0.12064,-1.45382 0.32039,-1.08652 1.01696,-1.70254 2.21168,-1.95597 0.64495,-0.13679 2.45962,-0.12087 3.0431,0.028 1.16577,0.29501 1.7954,0.8895 2.11588,1.99773 0.14038,0.48557 0.13948,2.27012 -0.002,2.79117 -0.30496,1.12648 -1.03779,1.805 -2.21159,2.0477 -0.37818,0.0783 -2.00326,0.14352 -2.35973,0.0949 z m 2.06085,-1.00811 c 0.63627,-0.18747 1.06863,-0.62936 1.25859,-1.28614 0.14173,-0.4908 0.17447,-1.57634 0.065,-2.1584 -0.20003,-1.06141 -0.69538,-1.5311 -1.7797,-1.68727 -0.46546,-0.0673 -1.33136,-0.0408 -1.78173,0.0538 -0.65315,0.13724 -1.14978,0.56955 -1.34501,1.17052 -0.1415,0.43487 -0.21147,1.11837 -0.17402,1.69831 0.0944,1.467 0.59613,2.10256 1.82357,2.30981 0.45839,0.0776 1.51621,0.0224 1.93338,-0.10069 z m -26.67909,-1.61283 c 0.02,-2.21225 0.036,-2.58948 0.12016,-2.86177 0.33472,-1.08212 1.16673,-1.53879 2.80772,-1.54103 l 0.66155,-7.9e-4 v 0.43759 0.43756 l -0.60555,0.0224 c -0.99967,0.0384 -1.4177,0.28787 -1.6519,0.98644 -0.0988,0.29475 -0.10726,0.50629 -0.10726,2.69348 v 2.37362 h -0.62394 -0.62395 z m 4.9253,2.44727 c -0.17875,-0.0536 -0.40744,-0.15607 -0.50816,-0.2273 -0.54035,-0.38264 -0.80434,-1.56063 -0.57498,-2.56566 0.13651,-0.59821 0.43469,-0.96975 0.95776,-1.19346 0.27409,-0.11706 0.33318,-0.12088 2.23801,-0.13657 l 1.95649,-0.0179 v -0.56083 c 0,-0.70498 -0.11309,-0.96157 -0.50457,-1.14483 -0.24615,-0.11527 -0.29064,-0.11728 -2.20985,-0.11728 h -1.95864 v -0.44701 -0.447 l 2.2943,0.0135 2.29431,0.0135 0.32115,0.14667 c 0.37065,0.16886 0.56662,0.36407 0.77166,0.7683 l 0.14586,0.28752 0.0159,2.52765 c 0.0157,2.44362 0.0123,2.53494 -0.0973,2.74528 -0.22311,0.42788 -0.19285,0.42287 -2.64946,0.43586 -1.98322,0.0112 -2.19527,0.002 -2.49266,-0.0863 z m 3.94399,-0.86906 c 0.12285,-0.0801 0.12516,-0.10248 0.12516,-1.22836 v -1.14698 h -1.63457 c -2.05916,0 -2.09847,0.0135 -2.28357,0.68177 -0.19252,0.69686 0.009,1.48917 0.42742,1.68334 0.17301,0.0803 0.38281,0.0915 1.71875,0.0915 1.28624,7e-5 1.54107,-0.0135 1.64683,-0.0814 z m 4.70261,0.91374 c -1.15756,-0.18479 -1.80883,-0.80735 -2.08333,-1.99149 -0.13792,-0.59469 -0.13816,-2.29255 -4.6e-4,-2.86073 0.19687,-0.81278 0.66179,-1.4408 1.28133,-1.73114 0.54339,-0.25448 1.01541,-0.31229 2.55656,-0.31229 h 1.38181 v -1.09766 -1.09767 h 0.59243 0.5925 l -0.0135,4.2469 -0.0134,4.24689 -0.12738,0.22112 c -0.22923,0.39838 -0.26428,0.40506 -2.18114,0.41452 -0.92902,0.004 -1.82078,-0.0134 -1.98175,-0.0386 z m 2.97481,-0.93226 0.13276,-0.10002 0.0135,-2.4922 0.0135,-2.49219 -1.36827,0.0179 -1.36827,0.0179 -0.3821,0.17491 c -0.64762,0.29611 -0.84086,0.65547 -0.95292,1.77231 -0.0475,0.47443 -0.048,0.80618 -0.002,1.28061 0.0973,0.99485 0.34084,1.46551 0.88472,1.70994 0.37427,0.16841 0.64676,0.19891 1.81368,0.20541 0.98235,0.004 1.08934,-0.002 1.21051,-0.094 z m 2.75096,-2.48747 v -3.47592 h 0.59117 0.5912 v 3.47592 3.47592 h -0.5912 -0.59117 z m -12.92549,-4.20801 c -0.17649,-0.20272 -0.31106,-0.37605 -0.29909,-0.38506 0.0121,-0.007 0.44316,-0.33669 0.95817,-0.72817 0.51502,-0.39148 0.96171,-0.71859 0.99265,-0.72691 0.0557,-0.0135 0.6327,0.61517 0.6327,0.69101 0,0.0314 -0.93969,0.75963 -1.83837,1.42507 -0.12423,0.0919 -0.12775,0.0899 -0.44606,-0.27603 z m 12.92549,-0.86216 v -0.60108 h 0.59117 0.5912 v 0.60108 0.60109 h -0.5912 -0.59117 z"
       id="path4836"
       inkscape:connector-curvature="0" />
    <path
       style="fill:#8b0304;fill-opacity:1;stroke-width:0.12142611"
       d="m 123.69399,200.94615 c -1.08748,-0.3347 -1.4726,-1.23569 -1.1992,-2.80563 0.31246,-1.79428 0.84721,-2.74782 1.80586,-3.22008 0.4921,-0.24241 0.75153,-0.2793 1.96343,-0.2793 1.20648,0 1.46432,0.0363 1.89575,0.26717 0.7344,0.39289 0.94523,0.9178 0.8645,2.15226 -0.13872,2.12119 -0.93799,3.49045 -2.26621,3.88231 -0.80678,0.23799 -2.29632,0.23959 -3.06413,0.002 z m 2.72992,-0.71319 c 0.89989,-0.32095 1.27043,-0.88916 1.60985,-2.46863 0.36301,-1.68935 0.0213,-2.29375 -1.37244,-2.42003 -0.97778,-0.0888 -1.88963,0.14016 -2.33536,0.58579 -0.48488,0.48488 -0.86542,1.56631 -0.94416,2.68308 -0.0772,1.0935 0.0906,1.47607 0.7276,1.66002 0.58472,0.16886 1.78681,0.14801 2.31451,-0.0404 z m -57.715802,0.60588 c 0,-0.31009 1.087732,-5.3335 1.231253,-5.68627 0.07577,-0.18613 0.235939,-0.39112 0.355956,-0.45535 0.283353,-0.15159 3.768204,-0.15226 4.166809,-4.7e-4 0.742319,0.28222 0.862915,1.56842 0.268745,2.86625 -0.352212,0.76934 -0.824261,1.02461 -1.894775,1.02461 h -0.753068 l 0.771421,0.8626 c 0.424277,0.47443 0.89832,1.02086 1.053426,1.21426 l 0.282009,0.35165 h -0.548535 c -0.543617,0 -0.557917,-0.009 -1.595863,-1.2095 -0.856896,-0.98958 -1.040262,-1.27108 -1.00845,-1.54817 l 0.03888,-0.33871 1.153548,-0.0605 c 0.63445,-0.0334 1.252254,-0.1193 1.372892,-0.19084 0.518124,-0.30726 0.772002,-1.99958 0.335054,-2.23343 -0.360056,-0.19263 -2.982843,-0.16303 -3.147677,0.0357 -0.07358,0.0888 -0.390971,1.37271 -0.705316,2.85351 l -0.571532,2.69229 H 69.1105 c -0.271728,0 -0.40239,-0.0576 -0.40239,-0.17715 z m 7.086063,0.057 c -0.453984,-0.18321 -0.650592,-0.6055 -0.649038,-1.3941 0.0029,-1.40464 0.527139,-2.6844 1.253931,-3.06023 0.577011,-0.29838 1.911612,-0.35788 2.550915,-0.11369 0.67865,0.25919 0.855327,0.59364 0.781822,1.48001 -0.08134,0.98081 -0.16801,1.02282 -2.112434,1.02282 h -1.606396 l -0.0766,0.34868 c -0.102528,0.46678 0.03512,0.9666 0.306128,1.11162 0.1215,0.0648 0.817976,0.11818 1.547735,0.11818 h 1.326831 l -0.05804,0.30355 -0.05804,0.30357 -1.473316,-0.007 c -0.810322,-0.002 -1.590412,-0.0549 -1.73353,-0.1128 z m 3.12779,-3.00631 c 0.278307,-0.71776 -0.493154,-1.26536 -1.513112,-1.07401 -0.561735,0.1054 -1.023805,0.50694 -1.165985,1.0133 l -0.110802,0.39462 h 1.330215 1.330215 z m 1.470855,3.04545 c -0.08488,-0.0343 -0.240277,-0.22836 -0.34531,-0.43137 -0.359246,-0.69473 0.07896,-2.02787 0.75046,-2.2832 0.171261,-0.065 0.883311,-0.1184 1.582296,-0.1184 0.910811,0 1.284127,-0.0431 1.31764,-0.15182 0.326424,-1.05954 0.172247,-1.18389 -1.467902,-1.18389 -1.252507,0 -1.274071,-0.004 -1.235944,-0.27321 0.03752,-0.26419 0.08797,-0.27432 1.528039,-0.30731 1.445805,-0.033 1.49804,-0.0253 1.791036,0.26769 0.386749,0.38676 0.381799,0.62741 -0.05391,2.62174 -0.24264,1.11061 -0.42371,1.6779 -0.569628,1.7846 -0.211693,0.15473 -2.943998,0.21707 -3.296775,0.0751 z m 2.963447,-1.25442 c 0.239853,-1.02988 0.298874,-0.97141 -0.980833,-0.97141 -1.276352,0 -1.440679,0.0964 -1.598597,0.9382 -0.125447,0.66876 0.06743,0.77562 1.328053,0.73572 l 1.095845,-0.0348 z m 1.421739,1.06248 c 0.03738,-0.15025 0.34343,-1.57963 0.680097,-3.17639 0.336664,-1.59676 0.634598,-2.9257 0.662073,-2.95317 0.02749,-0.0276 0.207724,-0.0323 0.400529,-0.0112 l 0.350581,0.039 -0.669422,3.18742 -0.66942,3.18742 h -0.411205 c -0.365629,0 -0.403673,-0.0303 -0.343233,-0.2732 z m 1.70234,0 c 0.03981,-0.15025 0.274312,-1.24309 0.521156,-2.42851 l 0.448811,-2.15533 h 0.41669 c 0.281028,0 0.399224,0.0493 0.363028,0.1516 -0.02951,0.0834 -0.265637,1.17631 -0.524717,2.42853 l -0.471054,2.27674 h -0.41313 c -0.368918,0 -0.405386,-0.0292 -0.340784,-0.27321 z m 1.531533,0.0872 c -0.267741,-0.32258 0.02992,-0.69392 1.847328,-2.30474 0.955748,-0.84713 1.755941,-1.58952 1.7782,-1.64982 0.02265,-0.061 -0.580534,-0.10966 -1.366042,-0.10966 -1.045256,0 -1.406041,-0.039 -1.40466,-0.15159 0.0052,-0.42525 0.175746,-0.4627 1.950266,-0.42846 l 1.751371,0.0336 0.03711,0.38179 c 0.03447,0.35481 -0.09674,0.50053 -1.858884,2.06423 l -1.895972,1.68247 1.536526,0.0339 c 1.329928,0.0296 1.526808,0.0592 1.464248,0.22246 -0.03976,0.10361 -0.07228,0.23854 -0.07228,0.29987 0,0.0628 -0.790401,0.11145 -1.806525,0.11145 -1.473207,0 -1.834963,-0.0343 -1.960672,-0.18568 z m 4.793797,-0.11235 c -0.22248,-0.22245 -0.298046,-0.42823 -0.298046,-0.81163 0,-0.65179 0.397719,-1.48264 0.796775,-1.66444 0.17227,-0.0785 0.889902,-0.14016 1.631957,-0.14016 h 1.324472 l 0.08344,-0.4448 c 0.141659,-0.75508 0.01727,-0.82572 -1.523574,-0.8646 -1.173309,-0.0294 -1.35441,-0.0608 -1.292379,-0.22246 0.03967,-0.10338 0.07214,-0.23813 0.07214,-0.29949 0,-0.14868 2.869639,-0.14397 3.148409,0.004 0.506342,0.27096 0.527643,0.69009 0.129886,2.55555 -0.20593,0.96578 -0.461339,1.84805 -0.569646,1.96774 -0.168413,0.18612 -0.410414,0.21707 -1.700867,0.21707 -1.435497,0 -1.5182,-0.0135 -1.802572,-0.29805 z m 2.931649,-0.44978 c 0.04781,-0.0774 0.153545,-0.45985 0.234964,-0.84996 l 0.148006,-0.7093 -1.108138,10e-4 c -1.185576,0.001 -1.299072,0.0354 -1.514954,0.44552 -0.151572,0.28796 -0.189268,1.04102 -0.05866,1.17163 0.145001,0.14509 2.205312,0.0915 2.298764,-0.0599 z m 1.627349,0.57875 c 0,-0.45012 0.867701,-4.15049 1.032072,-4.40136 0.177294,-0.27056 0.257973,-0.28659 1.441841,-0.28659 0.689717,0 1.427287,0.0603 1.639007,0.13432 0.7361,0.25659 0.78177,0.74364 0.29194,3.11394 l -0.33247,1.60889 h -0.41012 c -0.36415,0 -0.4026,-0.0307 -0.34322,-0.27321 0.0368,-0.15025 0.21586,-0.99644 0.39779,-1.88044 0.32085,-1.55845 0.32418,-1.61461 0.1097,-1.85173 -0.18566,-0.20519 -0.37335,-0.24452 -1.16671,-0.24452 -0.519987,0 -0.974894,0.0478 -1.010911,0.10584 -0.03601,0.0583 -0.230529,0.89156 -0.432216,1.85176 -0.201692,0.96018 -0.395064,1.86873 -0.429699,2.01898 -0.04797,0.20811 -0.149172,0.27323 -0.424932,0.27323 -0.228383,0 -0.361967,-0.0626 -0.361967,-0.16909 z m 5.86656,-0.0677 c -0.21279,-0.12984 -0.44502,-0.34452 -0.51607,-0.47726 -0.18519,-0.34586 -0.15924,-1.30496 0.0576,-2.13731 0.40694,-1.56234 1.02697,-2.00566 2.80516,-2.00566 h 1.09378 l 0.13848,-0.74439 c 0.0762,-0.40939 0.16254,-0.76842 0.1918,-0.79784 0.0295,-0.0294 0.21138,-0.0359 0.40454,-0.0135 l 0.35107,0.039 -0.56674,2.69238 c -0.70869,3.36674 -0.68175,3.26342 -0.91018,3.49187 -0.30314,0.30314 -2.53184,0.26937 -3.0494,-0.0462 z m 2.47598,-0.52211 c 0.0958,-0.12603 0.76651,-3.10745 0.76491,-3.39994 -8.8e-4,-0.1637 -1.57605,-0.0955 -2.01295,0.087 -0.55473,0.2319 -0.89868,0.99072 -0.98876,2.18161 -0.0625,0.82663 -0.0486,0.89514 0.21939,1.0828 0.35228,0.24676 1.83977,0.28253 2.01752,0.0487 z m 2.88269,0.62919 c -0.96731,-0.28112 -1.26314,-1.35128 -0.79739,-2.88466 0.42652,-1.40418 1.28371,-1.92457 2.98974,-1.81498 1.44597,0.0926 1.88211,0.49068 1.88211,1.71667 0,1.46958 -0.72171,2.68805 -1.76342,2.97725 -0.56524,0.15697 -1.78044,0.15989 -2.31104,0.004 z m 2.12922,-0.69009 c 0.56663,-0.28471 0.90874,-0.83128 1.08682,-1.73649 0.25568,-1.29959 -0.21963,-1.79594 -1.59331,-1.66393 -1.0893,0.10473 -1.65573,0.81715 -1.76873,2.2248 -0.0663,0.82493 0.0363,1.07966 0.51274,1.27276 0.42706,0.17313 1.32287,0.12379 1.76248,-0.0973 z m 4.6937,0.56814 c -0.26981,-0.21237 -0.31994,-0.34728 -0.31994,-0.862 0,-0.33566 0.0894,-0.79856 0.19864,-1.02864 0.30352,-0.63964 0.68279,-0.77192 2.21331,-0.77192 h 1.33105 l 0.0828,-0.4899 c 0.13069,-0.77416 9.1e-4,-0.84577 -1.5334,-0.84577 -0.72645,0 -1.32082,-0.0502 -1.32082,-0.11167 0,-0.45618 0.12621,-0.49562 1.58475,-0.49562 1.32196,0 1.46326,0.0202 1.75984,0.27738 0.40079,0.34471 0.40935,0.68934 0.058,2.33324 -0.35119,1.6428 -0.46908,1.98472 -0.73287,2.12591 -0.12385,0.0664 -0.84976,0.12064 -1.61315,0.12064 -1.22035,0 -1.42667,-0.0305 -1.70797,-0.25167 z m 2.88252,-0.45209 c 0.0328,-0.0532 0.138,-0.43566 0.23378,-0.84998 l 0.17411,-0.75335 h -1.12863 c -1.26446,0 -1.41967,0.0776 -1.6221,0.81069 -0.21279,0.77082 -0.0529,0.88927 1.2018,0.88927 0.59477,0 1.10827,-0.0435 1.14111,-0.0964 z m 11.20519,0.52293 c -0.1104,-0.11033 -0.20075,-0.26522 -0.20075,-0.34398 0,-0.12715 0.50234,-2.55799 1.03955,-5.03043 0.1866,-0.85936 0.20005,-0.88035 0.5628,-0.88035 0.36898,0 0.37097,0.002 0.28948,0.51607 -0.0451,0.28382 -0.11275,0.63901 -0.15004,0.78926 -0.0661,0.26544 -0.0418,0.27323 0.85969,0.27323 1.67956,0 2.22913,0.49263 2.09199,1.87539 -0.13352,1.34692 -0.49012,2.13216 -1.21086,2.66689 -0.29002,0.21505 -0.55164,0.26022 -1.71164,0.29439 -1.14804,0.0336 -1.40174,0.007 -1.5701,-0.16034 z m 2.93574,-0.83159 c 0.40098,-0.38417 0.7491,-1.42687 0.7491,-2.24368 0,-0.7919 -0.28205,-0.9938 -1.38821,-0.9938 -0.75399,0 -0.91315,0.035 -0.96713,0.21259 -0.12197,0.40139 -0.68031,3.0855 -0.68031,3.27071 0,0.15429 0.1616,0.17783 0.96401,0.14151 0.86236,-0.0393 1.00185,-0.0801 1.32254,-0.38726 z m 1.76239,0.73922 c 0.0375,-0.15025 0.21138,-0.95623 0.38644,-1.79103 0.47222,-2.25231 0.80987,-2.68344 2.16933,-2.77002 0.76889,-0.0489 0.7733,-0.0473 0.71588,0.25304 -0.0491,0.2561 -0.14083,0.31162 -0.60038,0.36343 -0.97746,0.1101 -1.13591,0.38649 -1.63533,2.85174 l -0.27672,1.36605 h -0.41371 c -0.36829,0 -0.40623,-0.03 -0.34551,-0.27321 z m 2.92754,-0.0249 c -0.47739,-0.47737 -0.32817,-1.7099 0.27572,-2.2779 0.26611,-0.25029 0.43424,-0.28164 1.71214,-0.31909 0.89867,-0.0265 1.44982,-0.0928 1.50655,-0.18209 0.17079,-0.26827 0.10287,-1.02156 -0.0988,-1.09901 -0.10569,-0.0406 -0.73402,-0.0736 -1.3964,-0.0736 -1.20367,0 -1.20433,-1.8e-4 -1.20433,-0.30357 v -0.30359 h 1.52335 c 1.45547,0 1.53662,0.0135 1.82138,0.29807 0.3717,0.3717 0.37092,0.5568 -0.009,2.33323 -0.51119,2.38521 -0.34521,2.22576 -2.31698,2.22576 -1.44626,0 -1.52812,-0.0134 -1.81271,-0.29803 z m 3.08721,-0.76443 c 0.0639,-0.25044 0.1524,-0.6329 0.19651,-0.84996 l 0.0804,-0.39466 H 139.346 c -1.2969,0 -1.50096,0.11235 -1.62792,0.89463 -0.11322,0.69729 0.0621,0.80536 1.30607,0.80536 h 1.07329 z m 4.54564,0.88476 c -0.57455,-0.24988 -0.81107,-0.8006 -0.72867,-1.69664 0.12103,-1.31721 0.49206,-2.13162 1.21504,-2.66792 0.28439,-0.21102 0.55504,-0.26098 1.59716,-0.29512 l 1.25474,-0.041 0.14698,-0.77856 c 0.1465,-0.77598 0.14838,-0.77856 0.56046,-0.77856 0.37807,0 0.40716,0.0256 0.339,0.29705 -0.041,0.16348 -0.3365,1.53935 -0.65667,3.05778 -0.43296,2.05329 -0.6382,2.80173 -0.80095,2.92074 -0.30062,0.21999 -2.41021,0.20721 -2.92701,-0.0179 z m 2.36086,-0.58119 c 0.10877,-0.13567 0.75802,-3.00616 0.75802,-3.35166 0,-0.21551 -1.52554,-0.17582 -2.00615,0.0523 -0.41628,0.19756 -0.66453,0.5987 -0.89584,1.44772 -0.27018,0.9918 -0.13186,1.74634 0.35203,1.91926 0.37233,0.13298 1.67033,0.0843 1.79194,-0.0675 z m 2.82647,0.60028 c -0.24232,-0.0834 -0.54369,-0.32519 -0.71052,-0.56992 -0.25577,-0.37517 -0.2821,-0.51983 -0.22459,-1.23396 0.11937,-1.48482 0.75707,-2.49076 1.75437,-2.76776 0.80539,-0.22358 1.97926,-0.1572 2.58115,0.14644 0.72539,0.3658 0.91847,0.90472 0.72427,2.02147 -0.23569,1.3547 -0.83592,2.1692 -1.79513,2.43561 -0.59683,0.16573 -1.80364,0.14936 -2.32948,-0.0318 z m 2.17905,-0.66116 c 0.54836,-0.27552 0.9258,-0.85312 1.09731,-1.67936 0.19711,-0.94939 0.0751,-1.36665 -0.46595,-1.5927 -0.54814,-0.22907 -1.5748,-0.16101 -2.02552,0.13455 -0.5662,0.371 -1.05861,1.89376 -0.86359,2.67075 0.15924,0.63467 1.40929,0.89312 2.25775,0.46684 z m 4.25419,0.60731 c 0.004,-0.47391 0.13993,-0.50876 2.11536,-0.5432 1.896,-0.033 1.928,-0.0381 2.14465,-0.33714 0.55536,-0.76656 0.35051,-1.2737 -0.63353,-1.56851 -1.48044,-0.44359 -2.4232,-0.88971 -2.59919,-1.23002 -0.2504,-0.4842 -0.22335,-1.04052 0.081,-1.66935 0.38248,-0.7901 0.67838,-0.87489 3.0541,-0.87489 h 1.98638 l -0.0536,0.3643 -0.0536,0.36427 h -1.84713 c -1.76098,0 -1.85874,0.0112 -2.09568,0.27321 -0.34084,0.37465 -0.41749,0.8979 -0.17267,1.17873 0.10831,0.12423 0.79784,0.43334 1.53246,0.68695 1.62294,0.56025 2.00479,0.87444 2.00089,1.64634 -0.002,0.71747 -0.37809,1.49701 -0.83177,1.7316 -0.29285,0.15137 -0.80195,0.19017 -2.49875,0.19017 -1.9493,0 -2.13086,-0.0179 -2.12915,-0.21259 z m 6.78441,0.0323 c -0.17424,-0.0958 -0.38701,-0.34291 -0.47238,-0.54904 -0.20273,-0.48905 -0.0919,-1.6863 0.2368,-2.56526 0.4218,-1.12735 1.10608,-1.56256 2.45686,-1.56256 1.38197,0 1.99577,0.51284 1.89304,1.58176 -0.0989,1.02929 -0.21932,1.08964 -2.17672,1.08964 h -1.68114 v 0.60023 c 0,0.87162 0.20249,0.97827 1.85684,0.97827 1.29642,0 1.31649,0.002 1.2783,0.27323 -0.0375,0.26495 -0.0845,0.27404 -1.55662,0.30061 -1.13251,0.0202 -1.59835,-0.0157 -1.83498,-0.14688 z m 3.27179,-2.95889 c 0.10338,-0.72918 -0.29223,-1.11083 -1.15098,-1.11083 -0.62678,0 -1.20858,0.32007 -1.42998,0.78665 -0.3212,0.67684 -0.31276,0.68146 1.1745,0.64407 1.33026,-0.0334 1.3671,-0.0417 1.40646,-0.31989 z m 0.94286,2.92659 c 0.0276,-0.11683 0.24266,-1.11177 0.47828,-2.21083 0.255,-1.18936 0.51168,-2.09031 0.6341,-2.22556 0.18299,-0.20227 0.36214,-0.2229 1.62589,-0.18725 1.30759,0.0366 1.44505,0.0632 1.73322,0.33427 0.40755,0.38332 0.4032,0.82222 -0.0283,2.86271 l -0.33384,1.57853 -0.39098,0.0379 c -0.21484,0.0202 -0.39096,-0.007 -0.39096,-0.0623 0,-0.0552 0.16392,-0.86393 0.36429,-1.79715 0.20026,-0.9332 0.36425,-1.73844 0.36425,-1.78941 0,-0.0509 -0.10921,-0.20183 -0.24284,-0.33551 -0.19981,-0.1998 -0.40477,-0.24286 -1.15615,-0.24286 -0.83291,0 -0.92318,0.024 -1.02552,0.2732 -0.0904,0.22022 -0.85398,3.72785 -0.85398,3.9232 0,0.0294 -0.18613,0.0536 -0.41361,0.0536 -0.332,0 -0.40381,-0.0419 -0.36378,-0.21259 z m 5.03308,0 c 0.002,-0.11683 0.29041,-1.55123 0.63822,-3.18746 l 0.63246,-2.97492 0.40928,-0.0393 c 0.37465,-0.0359 0.40334,-0.0157 0.339,0.24284 -0.0388,0.15519 -0.10742,0.51428 -0.15249,0.79812 l -0.0821,0.51604 h 1.05365 c 1.096,0 1.6715,0.17492 1.81617,0.55189 0.14396,0.37468 0.0758,1.09517 -0.25532,2.69628 l -0.33249,1.6089 h -0.39693 c -0.21819,0 -0.39695,-0.0179 -0.39695,-0.0415 0,-0.0236 0.16393,-0.81489 0.36428,-1.76004 0.20026,-0.94517 0.36427,-1.77342 0.36427,-1.84059 0,-0.0673 -0.10921,-0.23142 -0.24284,-0.36492 -0.20138,-0.20138 -0.40473,-0.24284 -1.19367,-0.24284 h -0.95082 l -0.39345,1.91244 c -0.51529,2.50453 -0.45306,2.33746 -0.87019,2.33746 -0.26038,0 -0.35454,-0.0572 -0.35032,-0.21259 z m 6.12626,0.0269 c -0.26713,-0.0962 -0.49797,-0.17581 -0.51295,-0.17693 -0.0135,-7.4e-4 -0.11617,-0.1738 -0.22482,-0.38399 -0.31837,-0.61559 -0.19868,-1.95628 0.25348,-2.8359 0.45583,-0.88712 0.94593,-1.16894 2.16784,-1.24655 1.04985,-0.0668 1.75418,0.10585 2.14931,0.52701 0.26132,0.27848 0.29509,0.42314 0.29074,1.24601 -0.007,1.54554 -0.64761,2.62872 -1.7292,2.92913 -0.63661,0.17671 -1.82103,0.14778 -2.39438,-0.059 z m 2.24574,-0.63416 c 0.5971,-0.29875 0.99218,-1.07082 1.06376,-2.07888 0.0509,-0.71718 0.0278,-0.83125 -0.21214,-1.04765 -0.39399,-0.35529 -1.78558,-0.3475 -2.26877,0.0112 -0.47347,0.3529 -0.74712,0.86283 -0.89638,1.67031 -0.14778,0.79876 9e-4,1.25018 0.49284,1.49908 0.43394,0.21932 1.32534,0.19218 1.82074,-0.0556 z m 2.44179,-0.8498 c 0.44664,-2.13678 0.67858,-2.6415 1.35508,-2.94861 0.65807,-0.29871 1.72878,-0.32961 1.62022,-0.0466 -0.0406,0.10562 -0.0736,0.2352 -0.0736,0.28778 0,0.0525 -0.25774,0.12469 -0.57274,0.16012 -0.95489,0.10764 -1.07067,0.34535 -1.74331,3.57948 -0.1276,0.61353 -0.14778,0.63748 -0.53359,0.63748 h -0.40096 z m 4.03933,1.39642 c 0.0404,-0.15025 0.074,-0.3142 0.0751,-0.36428 7.7e-4,-0.05 0.33127,-0.091 0.73411,-0.091 0.85449,0 1.43629,-0.2108 1.77688,-0.64376 0.14958,-0.19039 0.37087,-0.9071 0.57597,-1.86647 0.747,-3.49418 0.64342,-3.1968 1.11366,-3.1968 0.22835,0 0.41502,0.041 0.41477,0.091 -0.002,0.42233 -1.02232,4.75438 -1.20197,5.10464 -0.49781,0.97078 -1.06328,1.23988 -2.60551,1.23988 -0.93216,0 -0.95416,-0.007 -0.88278,-0.2732 z m 5.41928,0.11862 c -0.16706,-0.083 -0.4063,-0.36088 -0.53185,-0.61747 -0.20475,-0.41828 -0.21372,-0.55626 -0.0879,-1.33472 0.31418,-1.94287 1.09305,-2.75034 2.65287,-2.75034 0.87914,0 1.49053,0.21394 1.77592,0.62134 0.34472,0.49214 0.21528,1.66982 -0.21484,1.95713 -0.0733,0.0491 -0.85177,0.0902 -1.72951,0.0911 -1.34213,0.001 -1.60764,0.0323 -1.6696,0.19397 -0.14621,0.38134 -0.0686,0.90566 0.16909,1.1436 0.21438,0.21438 0.40475,0.24286 1.62243,0.24286 h 1.37955 l -0.0581,0.30357 -0.0581,0.30357 -1.47331,-0.001 c -0.92708,-7.7e-4 -1.58586,-0.0579 -1.77686,-0.15272 z m 3.09736,-2.76132 c 0.15048,-0.24367 0.0933,-0.86702 -0.0975,-1.05768 -0.25464,-0.25461 -1.38745,-0.3375 -1.77383,-0.12984 -0.3316,0.17828 -0.68267,0.63398 -0.79915,1.03728 -0.0785,0.27156 -0.0709,0.2732 1.25781,0.2732 0.77187,0 1.36883,-0.0522 1.41274,-0.12311 z m 0.87997,2.61229 0.0581,-0.30355 h 1.54554 c 1.34311,0 1.57189,-0.0289 1.74654,-0.22201 0.49351,-0.54533 0.14083,-0.97605 -1.01333,-1.23769 -0.86074,-0.1951 -1.28505,-0.41435 -1.53231,-0.79174 -0.27926,-0.42619 -0.15765,-1.21358 0.25069,-1.62233 0.30559,-0.3059 0.36744,-0.31655 2.05814,-0.35445 l 1.74313,-0.0392 -0.0597,0.31227 -0.0596,0.31227 h -1.43427 c -1.59033,0 -1.81592,0.0913 -1.81592,0.73411 0,0.41733 0.26325,0.57664 1.48297,0.89743 1.3343,0.35095 1.71631,0.94879 1.24325,1.94572 -0.27995,0.58994 -0.59142,0.67266 -2.53294,0.67266 h -1.73815 z m 5.78013,0.18299 c -0.35683,-0.14397 -0.65051,-0.59436 -0.65051,-0.99752 0,-0.29527 0.51586,-2.96151 0.68235,-3.52662 0.0733,-0.24921 0.77517,-0.30425 0.77414,-0.0606 0,0.0834 -0.13702,0.79403 -0.30355,1.57898 -0.37549,1.76896 -0.38656,2.223 -0.0585,2.39855 0.13455,0.072 0.66713,0.11481 1.18389,0.0953 l 0.93955,-0.0354 0.38755,-1.81523 c 0.55038,-2.57806 0.47391,-2.37399 0.88974,-2.37399 0.19914,0 0.36196,0.0498 0.36196,0.11033 0,0.27426 -0.86632,4.18599 -0.96993,4.37963 -0.0639,0.11931 -0.20407,0.25074 -0.3116,0.292 -0.29161,0.1119 -2.62495,0.0758 -2.92502,-0.0453 z m 4.00804,-0.063 c 0.0424,-0.11033 0.0772,-0.25103 0.0772,-0.31236 0,-0.0619 0.67703,-0.11145 1.51782,-0.11145 1.35594,0 1.54372,-0.026 1.76069,-0.24287 0.27105,-0.27105 0.31395,-0.60886 0.10383,-0.81887 -0.0765,-0.0765 -0.59685,-0.25989 -1.15651,-0.40774 -1.25846,-0.33247 -1.61883,-0.62709 -1.61883,-1.32355 0,-0.62524 0.25278,-1.12424 0.66446,-1.31181 0.19487,-0.0888 0.9323,-0.14509 1.89965,-0.14509 1.57039,0 1.58102,0.001 1.54249,0.27323 -0.037,0.26128 -0.0946,0.27453 -1.3138,0.30323 -1.60534,0.0377 -1.80217,0.0859 -1.95018,0.47513 -0.21236,0.55843 -0.0487,0.74366 0.89495,1.01343 1.19761,0.34237 1.61703,0.54574 1.84595,0.8951 0.24923,0.38038 0.13656,1.06486 -0.24917,1.51375 -0.27495,0.32003 -0.29173,0.32278 -2.18636,0.36162 -1.73571,0.0357 -1.90226,0.0202 -1.83218,-0.16191 z M 87.652238,195.28593 c 0.0052,-0.51255 0.154218,-0.7059 0.543588,-0.7059 0.38166,0 0.392691,0.0135 0.31547,0.39462 -0.06795,0.33514 -0.138879,0.4004 -0.470369,0.43271 -0.261262,0.0256 -0.389799,-0.0135 -0.388689,-0.12154 z"
       id="path4849"
       inkscape:connector-curvature="0" />
  </g>
</svg>
